<?xml version="1.0" standalone="no"?>
<!DOCTYPE svg PUBLIC "-//W3C//DTD SVG 20010904//EN"
 "http://www.w3.org/TR/2001/REC-SVG-20010904/DTD/svg10.dtd">
<svg version="1.0" xmlns="http://www.w3.org/2000/svg"
 width="310.000000pt" height="163.000000pt" viewBox="0 0 310.000000 163.000000"
 preserveAspectRatio="xMidYMid meet">

<g transform="translate(0.000000,163.000000) scale(0.100000,-0.100000)"
fill="#000000" stroke="none">
<path d="M1145 1256 c-73 -32 -117 -124 -95 -200 27 -96 134 -151 227 -115 18
7 125 10 296 9 253 -1 268 0 265 17 -3 17 -21 18 -239 21 -201 2 -238 0 -249
-13 -26 -32 -30 -13 -4 21 39 51 44 133 12 189 -41 71 -139 103 -213 71z m103
-92 c24 15 56 -62 46 -113 l-6 -31 -79 0 -79 0 0 58 c1 57 1 57 43 78 28 15
46 19 54 12 7 -5 16 -7 21 -4z"/>
<path d="M1959 1141 c-70 -22 -109 -76 -109 -153 0 -60 30 -105 86 -129 149
-66 280 114 173 236 -17 19 -38 36 -47 39 -42 11 -79 14 -103 7z m85 -61 c14
-5 26 -16 26 -25 0 -8 6 -24 12 -35 10 -16 10 -24 0 -40 -6 -11 -12 -29 -12
-40 0 -24 -28 -40 -74 -40 -45 0 -76 28 -69 62 3 15 -2 29 -11 37 -23 20 -20
36 15 65 32 27 70 33 113 16z"/>
<path d="M1945 1060 c-7 -12 2 -30 16 -30 5 0 9 9 9 20 0 21 -15 27 -25 10z"/>
<path d="M2027 1064 c-3 -3 -3 -12 0 -20 4 -11 9 -12 19 -3 8 6 11 15 8 20 -6
10 -18 12 -27 3z"/>
<path d="M1920 1031 c0 -13 39 -35 48 -27 3 3 0 6 -6 6 -6 0 -18 7 -26 16 -9
8 -16 11 -16 5z"/>
<path d="M2031 1000 c-18 -16 -20 -20 -6 -20 24 0 56 20 50 31 -9 13 -17 11
-44 -11z"/>
<path d="M1950 970 c8 -5 20 -10 25 -10 6 0 3 5 -5 10 -8 5 -19 10 -25 10 -5
0 -3 -5 5 -10z"/>
<path d="M1948 938 c7 -7 30 -13 52 -13 22 0 45 6 52 13 10 10 6 10 -20 1 -24
-8 -40 -8 -64 0 -26 9 -30 9 -20 -1z"/>
<path d="M1152 695 l2 -235 403 0 403 0 0 189 c0 180 -1 189 -20 194 -19 5
-20 0 -20 -174 l0 -179 -370 0 -370 0 0 214 c0 181 -2 215 -15 220 -13 5 -15
-24 -13 -229z"/>
<path d="M1350 900 c0 -18 7 -20 65 -20 58 0 65 2 65 20 0 18 -7 20 -65 20
-58 0 -65 -2 -65 -20z"/>
<path d="M1350 815 l0 -35 210 0 210 0 0 35 0 35 -210 0 -210 0 0 -35z"/>
<path d="M1483 673 c42 -2 112 -2 155 0 42 1 7 3 -78 3 -85 0 -120 -2 -77 -3z"/>
<path d="M1523 653 c26 -2 67 -2 90 0 23 2 2 3 -48 3 -49 0 -68 -1 -42 -3z"/>
</g>
</svg>
