<?xml version="1.0" standalone="no"?>
<!DOCTYPE svg PUBLIC "-//W3C//DTD SVG 20010904//EN"
 "http://www.w3.org/TR/2001/REC-SVG-20010904/DTD/svg10.dtd">
<svg version="1.0" xmlns="http://www.w3.org/2000/svg"
 width="1358.000000pt" height="757.000000pt" viewBox="0 0 1358.000000 757.000000"
 preserveAspectRatio="xMidYMid meet">

<g transform="translate(0.000000,757.000000) scale(0.100000,-0.100000)"
fill="#000000" stroke="none">
<path d="M0 6270 l0 -1301 33 5 c17 3 86 11 152 16 66 6 253 25 415 41 366 37
450 43 430 31 -8 -6 -199 -28 -425 -51 -226 -23 -454 -46 -507 -52 l-98 -11 0
-640 0 -640 28 5 c15 3 81 15 147 27 66 11 157 27 202 35 80 15 131 19 105 8
-6 -2 -12 -11 -12 -19 0 -21 422 -20 464 1 26 14 30 13 56 -5 18 -13 44 -20
72 -20 58 0 101 37 133 115 l24 60 68 12 c85 16 109 10 29 -7 -75 -15 -116
-52 -116 -103 0 -51 28 -77 81 -77 27 0 53 8 68 19 21 16 27 17 39 5 10 -10
43 -14 127 -14 74 0 116 -4 121 -11 5 -8 10 -6 16 5 5 9 15 16 23 16 22 0 42
38 58 106 17 72 33 104 52 104 24 0 24 -13 5 -101 l-20 -84 22 -18 c20 -16 41
-18 239 -15 l218 3 38 36 c21 20 49 40 63 44 23 7 24 7 10 -11 -8 -10 -25 -28
-37 -40 -13 -12 -23 -24 -23 -28 0 -3 90 -6 199 -6 193 0 201 1 226 23 19 16
30 40 40 87 8 36 14 73 15 83 0 32 -20 18 -40 -27 -24 -57 -52 -76 -115 -76
l-50 0 110 110 110 110 -181 0 c-213 0 -222 -4 -248 -94 -19 -66 -19 -66 -3
-66 8 0 19 11 25 25 12 27 48 45 88 45 32 0 30 -10 -8 -47 -32 -29 -38 -31
-143 -37 -104 -6 -111 -8 -140 -36 -17 -17 -39 -30 -49 -30 -15 0 -16 5 -11
33 4 17 13 35 19 39 6 4 50 8 98 8 95 0 90 -3 104 72 5 33 2 41 -24 68 -29 29
-34 30 -117 30 -94 0 -137 -13 -173 -52 -27 -30 -65 -153 -57 -186 5 -20 2
-23 -17 -20 -26 3 -27 27 -7 105 7 24 9 65 7 92 l-5 49 131 22 c72 12 190 33
261 47 72 13 193 36 270 50 77 14 158 29 180 33 22 4 74 13 115 20 41 6 79 16
84 21 6 5 27 9 49 9 21 0 57 4 80 10 23 5 128 26 232 45 105 20 198 39 209 42
18 5 18 16 14 214 -3 115 -8 212 -11 215 -3 3 -88 -6 -189 -21 -100 -14 -214
-30 -253 -35 -38 -6 -101 -15 -140 -20 -38 -6 -88 -13 -110 -15 -22 -3 -103
-15 -180 -26 -77 -11 -185 -27 -240 -35 -55 -7 -179 -25 -275 -39 -96 -14
-261 -36 -366 -50 -105 -13 -197 -27 -205 -30 -8 -2 -70 -12 -139 -21 -69 -9
-152 -20 -185 -25 -33 -5 -107 -16 -165 -24 -58 -7 -136 -18 -175 -24 -38 -6
-108 -15 -155 -21 -47 -6 -119 -15 -160 -20 -155 -20 -170 -21 -170 -10 0 14
70 42 105 42 16 -1 35 4 42 10 7 5 31 8 53 6 22 -2 40 0 40 3 0 4 39 12 88 19
48 6 146 20 217 31 119 17 343 47 520 69 39 5 77 11 85 14 22 8 265 35 350 40
14 0 27 4 30 8 3 4 39 11 80 17 219 28 1002 142 1218 177 23 3 42 9 42 13 0 4
-85 35 -190 69 -104 35 -190 65 -190 68 0 2 10 2 23 -1 12 -2 36 -6 52 -8 17
-3 75 -19 131 -36 145 -44 137 -47 129 54 -7 83 -7 85 16 94 13 5 31 5 39 1 8
-4 56 -11 105 -15 50 -4 101 -9 115 -11 14 -2 89 -11 167 -19 78 -8 173 -19
210 -25 37 -5 89 -10 114 -10 l46 0 6 -197 c4 -108 7 -269 7 -358 l0 -162
-162 -8 c-90 -4 -233 -11 -318 -14 l-155 -6 -3 -38 c-3 -31 6 -51 56 -126 l59
-89 7 -291 c6 -271 8 -295 28 -336 l22 -45 4328 0 4328 0 0 405 c0 223 3 405
8 405 4 0 106 -11 227 -25 195 -22 717 -75 895 -90 36 -3 84 -8 108 -12 l42
-5 0 85 0 85 -87 8 c-58 4 -81 9 -68 14 11 5 -15 6 -57 3 -51 -4 -78 -2 -78 4
0 6 12 14 26 17 21 6 25 12 21 32 -5 27 1 33 38 40 18 3 25 0 25 -11 0 -8 9
-15 20 -15 13 0 20 7 20 20 0 16 -7 20 -35 20 -19 0 -35 5 -35 10 0 15 4 15
123 5 l87 -7 0 25 c0 24 -1 25 -64 20 -90 -8 -115 0 -108 32 2 14 8 28 13 31
5 3 9 10 9 17 0 6 -13 -3 -29 -21 -32 -35 -45 -37 -203 -33 -38 0 -68 -2 -68
-7 0 -4 -56 -6 -125 -4 -104 3 -127 1 -141 -12 -8 -9 -14 -16 -12 -17 33 -5
123 -11 243 -14 83 -3 162 -5 176 -5 24 -1 27 -6 31 -42 2 -27 -1 -42 -9 -45
-7 -3 -13 -12 -13 -20 0 -19 -57 -16 -645 42 -88 9 -198 19 -245 23 -83 7 -85
8 -83 32 1 14 1 61 1 105 0 124 1 158 5 162 9 8 238 -18 277 -32 52 -18 50
-18 50 1 0 14 1 14 16 0 8 -9 27 -16 42 -16 50 -1 286 -11 392 -17 58 -3 163
-6 233 -6 123 0 128 0 123 -19 -5 -20 -4 -20 18 1 16 15 35 21 69 21 l47 0 0
1555 0 1555 -6790 0 -6790 0 0 -1300z m505 1271 c-3 -6 -11 -11 -16 -11 -5 0
-4 6 3 14 14 16 24 13 13 -3z m0 -61 c9 -18 15 -56 15 -103 0 -87 -26 -140
-72 -145 -72 -8 -80 155 -12 246 31 40 49 41 69 2z m103 14 c54 -37 81 -156
45 -196 -17 -19 -49 -23 -70 -10 -35 22 -55 139 -33 196 11 30 26 32 58 10z
m-214 -38 c-3 -9 -12 -16 -19 -16 -20 0 -72 -65 -80 -99 -8 -37 1 -71 20 -71
15 0 26 58 12 63 -15 5 11 47 29 47 12 0 14 -12 8 -67 -8 -89 -9 -93 -38 -93
-36 0 -56 26 -56 71 0 52 29 106 80 153 43 38 55 42 44 12z m311 -17 c11 -13
13 -18 4 -11 -13 10 -13 2 5 -48 24 -69 51 -91 44 -36 -5 46 9 36 22 -16 14
-49 4 -63 -38 -53 -28 6 -32 12 -42 63 -7 31 -20 76 -30 100 -17 39 -18 41 -2
33 10 -5 26 -20 37 -32z m12800 -64 c0 -33 -4 -41 -22 -43 -25 -4 -38 26 -29
64 5 19 12 25 29 22 18 -3 22 -9 22 -43z m-3005 -25 c18 -18 20 -33 20 -180 0
-147 -2 -162 -20 -180 -19 -19 -33 -20 -375 -20 -342 0 -356 1 -375 20 -18 18
-20 33 -20 180 0 147 2 162 20 180 19 19 33 20 375 20 342 0 356 -1 375 -20z
m2220 0 c18 -18 20 -33 20 -180 0 -147 -2 -162 -20 -180 -19 -19 -33 -20 -350
-20 -317 0 -331 1 -350 20 -18 18 -20 33 -20 180 0 147 2 162 20 180 19 19 33
20 350 20 317 0 331 -1 350 -20z m491 13 c-136 -3 -168 -6 -183 -20 -16 -14
-18 -35 -18 -171 0 -131 3 -158 17 -174 15 -16 35 -18 213 -18 177 0 199 2
213 18 13 14 17 45 20 147 l3 130 2 -132 c3 -184 18 -173 -238 -173 -259 0
-240 -16 -240 200 0 214 -13 201 208 198 l167 -2 -164 -3z m-11477 -125 c9
-12 16 -28 16 -35 0 -25 -39 -53 -75 -53 -32 0 -35 -2 -35 -30 0 -16 -4 -30
-10 -30 -6 0 -10 35 -10 85 l0 85 49 0 c40 0 53 -4 65 -22z m356 -61 l0 -83
-45 -2 c-50 -2 -65 14 -65 65 0 46 21 67 58 60 29 -6 32 -4 32 18 0 14 5 25
10 25 6 0 10 -34 10 -83z m310 59 c0 -8 6 -17 13 -20 10 -5 10 -7 0 -12 -15
-7 -18 -94 -3 -94 6 0 10 -4 10 -10 0 -5 -9 -10 -20 -10 -18 0 -20 7 -20 54 0
34 -5 57 -12 60 -10 5 -10 7 0 12 6 3 12 12 12 20 0 8 5 14 10 14 6 0 10 -6
10 -14z m-1688 -21 c-3 -20 -10 -25 -33 -25 -16 0 -29 -4 -29 -9 0 -5 -3 -16
-6 -25 -5 -12 0 -16 20 -16 14 0 26 -2 26 -4 0 -18 -15 -36 -31 -36 -10 0 -23
-9 -29 -19 -16 -30 -12 -44 10 -38 21 5 25 0 12 -20 -8 -13 -62 -36 -69 -30
-2 3 5 55 17 117 11 63 20 117 20 122 0 4 22 8 49 8 46 0 48 -1 43 -25z m68 0
c12 -15 5 -39 -10 -30 -14 9 -30 -19 -20 -35 16 -25 11 -38 -26 -80 -37 -41
-58 -52 -48 -25 4 8 12 15 19 15 7 0 18 7 26 16 10 13 10 20 0 36 -9 15 -9 27
0 56 19 61 36 74 59 47z m12492 5 c39 0 40 -1 32 -27 -4 -16 -8 -40 -7 -55 0
-17 -5 -28 -13 -28 -8 0 -14 5 -14 10 0 6 -9 10 -20 10 -11 0 -20 -4 -20 -10
0 -5 -7 -10 -15 -10 -8 0 -14 8 -13 18 3 42 -3 72 -19 88 -17 17 -16 17 16 11
18 -4 51 -7 73 -7z m-12704 -12 c16 -16 15 -47 -2 -80 -9 -16 -11 -30 -5 -33
14 -9 11 -58 -7 -83 -10 -15 -25 -22 -49 -22 -32 0 -34 2 -44 48 -5 26 -13 70
-16 97 l-7 51 48 16 c62 20 67 21 82 6z m1262 2 c0 -5 -7 -10 -15 -14 -11 -4
-15 -20 -15 -56 0 -38 -4 -50 -15 -50 -12 0 -15 14 -15 64 l0 65 30 -1 c17 -1
30 -4 30 -8z m114 -6 c9 -8 16 -31 16 -49 0 -39 -22 -65 -55 -65 -33 0 -55 26
-55 65 0 39 22 65 55 65 13 0 31 -7 39 -16z m196 -39 c0 -51 2 -55 24 -55 28
0 36 16 36 71 0 21 5 39 10 39 6 0 10 -28 10 -63 l0 -64 -47 1 -48 1 -3 63
c-2 38 1 62 8 62 6 0 10 -23 10 -55z m200 40 c16 -19 5 -34 -12 -17 -20 20
-47 14 -54 -12 -13 -51 22 -86 54 -54 17 17 28 2 12 -17 -16 -20 -54 -19 -74
1 -9 8 -16 31 -16 49 0 18 7 41 16 49 20 20 58 21 74 1z m174 9 c29 -11 16
-23 -19 -17 -27 4 -35 2 -35 -10 0 -9 12 -18 30 -22 62 -14 54 -75 -9 -75 -30
0 -59 24 -42 34 5 4 12 2 16 -4 3 -5 17 -10 31 -10 36 0 29 27 -10 40 -39 12
-48 26 -34 53 9 17 42 22 72 11z m8611 -46 c1 -50 -9 -63 -20 -28 -3 11 -13
20 -21 20 -8 0 -14 -9 -14 -20 0 -11 -4 -20 -10 -20 -5 0 -10 23 -10 51 l0 50
38 -3 37 -3 0 -47z m329 -2 c2 -30 -1 -45 -8 -43 -15 5 -23 69 -11 83 14 17
16 12 19 -40z m-11164 5 c7 -22 22 -52 32 -68 11 -15 17 -20 14 -10 -3 10 -9
37 -13 59 -5 32 -3 40 8 36 8 -3 18 -31 24 -69 6 -35 14 -70 18 -77 5 -7 3
-10 -5 -7 -28 11 -122 175 -100 175 5 0 15 -18 22 -39z m10918 7 c2 -13 -3
-18 -17 -18 -12 0 -21 -6 -21 -16 0 -11 6 -14 23 -9 17 6 19 4 11 -5 -29 -30
-67 13 -50 56 8 21 50 14 54 -8z m80 -33 c-2 -39 -7 -51 -22 -53 -10 -2 -23 1
-29 7 -9 9 -5 11 12 9 13 -2 26 2 28 8 2 6 -7 10 -19 10 -17 -1 -24 5 -26 22
-5 37 5 52 33 50 25 -2 26 -5 23 -53z m39 -7 c-2 -13 -4 -3 -4 22 0 25 2 35 4
23 2 -13 2 -33 0 -45z m79 51 c4 -8 0 -9 -15 -4 -12 3 -21 2 -21 -4 0 -5 9
-13 21 -16 25 -8 22 -38 -5 -43 -10 -2 -23 2 -30 8 -8 9 -6 11 11 6 31 -10 37
9 8 22 -25 12 -31 23 -18 35 10 11 41 8 49 -4z m122 -1 c19 -19 14 -28 -14
-28 -16 0 -24 -5 -21 -12 2 -7 15 -12 28 -10 17 2 21 0 12 -9 -17 -17 -48 -6
-51 19 -7 46 18 68 46 40z m59 -6 c-8 -9 -17 -28 -20 -42 -3 -17 -5 -12 -6 15
-1 35 2 41 20 42 19 2 20 0 6 -15z m-11177 -25 c0 -12 8 -53 19 -90 12 -44 15
-67 7 -64 -12 4 -50 94 -61 145 -6 28 -4 32 14 32 15 0 21 -6 21 -23z m-133
-53 c-3 -3 -12 -4 -19 -1 -8 3 -5 6 6 6 11 1 17 -2 13 -5z m384 -127 c-10 -9
-11 -8 -5 6 3 10 9 15 12 12 3 -3 0 -11 -7 -18z m2390 -434 c0 -82 3 -348 5
-593 3 -315 1 -468 -8 -522 -6 -43 -15 -78 -18 -78 -8 0 -16 409 -13 710 2
318 14 630 24 630 5 0 9 -66 10 -147z m279 137 c0 -5 -16 -10 -35 -10 -19 0
-35 5 -35 10 0 6 16 10 35 10 19 0 35 -4 35 -10z m420 -11 c0 -18 -4 -20 -22
-14 -13 4 -97 10 -188 12 -237 6 -227 23 13 23 194 0 197 0 197 -21z m240 11
c0 -5 -4 -10 -10 -10 -5 0 -10 5 -10 10 0 6 5 10 10 10 6 0 10 -4 10 -10z m90
-5 c0 -8 -4 -15 -10 -15 -5 0 -10 7 -10 15 0 8 5 15 10 15 6 0 10 -7 10 -15z
m390 0 c6 -8 9 -18 6 -24 -9 -14 -104 -44 -116 -36 -5 3 -10 1 -10 -4 0 -6 -4
-11 -10 -11 -18 0 -10 39 10 50 11 6 20 17 20 24 0 19 84 20 100 1z m329 -3
c1 15 13 17 86 16 76 0 85 -2 85 -19 0 -13 -13 -24 -40 -35 -26 -11 -40 -22
-40 -34 0 -23 -20 -37 -29 -22 -4 6 -17 9 -29 6 -20 -6 -21 -8 -7 -41 8 -20
15 -37 15 -38 0 -2 -20 -3 -45 -3 -48 1 -54 8 -45 53 l6 30 7 -32 c13 -65 27
-34 23 54 -1 48 1 78 5 68 6 -16 8 -17 8 -3z m221 2 c0 -2 -7 -4 -15 -4 -8 0
-15 4 -15 10 0 5 7 7 15 4 8 -4 15 -8 15 -10z m170 12 c0 -2 -7 -17 -15 -32
-8 -16 -14 -38 -14 -49 1 -17 2 -17 6 -2 5 19 18 22 28 6 4 -6 13 -8 20 -5 10
4 12 -4 8 -32 -8 -57 -11 -62 -39 -62 -23 0 -25 -3 -20 -24 3 -14 1 -28 -6
-32 -8 -5 -10 11 -5 62 l5 69 -11 -52 c-14 -63 -31 -84 -23 -28 11 67 28 159
32 173 3 10 34 18 34 8z m120 -10 c0 -8 -8 -12 -23 -9 -13 3 -31 -2 -39 -10
-18 -18 -40 -4 -31 19 7 19 93 19 93 0z m109 -17 c-29 -18 -44 -9 -19 11 15
11 26 15 29 8 2 -6 -3 -14 -10 -19z m131 16 c-12 -15 -30 -12 -30 6 0 5 10 9
21 9 18 0 19 -2 9 -15z m530 -25 c0 -36 -2 -40 -25 -40 -22 0 -25 4 -25 40 0
36 3 40 25 40 23 0 25 -4 25 -40z m295 -1 c-8 -23 -15 -54 -15 -69 0 -15 -7
-33 -15 -40 -13 -11 -15 -4 -15 53 0 81 6 97 36 97 23 0 23 0 9 -41z m95 31
c18 -12 2 -12 -25 0 -13 6 -15 9 -5 9 8 0 22 -4 30 -9z m320 -4 c0 -7 -9 -16
-20 -19 -15 -4 -20 0 -20 14 0 12 7 19 20 19 11 0 20 -6 20 -14z m127 0 c-3
-8 -1 -16 5 -18 6 -2 5 -8 -4 -15 -11 -10 -14 -7 -12 15 2 31 2 32 10 32 3 0
4 -6 1 -14z m1561 -37 c60 -1 76 -4 52 -8 -19 -4 -52 -6 -72 -4 l-38 2 -2 -42
-1 -42 -4 43 c-3 28 -9 42 -19 42 -9 0 -14 10 -13 33 2 30 2 30 6 5 4 -28 4
-28 91 -29z m-33 41 c-3 -5 -10 -10 -16 -10 -5 0 -9 5 -9 10 0 6 7 10 16 10 8
0 12 -4 9 -10z m135 0 c0 -5 -4 -10 -9 -10 -6 0 -13 5 -16 10 -3 6 1 10 9 10
9 0 16 -4 16 -10z m66 -22 c-21 -124 -37 -652 -21 -678 10 -17 13 -115 3 -121
-7 -4 -6 -14 1 -27 7 -14 8 -23 1 -27 -18 -11 -12 -55 8 -56 9 -1 2 -6 -15
-11 -18 -6 -33 -16 -33 -22 0 -23 -21 -182 -26 -200 -6 -17 -14 -18 -128 -11
-66 4 -130 11 -141 16 -20 9 12 8 166 -7 65 -6 66 -6 71 20 3 14 1 26 -3 26
-5 0 -4 12 2 27 7 20 6 28 -3 35 -8 5 -9 8 -2 8 7 0 14 14 16 30 4 28 2 30
-26 31 -30 2 -30 2 -3 6 15 2 27 10 27 18 0 7 3 20 6 29 4 12 0 16 -17 17 -24
2 -24 2 -1 6 18 4 22 11 22 39 l0 34 -57 1 c-32 1 -83 5 -113 9 -40 6 -24 7
56 4 l111 -5 7 32 c3 18 5 33 4 34 -2 2 -47 5 -100 7 -83 3 -98 2 -99 -12 0
-10 -3 -9 -8 5 -10 23 -4 38 10 29 5 -3 52 -8 104 -11 94 -5 95 -5 96 19 0 12
2 49 5 81 l6 57 -59 2 c-32 1 -67 3 -78 4 -11 1 -36 3 -55 3 -21 1 -30 4 -23
9 14 9 25 8 141 -3 l72 -8 0 31 c0 17 3 37 6 46 5 14 -6 16 -87 16 -51 0 -89
3 -85 7 4 4 45 6 91 4 l85 -3 0 30 c0 17 3 37 6 46 5 14 -9 16 -114 16 l-120
0 -7 -97 c-6 -77 -10 -93 -19 -81 -9 12 -16 14 -30 6 -9 -5 -21 -7 -24 -3 -4
4 1 11 11 16 23 14 21 26 -5 33 -18 4 -20 8 -11 17 9 9 15 9 27 0 12 -10 17
-3 32 46 10 32 21 83 24 113 l7 55 2 -45 1 -46 114 -2 114 -3 4 46 c2 25 0 45
-4 45 -4 0 -3 11 2 24 5 13 9 57 10 98 1 40 3 87 4 103 2 17 4 40 5 53 1 15 7
22 21 22 18 0 20 -5 16 -32z m727 25 c-13 -2 -33 -2 -45 0 -13 2 -3 4 22 4 25
0 35 -2 23 -4z m1432 -3 c-4 -6 -107 -10 -276 -10 -173 0 -269 4 -269 10 0 6
99 10 276 10 181 0 273 -3 269 -10z m180 0 c-3 -5 -11 -10 -16 -10 -6 0 -7 5
-4 10 3 6 11 10 16 10 6 0 7 -4 4 -10z m335 0 c0 -5 -18 -10 -41 -10 -24 0
-38 4 -34 10 3 6 22 10 41 10 19 0 34 -4 34 -10z m-7432 -20 c5 -43 9 -60 19
-72 21 -26 24 -55 7 -72 -32 -32 -81 -66 -96 -66 -19 0 -31 62 -18 96 11 28
17 30 42 7 17 -15 18 -15 18 0 0 10 -7 17 -15 17 -18 0 -17 -3 -6 37 8 29 7
32 -17 38 l-27 7 29 12 c39 16 61 15 64 -4z m677 -77 c7 -52 6 -53 -19 -53
-27 0 -28 3 -41 82 -5 32 -3 37 17 40 29 4 34 -4 43 -69z m739 17 c-1 -47 0
-51 8 -27 5 15 14 27 18 27 15 0 24 -24 12 -28 -7 -2 -12 -14 -12 -27 0 -29
-30 -57 -31 -29 0 11 -6 0 -13 -22 -7 -23 -20 -51 -28 -63 -14 -19 -15 -16
-13 41 2 62 12 150 21 176 2 8 12 12 21 10 15 -3 18 -14 17 -58z m1341 50 c3
-5 2 -10 -4 -10 -5 0 -13 5 -16 10 -3 6 -2 10 4 10 5 0 13 -4 16 -10z m3372 4
c-3 -3 -12 -4 -19 -1 -8 3 -5 6 6 6 11 1 17 -2 13 -5z m76 -1 c-7 -2 -21 -2
-30 0 -10 3 -4 5 12 5 17 0 24 -2 18 -5z m95 0 c-16 -2 -40 -2 -55 0 -16 2 -3
4 27 4 30 0 43 -2 28 -4z m-5134 -74 c5 -53 4 -57 -16 -62 -28 -8 -38 7 -38
55 0 20 -3 43 -6 51 -4 11 2 17 18 19 32 5 35 1 42 -63z m-841 36 c7 -16 -8
-29 -23 -20 -15 9 -12 35 4 35 8 0 16 -7 19 -15z m2710 0 c-3 -9 -8 -14 -10
-11 -3 3 -2 9 2 15 9 16 15 13 8 -4z m-2928 -25 c0 -37 -36 -34 -46 3 -7 26
-6 28 19 25 21 -2 27 -8 27 -28z m158 9 c3 -12 0 -22 -8 -25 -20 -8 -35 4 -35
27 0 26 36 25 43 -2z m2778 -192 c8 -50 26 -82 55 -97 13 -7 21 -17 18 -22 -3
-4 6 -8 19 -8 16 0 26 -7 30 -19 8 -31 -53 -49 -193 -60 -69 -5 -128 -6 -131
-3 -12 13 -20 64 -9 57 5 -3 10 -1 10 5 0 6 16 18 35 26 19 8 35 17 35 20 0
13 -56 -2 -72 -19 -16 -18 -17 -17 -26 20 -17 68 -62 288 -62 300 0 6 64 -28
142 -75 137 -83 143 -89 149 -125z m1446 191 c-3 -8 -6 -5 -6 6 -1 11 2 17 5
13 3 -3 4 -12 1 -19z m-4293 -4 c12 -31 6 -44 -19 -44 -40 0 -34 54 6 59 4 1
10 -6 13 -15z m1463 -59 c6 -38 21 -128 33 -200 11 -71 23 -131 25 -133 2 -2
17 -1 33 3 28 6 30 10 34 58 5 66 -10 203 -27 242 -7 17 -16 40 -20 53 -3 12
-14 22 -25 22 -10 0 -21 4 -24 9 -5 7 94 25 101 17 2 -1 10 -90 18 -197 18
-218 20 -229 43 -229 15 -1 15 -2 -2 -11 -13 -8 -33 -8 -70 0 -28 7 -77 11
-108 11 -35 -1 -58 3 -58 9 0 6 4 11 8 11 15 0 33 78 32 133 -3 113 -11 145
-47 171 -25 18 -28 18 -54 3 -21 -11 -31 -13 -36 -4 -3 6 -2 12 3 14 27 10 36
22 29 43 -5 17 -12 20 -32 15 -18 -4 -24 -2 -21 7 6 17 42 25 103 24 l50 -1
12 -70z m282 -197 c1 -98 5 -158 11 -158 6 0 10 -5 10 -10 0 -6 -12 -8 -27 -4
-53 11 -56 13 -44 28 7 8 14 71 18 145 6 133 6 137 -33 214 -20 40 -18 45 19
49 32 3 32 3 38 -52 4 -30 7 -126 8 -212z m951 251 c0 -6 -4 -7 -10 -4 -5 3
-10 11 -10 16 0 6 5 7 10 4 6 -3 10 -11 10 -16z m-2080 -50 c0 -43 -3 -49 -20
-49 -19 0 -20 4 -15 38 10 58 16 73 26 67 5 -4 9 -28 9 -56z m3007 55 c-3 -3
-12 -4 -19 -1 -8 3 -5 6 6 6 11 1 17 -2 13 -5z m-3088 -41 c-1 -37 -1 -37 -8
-8 -7 28 -5 45 5 45 2 0 3 -17 3 -37z m-380 -15 c4 -13 11 -40 15 -60 7 -36 5
-38 -19 -38 -14 0 -25 3 -25 8 -1 4 -5 27 -10 52 -4 25 -6 48 -4 52 10 16 35
7 43 -14z m-228 -21 c4 -15 9 -45 11 -65 3 -32 0 -37 -21 -40 -32 -5 -38 4
-45 76 l-7 63 27 -3 c21 -2 30 -10 35 -31z m164 1 c13 -74 11 -93 -12 -96 -22
-3 -23 -1 -39 91 -6 35 -5 37 19 37 22 0 27 -6 32 -32z m4218 3 c29 3 190 -1
186 -6 -3 -2 -42 -5 -87 -6 -68 -1 -82 -4 -83 -18 -1 -13 -2 -13 -6 2 -2 9
-11 17 -19 17 -8 0 -14 9 -13 23 1 17 2 18 6 4 2 -10 10 -17 16 -16z m-4279
-57 c7 -52 3 -64 -24 -64 -20 0 -26 12 -35 82 -6 40 -4 47 12 50 25 6 39 -14
47 -68z m983 54 c-3 -8 -6 -5 -6 6 -1 11 2 17 5 13 3 -3 4 -12 1 -19z m2973
-40 l-5 -53 -3 48 c-3 41 -6 48 -20 43 -14 -5 -13 -3 2 9 27 21 32 13 26 -47z
m-4298 20 c0 -18 0 -41 0 -51 -1 -12 10 -23 33 -33 20 -8 39 -13 43 -11 4 2
15 -4 24 -14 17 -18 17 -19 -2 -29 -24 -13 -80 -7 -90 10 -4 7 -16 9 -28 6
-18 -6 -24 0 -38 31 -9 22 -18 32 -21 25 -3 -8 0 -19 6 -25 6 -6 11 -15 11
-21 0 -6 -5 -5 -12 2 -17 17 -28 15 -28 -4 0 -13 -11 -15 -62 -14 -78 3 -88 2
-87 -7 3 -21 -2 -34 -11 -28 -6 4 -10 15 -8 24 2 10 -3 25 -11 35 -16 19 -12
26 16 29 11 0 20 8 19 17 -1 12 12 15 66 15 37 1 70 4 73 7 4 3 -13 12 -36 20
-72 24 -60 37 38 41 48 1 91 4 96 5 4 1 8 -13 9 -30z m1267 -2 c-10 -8 -119
-14 -119 -5 0 5 28 9 62 9 34 0 59 -2 57 -4z m3328 -78 c-2 -13 -4 -3 -4 22 0
25 2 35 4 23 2 -13 2 -33 0 -45z m-5041 29 c4 -4 2 -7 -4 -7 -6 0 -18 -12 -25
-26 -16 -31 -31 -18 -22 19 6 23 35 31 51 14z m1975 -49 c-2 -68 -18 -128 -34
-128 -7 0 -48 11 -92 23 -56 16 -81 28 -83 40 -3 12 3 17 22 17 14 0 29 7 34
16 7 13 11 12 26 -10 21 -33 34 -33 46 -1 5 14 14 25 19 25 5 0 3 -12 -4 -27
-16 -30 -7 -47 18 -37 9 3 19 22 22 42 3 21 8 52 11 71 8 49 17 29 15 -31z
m-1841 32 c0 -5 -4 -10 -10 -10 -5 0 -10 5 -10 10 0 6 5 10 10 10 6 0 10 -4
10 -10z m-109 -37 c-9 -35 -31 -42 -31 -11 0 25 18 50 31 43 4 -3 4 -17 0 -32z
m1760 -20 c-9 -15 -10 -13 -11 13 0 17 3 34 8 38 11 12 14 -32 3 -51z m3407
30 c-27 -2 -69 -2 -95 0 -27 2 -5 3 47 3 52 0 74 -1 48 -3z m4516 1 c17 -7 22
-44 6 -44 -5 0 -10 7 -10 15 0 8 -6 15 -14 15 -8 0 -18 5 -21 10 -7 11 15 13
39 4z m-4977 -36 c-3 -8 -6 -5 -6 6 -1 11 2 17 5 13 3 -3 4 -12 1 -19z m-1677
-9 c0 -6 -4 -7 -10 -4 -5 3 -10 11 -10 16 0 6 5 7 10 4 6 -3 10 -11 10 -16z
m2017 -31 c-3 -7 -5 -2 -5 12 0 14 2 19 5 13 2 -7 2 -19 0 -25z m83 18 c0 -8
-4 -18 -10 -21 -5 -3 -10 3 -10 14 0 12 5 21 10 21 6 0 10 -6 10 -14z m-1941
-5 c9 -6 10 -11 2 -15 -13 -8 -31 1 -31 15 0 11 11 11 29 0z m-2832 -43 c-3
-8 -6 -5 -6 6 -1 11 2 17 5 13 3 -3 4 -12 1 -19z m2767 -11 c-3 -9 -10 -17
-14 -17 -5 0 -6 -9 -3 -19 3 -12 -1 -20 -11 -23 -10 -2 -13 -8 -7 -17 6 -10
15 -2 32 28 12 23 26 41 31 41 16 0 7 -55 -12 -80 -11 -14 -20 -31 -20 -37 0
-7 -11 -13 -24 -13 -13 0 -26 -7 -30 -15 -3 -8 -11 -15 -18 -15 -11 0 -11 2 0
8 7 5 12 22 10 38 -2 34 53 157 65 145 4 -4 5 -15 1 -24z m86 13 c0 -5 -4 -10
-10 -10 -5 0 -10 5 -10 10 0 6 5 10 10 10 6 0 10 -4 10 -10z m-1154 -30 c6 0
18 -16 27 -35 9 -19 24 -35 32 -35 9 0 13 -4 10 -10 -20 -32 -85 8 -85 53 0
10 -9 21 -20 24 -21 5 -25 15 -13 26 3 4 14 0 23 -8 9 -8 21 -15 26 -15z
m-567 4 c7 -7 -3 -11 -46 -18 -33 -5 -43 -3 -43 7 0 23 13 29 50 22 19 -4 37
-9 39 -11z m173 4 c-22 -22 -12 -36 28 -43 64 -11 73 -26 68 -116 -2 -64 0
-79 12 -83 8 -2 2 -4 -13 -5 -17 -1 -26 3 -22 9 3 6 -3 10 -14 10 -16 0 -21
-6 -21 -25 0 -24 -2 -25 -62 -24 -50 0 -58 2 -40 10 13 5 35 6 49 3 18 -5 24
-3 19 5 -4 6 -34 11 -73 11 -55 0 -64 2 -59 16 3 9 6 25 6 36 0 12 3 18 7 14
4 -4 8 -15 8 -24 0 -9 8 -18 18 -20 10 -2 16 2 15 9 -3 15 65 13 70 -2 9 -23
31 -5 42 35 14 52 11 75 -12 90 -23 14 -61 -19 -52 -46 3 -12 0 -19 -10 -19
-9 -1 -21 -2 -28 -3 -13 -1 -37 63 -30 82 2 6 13 12 23 12 23 0 25 18 4 26
-22 9 -7 26 18 19 12 -2 16 -2 9 1 -19 9 5 34 31 34 16 0 18 -3 9 -12z m3838
2 c0 -6 8 -5 20 2 10 7 22 9 27 5 7 -8 -32 -91 -54 -115 -14 -14 -17 -32 -7
-32 4 0 13 8 20 17 7 10 16 14 20 10 4 -4 -6 -22 -23 -39 -26 -26 -34 -29 -47
-19 -9 8 -16 9 -21 1 -12 -19 -33 -10 -44 20 -5 17 -6 28 -2 25 5 -2 11 4 14
15 3 11 1 18 -3 15 -5 -3 -11 -1 -15 5 -3 5 5 14 19 20 14 5 26 14 26 18 0 5
9 21 21 36 20 26 49 35 49 16z m3486 -15 c3 -14 4 -37 1 -50 -2 -14 -1 -43 3
-64 4 -22 4 -45 0 -52 -4 -6 -11 26 -15 72 -3 46 -9 92 -11 102 -3 9 -1 17 5
17 6 0 13 -11 17 -25z m-3949 -22 c-3 -10 -5 -4 -5 12 0 17 2 24 5 18 2 -7 2
-21 0 -30z m-4636 -68 c-3 -5 -9 10 -12 35 -4 25 -4 50 0 55 3 6 9 -10 12 -35
4 -25 4 -49 0 -55z m2608 83 c0 -7 -4 -22 -9 -33 -7 -17 -9 -15 -9 13 -1 17 4
32 9 32 6 0 10 -6 9 -12z m-1463 -25 c-10 -11 -37 -12 -30 -2 3 5 12 9 21 9 9
0 13 -3 9 -7z m-116 -16 c0 -8 -9 -22 -20 -32 -17 -16 -20 -16 -20 -2 0 26 11
47 26 47 8 0 14 -6 14 -13z m3610 -11 c0 -3 -4 -8 -10 -11 -5 -3 -10 -1 -10 4
0 6 5 11 10 11 6 0 10 -2 10 -4z m-311 -173 c17 -61 56 -147 76 -163 9 -8 35
-17 58 -21 l42 -6 -41 -2 c-36 -1 -46 4 -72 33 -50 57 -94 197 -91 290 1 32 3
27 9 -24 4 -36 13 -84 19 -107z m591 157 c0 -5 -2 -10 -4 -10 -3 0 -8 5 -11
10 -3 6 -1 10 4 10 6 0 11 -4 11 -10z m-3818 -17 c22 -20 23 -29 2 -37 -21 -8
-44 11 -44 35 0 23 18 24 42 2z m-1302 -112 c-7 -11 -9 2 -9 44 l1 60 9 -44
c5 -26 5 -50 -1 -60z m4912 84 c0 -5 -5 -11 -11 -13 -6 -2 -11 4 -11 13 0 9 5
15 11 13 6 -2 11 -8 11 -13z m-1397 -5 c3 -5 2 -10 -4 -10 -5 0 -13 5 -16 10
-3 6 -2 10 4 10 5 0 13 -4 16 -10z m145 -2 c0 -5 -18 -8 -40 -8 -22 0 -43 0
-47 -1 -4 0 -9 4 -11 10 -2 6 17 9 47 8 28 -1 51 -5 51 -9z m-838 -98 c-15
-25 -15 -33 -1 -24 7 4 10 2 8 -5 -10 -30 -24 -12 -27 34 -3 48 -2 49 15 32
15 -14 16 -21 5 -37z m38 35 c0 -8 -4 -15 -10 -15 -5 0 -10 7 -10 15 0 8 5 15
10 15 6 0 10 -7 10 -15z m2659 -21 c6 -15 14 -47 17 -73 l4 -46 -14 50 c-8 27
-19 51 -25 53 -13 4 -15 42 -3 42 5 0 14 -12 21 -26z m3271 -9 c0 -14 -6 -25
-14 -25 -9 0 -12 8 -8 25 2 14 8 25 13 25 5 0 9 -11 9 -25z m-6186 -5 l41 -1
-30 -13 c-19 -8 -36 -10 -47 -5 -9 5 -53 9 -97 9 -50 0 -83 4 -87 12 -5 8 16
10 86 5 51 -4 112 -7 134 -7z m-254 -10 c-14 -4 -19 -8 -11 -9 8 -1 11 -4 7
-8 -4 -5 -9 -6 -10 -3 -2 3 -10 -1 -20 -9 -9 -7 -34 -14 -56 -14 -22 0 -43 -4
-46 -8 -3 -5 -16 -9 -30 -9 -14 0 -22 4 -19 10 3 6 0 10 -7 10 -7 0 -24 3 -38
7 -22 6 -24 5 -11 -10 12 -15 11 -17 -10 -16 -13 0 -33 4 -44 8 -19 8 -19 8 1
19 12 6 69 14 128 18 59 4 109 11 112 15 3 5 22 9 42 8 33 -1 34 -2 12 -9z
m522 -15 c-2 -14 -6 -25 -8 -25 -2 0 -4 11 -4 25 0 14 4 25 9 25 4 0 6 -11 3
-25z m157 18 c0 -5 -4 -17 -9 -28 -8 -18 -9 -17 -9 8 -1 15 4 27 9 27 6 0 10
-3 9 -7z m1748 -15 c-3 -8 -6 -5 -6 6 -1 11 2 17 5 13 3 -3 4 -12 1 -19z m113
-1 c62 -3 62 -3 -18 -5 -70 -2 -81 0 -70 12 7 8 15 10 18 5 3 -4 35 -10 70
-12z m-2950 -7 c0 -5 -13 -10 -30 -10 -16 0 -30 5 -30 10 0 6 14 10 30 10 17
0 30 -4 30 -10z m1140 0 c0 -5 -9 -10 -20 -10 -11 0 -20 5 -20 10 0 6 9 10 20
10 11 0 20 -4 20 -10z m-493 -30 c-1 -14 -8 -20 -24 -20 -29 0 -29 12 0 26 12
7 23 12 24 13 1 0 1 -8 0 -19z m-2810 -12 c-3 -8 -6 -5 -6 6 -1 11 2 17 5 13
3 -3 4 -12 1 -19z m2630 6 c-3 -3 -12 -4 -19 -1 -8 3 -5 6 6 6 11 1 17 -2 13
-5z m2493 -9 c0 -8 -4 -15 -9 -15 -13 0 -22 16 -14 24 11 11 23 6 23 -9z
m-2057 -2 c-40 -2 -107 -2 -150 0 -43 1 -10 3 72 3 83 0 118 -2 78 -3z m-2653
-25 c0 -18 -2 -20 -9 -8 -6 8 -7 18 -5 22 9 14 14 9 14 -14z m1928 15 c-10 -2
-26 -2 -35 0 -10 3 -2 5 17 5 19 0 27 -2 18 -5z m832 -13 c0 -5 -5 -10 -11
-10 -5 0 -7 5 -4 10 3 6 8 10 11 10 2 0 4 -4 4 -10z m1819 -42 c0 -35 -2 -39
-9 -21 -8 19 -3 63 6 63 2 0 4 -19 3 -42z m-4813 -5 c16 -16 15 -18 -22 -34
l-39 -18 45 0 c82 -2 21 -21 -66 -21 l-81 0 -7 -82 c-4 -46 -10 -101 -12 -123
-2 -22 -7 -82 -10 -133 -4 -65 -9 -92 -17 -89 -19 6 -20 177 -2 288 20 126 19
139 -3 139 -15 0 -19 8 -20 40 -2 44 16 54 44 25 9 -8 33 -15 56 -15 23 0 38
3 35 7 -4 3 -20 6 -37 5 -43 -1 -37 16 8 21 85 9 111 7 128 -10z m196 6 c57
-7 106 -15 111 -18 4 -4 1 -16 -7 -27 -13 -17 -29 -19 -133 -22 -75 -2 -113 1
-104 7 11 7 8 12 -15 25 -16 8 -23 15 -16 16 6 0 12 7 12 15 0 18 17 19 152 4z
m5395 -21 c-3 -7 -5 -2 -5 12 0 14 2 19 5 13 2 -7 2 -19 0 -25z m-440 -60 c-3
-8 -6 -5 -6 6 -1 11 2 17 5 13 3 -3 4 -12 1 -19z m-227 -22 c-14 -14 -24 0
-16 21 6 15 8 15 16 3 6 -9 5 -19 0 -24z m-4845 -148 c10 -49 23 -87 33 -95
16 -12 16 -12 0 -13 -26 0 -28 -10 -33 -134 -4 -109 -3 -116 14 -116 26 0 28
12 20 84 -4 33 -5 63 -3 65 2 3 20 -3 39 -12 20 -9 47 -17 60 -17 13 0 46 -5
72 -10 l48 -11 0 -164 c0 -154 -4 -187 -19 -150 -3 9 -19 15 -38 16 -18 1 -25
3 -15 6 38 10 13 23 -45 23 -63 0 -63 0 -39 19 13 10 33 16 45 14 26 -5 98 23
76 30 -33 12 -126 14 -147 4 -14 -6 -23 -19 -23 -33 0 -12 -7 -29 -15 -37 -11
-11 -12 -16 -3 -19 9 -3 8 -12 -5 -31 -21 -33 -35 -35 -34 -4 0 12 -2 41 -3
65 -5 51 -24 60 -103 44 -48 -9 -53 -8 -72 14 -25 29 -45 31 -45 5 0 -11 -4
-22 -9 -26 -5 -3 -13 -31 -17 -63 -5 -31 -10 -47 -12 -35 -2 12 -10 27 -18 33
-10 9 -14 37 -14 110 0 119 4 130 41 130 19 0 29 5 29 15 0 11 11 15 38 15 33
0 150 25 159 34 2 2 6 26 10 55 3 28 10 51 15 51 6 0 7 8 3 18 -19 46 -57 251
-48 265 9 15 42 -65 58 -145z m4762 130 c-3 -8 -6 -5 -6 6 -1 11 2 17 5 13 3
-3 4 -12 1 -19z m133 -2 c8 -2 -16 -4 -55 -5 -38 0 -65 3 -58 7 11 7 77 6 113
-2z m-4674 -111 c26 -60 50 -132 53 -160 l6 -50 115 0 c104 0 115 -2 118 -19
4 -18 -2 -19 -114 -12 -66 4 -122 11 -126 14 -3 4 -9 26 -12 50 -6 46 -22 82
-35 82 -5 0 -12 17 -16 38 -3 20 -15 57 -26 81 -16 37 -27 103 -15 90 2 -2 26
-53 52 -114z m2061 109 c-3 -3 -12 -4 -19 -1 -8 3 -5 6 6 6 11 1 17 -2 13 -5z
m220 -10 c-3 -3 -12 -4 -19 -1 -8 3 -5 6 6 6 11 1 17 -2 13 -5z m60 0 c-3 -3
-12 -4 -19 -1 -8 3 -5 6 6 6 11 1 17 -2 13 -5z m46 -1 c-7 -2 -19 -2 -25 0 -7
3 -2 5 12 5 14 0 19 -2 13 -5z m204 0 c-7 -7 -149 -4 -156 3 -2 2 33 4 79 4
46 0 80 -3 77 -7z m33 -3 c0 -5 -2 -10 -4 -10 -3 0 -8 5 -11 10 -3 6 -1 10 4
10 6 0 11 -4 11 -10z m6798 -2 c-2 -6 -10 -14 -16 -16 -7 -2 -10 2 -6 12 7 18
28 22 22 4z m-12571 -14 c-3 -3 -12 -4 -19 -1 -8 3 -5 6 6 6 11 1 17 -2 13 -5z
m-100 -10 c-3 -3 -12 -4 -19 -1 -8 3 -5 6 6 6 11 1 17 -2 13 -5z m5116 -1 c-7
-2 -19 -2 -25 0 -7 3 -2 5 12 5 14 0 19 -2 13 -5z m250 0 c-7 -2 -21 -2 -30 0
-10 3 -4 5 12 5 17 0 24 -2 18 -5z m-5566 -9 c-3 -3 -12 -4 -19 -1 -8 3 -5 6
6 6 11 1 17 -2 13 -5z m5810 0 c-3 -3 -12 -4 -19 -1 -8 3 -5 6 6 6 11 1 17 -2
13 -5z m211 -1 c-32 -2 -84 -2 -115 0 -32 2 -6 3 57 3 63 0 89 -1 58 -3z
m1962 -15 c0 -18 -2 -20 -9 -8 -6 8 -7 18 -5 22 9 14 14 9 14 -14z m317 16
c-3 -3 -12 -4 -19 -1 -8 3 -5 6 6 6 11 1 17 -2 13 -5z m-209 -21 c-15 -2 -42
-2 -60 0 -18 2 -6 4 27 4 33 0 48 -2 33 -4z m-3388 -15 c0 -7 -4 -30 -9 -50
-11 -47 -1 -49 23 -3 21 38 53 71 61 63 3 -3 -6 -27 -19 -54 -30 -59 -53 -140
-42 -151 7 -7 15 0 51 51 10 13 25 19 49 18 29 -1 35 2 38 21 4 29 43 31 43 2
0 -11 4 -23 10 -27 6 -4 3 -19 -9 -38 -29 -49 -12 -46 25 4 39 55 61 61 52 14
-10 -53 10 -22 27 40 11 40 20 58 34 60 15 3 18 0 12 -21 -3 -14 -9 -32 -12
-41 -4 -11 -1 -16 10 -16 10 0 16 -8 16 -22 l0 -21 23 21 c15 14 36 22 60 22
30 0 39 5 52 30 20 39 51 56 63 34 8 -14 10 -14 21 0 8 9 20 16 27 16 25 0 15
-41 -22 -92 -19 -27 -33 -55 -31 -61 2 -7 9 -2 16 11 13 24 31 30 31 9 0 -23
-44 -57 -75 -56 -17 0 -39 0 -50 -1 -11 0 -53 0 -92 1 -60 1 -73 4 -74 18 -1
14 -2 14 -6 -1 -3 -11 -14 -17 -31 -17 -15 0 -36 0 -47 0 -11 -1 -35 -1 -52
-1 -18 0 -33 4 -33 10 0 7 -6 8 -14 3 -8 -4 -44 -6 -80 -5 -60 3 -66 6 -66 25
l-1 22 -18 -22 c-26 -31 -35 -29 -27 8 l6 31 -29 -31 c-32 -34 -47 -37 -73
-17 -26 19 -22 50 7 66 21 11 27 11 44 -4 18 -17 19 -16 31 21 30 93 81 176
80 131z m767 6 c-3 -3 -12 -4 -19 -1 -8 3 -5 6 6 6 11 1 17 -2 13 -5z m101 -1
c-15 -2 -42 -2 -60 0 -18 2 -6 4 27 4 33 0 48 -2 33 -4z m140 0 c-10 -2 -26
-2 -35 0 -10 3 -2 5 17 5 19 0 27 -2 18 -5z m98 -2 c-5 -8 -56 -3 -56 5 0 2
14 4 31 4 16 0 28 -4 25 -9z m64 0 c0 -5 -11 -8 -25 -7 -33 1 -33 16 0 16 14
0 25 -4 25 -9z m-203 -37 c-3 -3 -12 -4 -19 -1 -8 3 -5 6 6 6 11 1 17 -2 13
-5z m163 -2 c0 -4 -18 -6 -40 -4 -22 2 -40 6 -40 8 0 2 18 4 40 4 22 0 40 -3
40 -8z m117 2 c-3 -3 -12 -4 -19 -1 -8 3 -5 6 6 6 11 1 17 -2 13 -5z m2633
-14 c-6 -11 -13 -20 -16 -20 -2 0 0 9 6 20 6 11 13 20 16 20 2 0 0 -9 -6 -20z
m-602 3 c-10 -2 -26 -2 -35 0 -10 3 -2 5 17 5 19 0 27 -2 18 -5z m122 -7 c8
-2 -9 -4 -37 -5 -29 0 -53 3 -53 7 0 7 52 6 90 -2z m-4549 -16 c31 0 49 -5 52
-14 8 -21 -2 -26 -51 -26 -45 0 -71 18 -72 50 0 11 3 11 12 2 7 -7 33 -12 59
-12z m-462 4 c32 -7 39 -25 21 -54 -8 -13 -13 -13 -30 -2 -11 7 -25 10 -30 7
-6 -4 -11 -1 -11 4 -1 6 -2 17 -3 24 -5 28 3 31 53 21z m641 -14 c0 -9 -36
-20 -67 -20 -27 0 -31 27 -5 32 24 5 72 -3 72 -12z m1817 13 c-20 -2 -52 -2
-70 0 -17 2 0 4 38 4 39 0 53 -2 32 -4z m181 -10 c-10 -2 -26 -2 -35 0 -10 3
-2 5 17 5 19 0 27 -2 18 -5z m235 0 c-35 -2 -91 -2 -125 0 -35 2 -7 3 62 3 69
0 97 -1 63 -3z m107 -3 c0 -5 -2 -10 -4 -10 -3 0 -8 5 -11 10 -3 6 -1 10 4 10
6 0 11 -4 11 -10z m1857 -22 c-3 -7 -5 -2 -5 12 0 14 2 19 5 13 2 -7 2 -19 0
-25z m63 12 c0 -18 7 -20 60 -20 39 0 59 4 58 11 -2 6 3 14 10 16 6 3 12 -2
12 -10 0 -8 -7 -18 -16 -21 -20 -8 -93 -8 -132 0 -27 6 -30 9 -21 25 13 25 29
24 29 -1z m-4690 6 c0 -2 3 -11 6 -20 5 -12 0 -16 -20 -16 -24 0 -35 18 -19
33 7 8 33 10 33 3z m100 -16 c0 -11 -4 -20 -10 -20 -5 0 -10 9 -10 20 0 11 5
20 10 20 6 0 10 -9 10 -20z m4912 -63 c32 -24 106 -25 145 -1 15 10 46 34 68
53 l40 36 -40 -43 c-50 -54 -84 -73 -144 -77 -43 -3 -49 0 -88 41 -24 24 -43
52 -43 62 0 9 8 2 19 -18 10 -19 29 -43 43 -53z m-2769 56 c-7 -2 -19 -2 -25
0 -7 3 -2 5 12 5 14 0 19 -2 13 -5z m527 -10 c0 -5 -53 -7 -117 -5 -211 4
-231 8 -55 10 94 1 172 -1 172 -5z m5917 -15 c-3 -8 -6 -5 -6 6 -1 11 2 17 5
13 3 -3 4 -12 1 -19z m-6450 -14 c-3 -3 -12 -4 -19 -1 -8 3 -5 6 6 6 11 1 17
-2 13 -5z m181 -1 c-15 -2 -42 -2 -60 0 -18 2 -6 4 27 4 33 0 48 -2 33 -4z
m259 -9 c-3 -3 -12 -4 -19 -1 -8 3 -5 6 6 6 11 1 17 -2 13 -5z m-280 -30 c-3
-3 -12 -4 -19 -1 -8 3 -5 6 6 6 11 1 17 -2 13 -5z m126 -1 c-13 -2 -35 -2 -50
0 -16 2 -5 4 22 4 28 0 40 -2 28 -4z m143 0 c-10 -10 -106 -11 -112 -1 -3 4
23 8 57 8 34 0 59 -3 55 -7z m111 -9 c-3 -3 -12 -4 -19 -1 -8 3 -5 6 6 6 11 1
17 -2 13 -5z m-644 -21 c-23 -2 -64 -2 -90 0 -26 2 -7 3 42 3 50 0 71 -1 48
-3z m80 0 c-7 -2 -19 -2 -25 0 -7 3 -2 5 12 5 14 0 19 -2 13 -5z m160 -10 c-7
-2 -21 -2 -30 0 -10 3 -4 5 12 5 17 0 24 -2 18 -5z m104 1 c-3 -3 -12 -4 -19
-1 -8 3 -5 6 6 6 11 1 17 -2 13 -5z m60 0 c-3 -3 -12 -4 -19 -1 -8 3 -5 6 6 6
11 1 17 -2 13 -5z m-284 -31 c-13 -2 -35 -2 -50 0 -16 2 -5 4 22 4 28 0 40 -2
28 -4z m-1196 -9 c-3 -3 -12 -4 -19 -1 -8 3 -5 6 6 6 11 1 17 -2 13 -5z m1521
-1 c-21 -2 -55 -2 -75 0 -21 2 -4 4 37 4 41 0 58 -2 38 -4z m112 -2 c0 -5 -9
-7 -20 -4 -11 3 -20 7 -20 9 0 2 9 4 20 4 11 0 20 -4 20 -9z m85 0 c-6 -10
-51 -8 -62 2 -3 4 10 7 31 7 20 0 35 -4 31 -9z m1832 -38 c-3 -10 -5 -2 -5 17
0 19 2 27 5 18 2 -10 2 -26 0 -35z m-2749 20 c-16 -2 -40 -2 -55 0 -16 2 -3 4
27 4 30 0 43 -2 28 -4z m385 -10 c-7 -2 -19 -2 -25 0 -7 3 -2 5 12 5 14 0 19
-2 13 -5z m114 0 c-20 -2 -52 -2 -70 0 -17 2 0 4 38 4 39 0 53 -2 32 -4z m180
-9 c-3 -3 -12 -4 -19 -1 -8 3 -5 6 6 6 11 1 17 -2 13 -5z m170 0 c-3 -3 -12
-4 -19 -1 -8 3 -5 6 6 6 11 1 17 -2 13 -5z m-1124 -11 c-13 -2 -33 -2 -45 0
-13 2 -3 4 22 4 25 0 35 -2 23 -4z m1034 -29 c-3 -3 -12 -4 -19 -1 -8 3 -5 6
6 6 11 1 17 -2 13 -5z m111 -1 c-10 -2 -26 -2 -35 0 -10 3 -2 5 17 5 19 0 27
-2 18 -5z m49 1 c-3 -3 -12 -4 -19 -1 -8 3 -5 6 6 6 11 1 17 -2 13 -5z m-690
-20 c-3 -3 -12 -4 -19 -1 -8 3 -5 6 6 6 11 1 17 -2 13 -5z m171 -1 c-16 -2
-40 -2 -55 0 -16 2 -3 4 27 4 30 0 43 -2 28 -4z m199 -9 c-3 -3 -12 -4 -19 -1
-8 3 -5 6 6 6 11 1 17 -2 13 -5z m-884 -11 c-7 -2 -21 -2 -30 0 -10 3 -4 5 12
5 17 0 24 -2 18 -5z m1204 1 c-3 -3 -12 -4 -19 -1 -8 3 -5 6 6 6 11 1 17 -2
13 -5z m-964 -11 c-7 -2 -19 -2 -25 0 -7 3 -2 5 12 5 14 0 19 -2 13 -5z m-576
-19 c-3 -3 -12 -4 -19 -1 -8 3 -5 6 6 6 11 1 17 -2 13 -5z m1396 -1 c-29 -2
-78 -2 -110 0 -32 2 -8 3 52 3 61 0 87 -1 58 -3z m107 -3 c0 -5 -5 -10 -11
-10 -5 0 -7 5 -4 10 3 6 8 10 11 10 2 0 4 -4 4 -10z m-152 -37 c-10 -2 -28 -2
-40 0 -13 2 -5 4 17 4 22 1 32 -1 23 -4z m-235 -30 c-7 -2 -21 -2 -30 0 -10 3
-4 5 12 5 17 0 24 -2 18 -5z m90 0 c-7 -2 -21 -2 -30 0 -10 3 -4 5 12 5 17 0
24 -2 18 -5z m2804 -15 c-3 -8 -6 -5 -6 6 -1 11 2 17 5 13 3 -3 4 -12 1 -19z
m-2529 -35 c-16 -2 -40 -2 -55 0 -16 2 -3 4 27 4 30 0 43 -2 28 -4z m59 1 c-3
-3 -12 -4 -19 -1 -8 3 -5 6 6 6 11 1 17 -2 13 -5z m-214 -31 c-23 -2 -64 -2
-90 0 -26 2 -7 3 42 3 50 0 71 -1 48 -3z m-2756 -19 c-3 -3 -12 -4 -19 -1 -8
3 -5 6 6 6 11 1 17 -2 13 -5z m2170 0 c-3 -3 -12 -4 -19 -1 -8 3 -5 6 6 6 11
1 17 -2 13 -5z m46 -1 c-7 -2 -19 -2 -25 0 -7 3 -2 5 12 5 14 0 19 -2 13 -5z
m80 0 c-13 -2 -33 -2 -45 0 -13 2 -3 4 22 4 25 0 35 -2 23 -4z m195 -10 c-21
-2 -55 -2 -75 0 -21 2 -4 4 37 4 41 0 58 -2 38 -4z m69 1 c-3 -3 -12 -4 -19
-1 -8 3 -5 6 6 6 11 1 17 -2 13 -5z m206 -11 c-7 -2 -19 -2 -25 0 -7 3 -2 5
12 5 14 0 19 -2 13 -5z m90 0 c-7 -2 -21 -2 -30 0 -10 3 -4 5 12 5 17 0 24 -2
18 -5z m-816 -9 c-3 -3 -12 -4 -19 -1 -8 3 -5 6 6 6 11 1 17 -2 13 -5z m430
-20 c-3 -3 -12 -4 -19 -1 -8 3 -5 6 6 6 11 1 17 -2 13 -5z m121 -1 c-10 -2
-26 -2 -35 0 -10 3 -2 5 17 5 19 0 27 -2 18 -5z m-2226 -43 c-2 -16 -8 -30
-13 -30 -10 0 -12 21 -3 44 10 27 21 18 16 -14z m2015 14 c-3 -3 -12 -4 -19
-1 -8 3 -5 6 6 6 11 1 17 -2 13 -5z m46 -1 c-7 -2 -19 -2 -25 0 -7 3 -2 5 12
5 14 0 19 -2 13 -5z m394 -19 c-3 -3 -12 -4 -19 -1 -8 3 -5 6 6 6 11 1 17 -2
13 -5z m86 -1 c-13 -2 -35 -2 -50 0 -16 2 -5 4 22 4 28 0 40 -2 28 -4z m-326
-29 c-3 -3 -12 -4 -19 -1 -8 3 -5 6 6 6 11 1 17 -2 13 -5z m70 0 c-3 -3 -12
-4 -19 -1 -8 3 -5 6 6 6 11 1 17 -2 13 -5z m156 -41 c-7 -2 -21 -2 -30 0 -10
3 -4 5 12 5 17 0 24 -2 18 -5z m37 -3 c0 -5 -2 -10 -4 -10 -3 0 -8 5 -11 10
-3 6 -1 10 4 10 6 0 11 -4 11 -10z m-807 -7 c-7 -2 -19 -2 -25 0 -7 3 -2 5 12
5 14 0 19 -2 13 -5z m920 0 c-13 -2 -33 -2 -45 0 -13 2 -3 4 22 4 25 0 35 -2
23 -4z m-470 -20 c-7 -2 -19 -2 -25 0 -7 3 -2 5 12 5 14 0 19 -2 13 -5z m115
0 c-10 -2 -28 -2 -40 0 -13 2 -5 4 17 4 22 1 32 -1 23 -4z m-221 -29 c-3 -3
-12 -4 -19 -1 -8 3 -5 6 6 6 11 1 17 -2 13 -5z m80 0 c-3 -3 -12 -4 -19 -1 -8
3 -5 6 6 6 11 1 17 -2 13 -5z m2298 -3 c3 -5 1 -12 -5 -16 -5 -3 -10 1 -10 9
0 18 6 21 15 7z m-1882 -18 c-7 -2 -21 -2 -30 0 -10 3 -4 5 12 5 17 0 24 -2
18 -5z m-3987 -14 c-26 -6 -43 -6 -50 1 -7 7 6 10 40 9 l49 -1 -39 -9z m-81
-9 c-11 -5 -112 -20 -225 -35 -113 -14 -217 -27 -231 -30 -15 -2 -30 -1 -33 3
-9 9 98 31 155 31 25 1 59 5 75 11 30 10 171 27 239 28 31 0 35 -1 20 -8z
m3872 -6 c-3 -3 -12 -4 -19 -1 -8 3 -5 6 6 6 11 1 17 -2 13 -5z m-389 -21
c-15 -2 -42 -2 -60 0 -18 2 -6 4 27 4 33 0 48 -2 33 -4z m-525 -50 c-7 -2 -21
-2 -30 0 -10 3 -4 5 12 5 17 0 24 -2 18 -5z m844 0 c-20 -2 -52 -2 -70 0 -17
2 0 4 38 4 39 0 53 -2 32 -4z m-494 -50 c-7 -2 -21 -2 -30 0 -10 3 -4 5 12 5
17 0 24 -2 18 -5z m515 -30 c-10 -2 -26 -2 -35 0 -10 3 -2 5 17 5 19 0 27 -2
18 -5z m85 0 c-7 -2 -19 -2 -25 0 -7 3 -2 5 12 5 14 0 19 -2 13 -5z m-400 -20
c-7 -2 -21 -2 -30 0 -10 3 -4 5 12 5 17 0 24 -2 18 -5z m385 -20 c-10 -2 -26
-2 -35 0 -10 3 -2 5 17 5 19 0 27 -2 18 -5z m-101 -29 c-3 -3 -12 -4 -19 -1
-8 3 -5 6 6 6 11 1 17 -2 13 -5z m-300 -20 c-3 -3 -12 -4 -19 -1 -8 3 -5 6 6
6 11 1 17 -2 13 -5z m666 -1 c-7 -2 -19 -2 -25 0 -7 3 -2 5 12 5 14 0 19 -2
13 -5z m-160 -30 c-7 -2 -21 -2 -30 0 -10 3 -4 5 12 5 17 0 24 -2 18 -5z
m-980 -20 c-7 -2 -19 -2 -25 0 -7 3 -2 5 12 5 14 0 19 -2 13 -5z m654 1 c-3
-3 -12 -4 -19 -1 -8 3 -5 6 6 6 11 1 17 -2 13 -5z m136 -11 c-7 -2 -21 -2 -30
0 -10 3 -4 5 12 5 17 0 24 -2 18 -5z m-250 -20 c-7 -2 -21 -2 -30 0 -10 3 -4
5 12 5 17 0 24 -2 18 -5z m-340 -20 c-13 -2 -33 -2 -45 0 -13 2 -3 4 22 4 25
0 35 -2 23 -4z m670 0 c-7 -2 -21 -2 -30 0 -10 3 -4 5 12 5 17 0 24 -2 18 -5z
m-145 -30 c-10 -2 -28 -2 -40 0 -13 2 -5 4 17 4 22 1 32 -1 23 -4z m205 -50
c-7 -2 -21 -2 -30 0 -10 3 -4 5 12 5 17 0 24 -2 18 -5z m44 1 c-3 -3 -12 -4
-19 -1 -8 3 -5 6 6 6 11 1 17 -2 13 -5z m-330 -20 c-3 -3 -12 -4 -19 -1 -8 3
-5 6 6 6 11 1 17 -2 13 -5z m-104 -31 c-7 -2 -21 -2 -30 0 -10 3 -4 5 12 5 17
0 24 -2 18 -5z m-285 -20 c-10 -2 -26 -2 -35 0 -10 3 -2 5 17 5 19 0 27 -2 18
-5z m349 -19 c-3 -3 -12 -4 -19 -1 -8 3 -5 6 6 6 11 1 17 -2 13 -5z m120 -10
c-3 -3 -12 -4 -19 -1 -8 3 -5 6 6 6 11 1 17 -2 13 -5z m-5844 -21 c-7 -2 -21
-2 -30 0 -10 3 -4 5 12 5 17 0 24 -2 18 -5z m6180 0 c-7 -2 -21 -2 -30 0 -10
3 -4 5 12 5 17 0 24 -2 18 -5z m-395 -50 c-10 -2 -26 -2 -35 0 -10 3 -2 5 17
5 19 0 27 -2 18 -5z m-371 -49 c-3 -3 -12 -4 -19 -1 -8 3 -5 6 6 6 11 1 17 -2
13 -5z m-1837 -99 c0 -9 -6 -12 -15 -9 -8 4 -15 10 -15 15 0 5 7 9 15 9 8 0
15 -7 15 -15z m-1550 -150 c0 -20 -5 -25 -25 -25 -28 0 -29 3 -15 31 15 28 40
24 40 -6z m-613 -75 c-16 -62 -27 -86 -39 -88 -23 -4 -23 11 -1 99 13 55 20
69 37 71 12 2 22 3 23 3 1 -1 -8 -39 -20 -85z m2653 10 c12 -8 11 -10 -7 -10
-13 0 -23 5 -23 10 0 13 11 13 30 0z m-2865 -59 c-9 -19 -23 -31 -35 -31 -33
0 -23 23 20 52 32 21 35 17 15 -21z m-335 20 c0 -5 -9 -19 -20 -32 -17 -21
-21 -22 -30 -9 -20 30 -12 50 20 50 17 0 30 -4 30 -9z m-210 -36 c0 -20 -33
-36 -51 -24 -12 8 -11 12 5 24 25 19 46 19 46 0z m-303 -41 c-3 -3 -12 -4 -19
-1 -8 3 -5 6 6 6 11 1 17 -2 13 -5z m5410 -40 c-3 -3 -12 -4 -19 -1 -8 3 -5 6
6 6 11 1 17 -2 13 -5z"/>
<path d="M451 7457 c-20 -25 -35 -119 -22 -149 14 -38 29 -35 48 9 26 63 5
177 -26 140z"/>
<path d="M575 7451 c-7 -22 9 -99 24 -114 18 -18 41 1 41 33 0 69 -49 130 -65
81z"/>
<path d="M13470 7375 c0 -14 5 -25 10 -25 6 0 10 11 10 25 0 14 -4 25 -10 25
-5 0 -10 -11 -10 -25z"/>
<path d="M10280 7175 c0 -42 3 -55 15 -55 10 0 15 10 15 30 0 17 5 30 10 30 6
0 10 -13 10 -30 0 -16 5 -30 10 -30 6 0 10 18 10 40 0 33 -3 40 -20 40 -11 0
-20 7 -20 15 0 8 -7 15 -15 15 -12 0 -15 -13 -15 -55z"/>
<path d="M9904 7206 c-8 -21 13 -46 37 -46 11 0 19 -5 19 -11 0 -7 -11 -9 -31
-5 -22 4 -29 2 -26 -7 2 -6 19 -12 38 -12 27 0 35 4 37 21 2 16 -4 24 -27 32
-40 14 -40 26 0 18 22 -4 29 -2 27 7 -7 19 -67 21 -74 3z"/>
<path d="M9995 7181 c-10 -33 3 -61 30 -61 13 0 27 5 30 10 3 6 -3 10 -14 10
-12 0 -21 5 -21 10 0 6 9 10 21 10 31 0 20 34 -13 38 -19 2 -28 -2 -33 -17z
m42 -7 c-3 -3 -12 -4 -19 -1 -8 3 -5 6 6 6 11 1 17 -2 13 -5z"/>
<path d="M10078 7193 c-2 -5 -3 -21 -3 -38 0 -29 2 -30 48 -33 44 -2 47 -1 47
23 0 14 7 28 15 31 24 9 17 24 -10 24 -22 0 -25 -4 -26 -37 -1 -39 -3 -38 -13
10 -5 20 -12 27 -31 27 -13 0 -25 -3 -27 -7z m32 -43 c0 -5 -5 -10 -11 -10 -5
0 -7 5 -4 10 3 6 8 10 11 10 2 0 4 -4 4 -10z"/>
<path d="M10205 7181 c-11 -36 3 -63 33 -59 14 2 27 9 30 16 2 8 -5 11 -20 10
-15 -2 -23 2 -23 12 0 10 8 14 23 12 15 -1 22 2 20 10 -3 7 -16 14 -30 16 -19
2 -28 -2 -33 -17z"/>
<path d="M12170 7170 l0 -50 35 0 c19 0 35 5 35 10 0 6 -11 10 -25 10 -22 0
-25 4 -25 40 0 22 -4 40 -10 40 -5 0 -10 -22 -10 -50z"/>
<path d="M12460 7170 c0 -38 4 -50 15 -50 11 0 15 12 15 50 0 38 -4 50 -15 50
-11 0 -15 -12 -15 -50z"/>
<path d="M12262 7188 c-24 -24 -7 -68 27 -68 8 0 23 7 33 17 11 10 18 12 18 4
0 -6 10 -16 23 -21 l22 -9 -23 0 c-30 -1 -18 -21 13 -21 27 0 35 17 35 71 0
37 -2 39 -30 39 -16 0 -33 -7 -38 -16 -8 -14 -10 -14 -21 0 -16 19 -42 21 -59
4z m38 -28 c0 -21 -15 -27 -25 -10 -7 12 2 30 16 30 5 0 9 -9 9 -20z m85 0 c0
-7 -6 -15 -12 -17 -8 -3 -13 4 -13 17 0 13 5 20 13 18 6 -3 12 -11 12 -18z"/>
<path d="M12500 7160 c0 -29 4 -40 15 -40 10 0 15 10 15 30 0 17 5 30 10 30 6
0 10 -13 10 -30 0 -16 5 -30 10 -30 6 0 10 18 10 40 0 39 -1 40 -35 40 -34 0
-35 -1 -35 -40z"/>
<path d="M1640 7205 c0 -36 0 -36 38 -33 34 3 37 6 37 33 0 27 -3 30 -37 33
-38 3 -38 3 -38 -33z"/>
<path d="M2007 7178 c-9 -34 3 -68 24 -68 24 0 41 33 33 65 -8 33 -49 35 -57
3z"/>
<path d="M497 7163 c-4 -3 -7 -17 -7 -30 0 -35 34 -26 38 10 3 26 -14 37 -31
20z"/>
<path d="M490 7044 c0 -33 33 -30 38 4 3 17 -2 22 -17 22 -16 0 -21 -6 -21
-26z"/>
<path d="M1874 7176 c-9 -38 4 -66 31 -66 27 0 40 28 31 66 -5 17 -13 24 -31
24 -18 0 -26 -7 -31 -24z"/>
<path d="M11070 7190 c0 -5 9 -10 20 -10 11 0 20 5 20 10 0 6 -9 10 -20 10
-11 0 -20 -4 -20 -10z"/>
<path d="M11170 7180 c0 -5 7 -10 16 -10 8 0 12 5 9 10 -3 6 -10 10 -16 10 -5
0 -9 -4 -9 -10z"/>
<path d="M11246 7175 c-6 -17 2 -45 14 -45 12 0 20 28 14 45 -4 8 -10 15 -14
15 -4 0 -10 -7 -14 -15z"/>
<path d="M11495 7180 c-3 -5 1 -10 9 -10 9 0 16 5 16 10 0 6 -4 10 -9 10 -6 0
-13 -4 -16 -10z"/>
<path d="M6827 6429 c4 -39 2 -63 -5 -68 -7 -4 -8 -12 -2 -21 7 -10 10 -11 10
-2 0 19 20 14 21 -5 0 -11 4 -8 11 10 7 19 7 32 -1 40 -5 7 -13 32 -17 55 -10
66 -23 59 -17 -9z"/>
<path d="M6711 6454 c0 -11 3 -14 6 -6 3 7 2 16 -1 19 -3 4 -6 -2 -5 -13z"/>
<path d="M6790 6438 c0 -27 4 -38 15 -38 19 0 19 17 0 50 l-14 25 -1 -37z"/>
<path d="M6720 6387 c0 -42 23 -79 33 -52 3 7 -3 31 -13 52 l-19 38 -1 -38z"/>
<path d="M6902 6313 c2 -10 13 -19 26 -21 17 -3 22 2 22 17 0 16 -6 21 -26 21
-19 0 -25 -5 -22 -17z"/>
<path d="M6816 6303 c-13 -13 -5 -21 25 -27 18 -3 38 -14 45 -24 7 -9 16 -14
19 -10 11 11 -38 63 -61 65 -12 1 -24 -1 -28 -4z"/>
<path d="M5080 6184 c0 -8 5 -12 10 -9 6 3 10 10 10 16 0 5 -4 9 -10 9 -5 0
-10 -7 -10 -16z"/>
<path d="M8787 6164 c-4 -4 -7 -14 -7 -23 0 -11 3 -12 11 -4 6 6 10 16 7 23
-2 6 -7 8 -11 4z"/>
<path d="M3680 5860 c0 -5 14 -10 30 -10 17 0 30 5 30 10 0 6 -13 10 -30 10
-16 0 -30 -4 -30 -10z"/>
<path d="M3605 5850 l-20 -9 20 0 c11 0 27 4 35 9 13 9 13 10 0 9 -8 0 -24 -4
-35 -9z"/>
<path d="M3697 5304 c-8 -8 1 -24 14 -24 5 0 9 7 9 15 0 15 -12 20 -23 9z"/>
<path d="M5195 5529 c-4 -6 -5 -12 -2 -15 2 -3 7 2 10 11 7 17 1 20 -8 4z"/>
<path d="M5133 5515 c-8 -22 6 -33 17 -15 13 20 12 30 0 30 -6 0 -13 -7 -17
-15z"/>
<path d="M5456 5514 c-9 -23 -7 -36 3 -30 12 8 21 46 11 46 -4 0 -11 -7 -14
-16z"/>
<path d="M5556 5511 c-11 -12 -13 -21 -7 -25 5 -4 15 3 21 15 15 28 7 34 -14
10z"/>
<path d="M4920 5505 c0 -8 6 -15 14 -15 22 0 28 17 10 24 -22 9 -24 8 -24 -9z"/>
<path d="M12623 4376 c-13 -7 -20 -16 -16 -19 10 -11 63 -8 63 3 0 6 8 10 18
11 14 0 14 2 -3 9 -26 11 -35 11 -62 -4z"/>
<path d="M12860 4380 c8 -5 22 -9 30 -9 10 0 8 3 -5 9 -27 12 -43 12 -25 0z"/>
<path d="M12368 4343 c6 -2 18 -2 25 0 6 3 1 5 -13 5 -14 0 -19 -2 -12 -5z"/>
<path d="M13143 4343 c9 -2 25 -2 35 0 9 3 1 5 -18 5 -19 0 -27 -2 -17 -5z"/>
<path d="M12730 4320 c-8 -5 -25 -10 -37 -10 -13 0 -23 -5 -23 -10 0 -7 14 -8
38 -4 40 8 78 9 101 3 8 -2 17 4 19 14 3 14 -4 17 -40 17 -24 0 -50 -5 -58
-10z"/>
<path d="M13473 4243 c9 -2 25 -2 35 0 9 3 1 5 -18 5 -19 0 -27 -2 -17 -5z"/>
<path d="M13500 4220 c0 -5 7 -7 15 -4 8 4 15 8 15 10 0 2 -7 4 -15 4 -8 0
-15 -4 -15 -10z"/>
<path d="M930 3666 c0 -16 41 -29 64 -20 23 9 20 21 -6 28 -37 10 -58 7 -58
-8z"/>
<path d="M1584 3647 c-3 -8 -3 -56 -2 -108 3 -86 5 -94 23 -94 16 0 21 8 23
43 2 23 8 42 13 42 5 0 9 -18 7 -40 -2 -44 4 -55 26 -47 21 8 20 182 -1 203
-18 18 -82 19 -89 1z m66 -52 c0 -14 -4 -25 -10 -25 -5 0 -10 11 -10 25 0 14
5 25 10 25 6 0 10 -11 10 -25z"/>
<path d="M1716 3641 c-14 -15 -16 -35 -14 -102 l3 -83 34 -10 c30 -9 36 -7 53
14 13 16 18 35 16 64 -3 36 -6 41 -31 44 -22 3 -27 -1 -27 -17 0 -12 5 -21 11
-21 14 0 7 -42 -8 -48 -10 -3 -13 15 -13 67 0 56 3 71 15 71 9 0 15 -9 15 -21
0 -14 5 -19 17 -17 38 7 11 78 -31 78 -13 0 -31 -8 -40 -19z"/>
<path d="M1832 3648 c-20 -20 -15 -58 8 -58 11 0 20 7 20 15 0 8 5 15 10 15 6
0 10 -9 10 -20 0 -11 -7 -20 -15 -20 -8 0 -15 -9 -15 -19 0 -10 7 -21 15 -25
16 -6 21 -41 6 -50 -5 -3 -11 3 -14 14 -7 29 -37 26 -37 -4 0 -43 10 -56 46
-56 45 0 53 19 51 119 -3 86 -10 101 -52 101 -12 0 -26 -5 -33 -12z"/>
<path d="M1946 3638 c-22 -32 -20 -58 4 -58 13 0 20 7 20 20 0 11 7 20 15 20
23 0 18 -28 -15 -74 -17 -23 -34 -55 -39 -72 l-8 -30 56 1 c45 0 56 3 59 18 3
14 -4 17 -33 17 -37 0 -37 0 -21 23 61 83 69 112 38 140 -26 23 -58 21 -76 -5z"/>
<path d="M2067 3642 c-13 -14 -17 -38 -17 -93 0 -84 5 -95 42 -104 19 -5 32
-1 47 14 17 17 21 33 21 89 0 76 -17 112 -54 112 -13 0 -30 -8 -39 -18z m51
-89 c-2 -42 -8 -68 -15 -71 -10 -3 -13 15 -13 67 0 57 3 71 15 71 13 0 15 -12
13 -67z"/>
<path d="M2170 3555 l0 -105 45 0 c33 0 45 4 45 15 0 9 -9 15 -25 15 -21 0
-25 5 -25 30 0 25 4 30 25 30 16 0 25 6 25 15 0 9 -9 15 -25 15 -20 0 -25 5
-25 25 0 20 5 25 25 25 18 0 25 5 25 20 0 17 -7 20 -45 20 l-45 0 0 -105z"/>
<path d="M2270 3650 c0 -5 8 -28 17 -51 15 -40 15 -45 0 -90 -21 -58 -21 -59
2 -59 12 0 22 10 26 28 l8 27 10 -27 c7 -17 18 -28 29 -28 22 0 22 4 2 62 -14
42 -14 49 0 83 9 21 16 44 16 51 0 25 -30 15 -42 -13 l-11 -28 -10 28 c-10 25
-47 39 -47 17z"/>
<path d="M2397 3653 c-16 -15 -6 -33 18 -33 14 0 25 -4 25 -10 0 -5 -11 -35
-25 -66 -38 -85 -35 -94 25 -94 38 0 50 4 50 15 0 10 -10 15 -30 15 l-30 0 15
35 c8 19 22 51 30 70 26 62 21 75 -28 75 -24 0 -47 -3 -50 -7z"/>
<path d="M1258 3643 c7 -3 16 -2 19 1 4 3 -2 6 -13 5 -11 0 -14 -3 -6 -6z"/>
<path d="M850 3631 c0 -5 7 -11 14 -14 10 -4 13 -1 9 9 -6 15 -23 19 -23 5z"/>
<path d="M12710 3595 c0 -8 5 -15 10 -15 6 0 10 7 10 15 0 8 -4 15 -10 15 -5
0 -10 -7 -10 -15z"/>
<path d="M12740 3595 c0 -8 5 -15 10 -15 6 0 10 7 10 15 0 8 -4 15 -10 15 -5
0 -10 -7 -10 -15z"/>
<path d="M13485 3580 c-2 -3 -36 -7 -77 -9 -48 -2 -76 -7 -81 -16 -7 -13 -21
-13 -89 1 -17 3 -28 1 -28 -5 0 -6 -7 -11 -15 -11 -8 0 -15 -8 -15 -17 0 -12
-3 -14 -8 -6 -8 13 -78 18 -194 15 -64 -2 -78 -5 -78 -18 0 -11 -5 -14 -17
-10 -10 4 -14 4 -10 0 4 -4 2 -13 -4 -21 -9 -10 -3 -13 34 -13 27 0 49 -6 57
-15 7 -8 21 -15 31 -15 11 0 19 -4 19 -9 0 -12 -25 -21 -57 -21 -30 0 -53 -21
-53 -49 0 -16 -6 -21 -27 -21 -30 0 -54 12 -55 26 -4 45 -25 59 -32 22 -3 -13
-7 -32 -9 -43 -4 -18 -5 -18 -6 3 0 12 -7 22 -15 22 -8 0 -22 3 -31 6 -11 5
-18 0 -22 -15 -4 -18 -13 -21 -52 -21 -25 1 -65 5 -88 9 -34 7 -43 5 -43 -5 0
-8 7 -14 15 -14 8 0 15 -4 15 -10 0 -5 7 -10 15 -10 8 0 15 -9 15 -20 0 -18 7
-20 59 -20 38 0 61 4 64 13 4 8 6 8 6 1 1 -9 117 -12 436 -13 l435 -2 0 155 0
154 -46 4 c-25 2 -47 1 -49 -2z"/>
<path d="M12560 3530 c0 -5 5 -10 11 -10 5 0 7 5 4 10 -3 6 -8 10 -11 10 -2 0
-4 -4 -4 -10z"/>
<path d="M12700 3505 c0 -8 7 -15 15 -15 8 0 15 7 15 15 0 8 -7 15 -15 15 -8
0 -15 -7 -15 -15z"/>
<path d="M12781 3491 c-10 -6 -10 -10 -1 -16 13 -8 24 -1 19 14 -3 6 -10 7
-18 2z"/>
<path d="M12630 3479 c0 -5 9 -9 20 -9 11 0 20 2 20 4 0 2 -9 6 -20 9 -11 3
-20 1 -20 -4z"/>
<path d="M12731 3454 c0 -11 3 -14 6 -6 3 7 2 16 -1 19 -3 4 -6 -2 -5 -13z"/>
<path d="M1190 3442 c0 -18 -53 -33 -95 -27 -30 5 -46 3 -56 -8 -8 -8 -23 -14
-34 -14 -80 2 -103 -3 -108 -24 -4 -16 -11 -19 -26 -14 -17 5 -21 2 -21 -15 0
-19 4 -21 25 -16 18 5 25 2 25 -9 0 -25 27 -17 34 10 5 20 13 25 36 25 17 0
30 -5 30 -11 0 -11 80 -7 113 6 12 5 17 2 17 -8 0 -14 5 -14 46 0 43 15 47 14
56 -1 6 -11 17 -14 36 -10 53 11 55 13 42 29 -11 13 -8 15 19 15 17 0 31 5 31
11 0 6 -14 9 -32 7 -28 -3 -33 0 -31 17 1 13 -7 24 -25 33 -30 14 -82 16 -82
4z m60 -11 c0 -5 -9 -7 -20 -4 -11 3 -20 7 -20 9 0 2 9 4 20 4 11 0 20 -4 20
-9z"/>
<path d="M1307 3429 c4 -15 14 -19 49 -19 32 0 44 4 44 14 0 8 12 16 28 19 15
2 -7 4 -49 5 -71 1 -76 0 -72 -19z"/>
<path d="M12878 3443 c7 -3 16 -2 19 1 4 3 -2 6 -13 5 -11 0 -14 -3 -6 -6z"/>
<path d="M745 3400 c-4 -6 5 -10 19 -10 14 0 26 5 26 10 0 6 -9 10 -19 10 -11
0 -23 -4 -26 -10z"/>
<path d="M1475 3360 c-3 -5 1 -10 9 -10 9 0 16 5 16 10 0 6 -4 10 -9 10 -6 0
-13 -4 -16 -10z"/>
<path d="M691 3353 c-1 -8 -15 -13 -37 -13 -19 0 -33 -4 -29 -9 3 -5 1 -12 -5
-16 -5 -3 -10 -15 -10 -26 0 -15 7 -19 34 -19 19 0 36 5 38 11 2 7 12 7 31 0
16 -6 42 -11 58 -11 26 0 29 4 29 30 0 35 -29 55 -71 46 -17 -3 -29 -1 -33 7
-3 9 -5 9 -5 0z"/>
<path d="M1418 3353 c7 -3 16 -2 19 1 4 3 -2 6 -13 5 -11 0 -14 -3 -6 -6z"/>
<path d="M560 3315 c0 -8 7 -15 15 -15 8 0 15 7 15 15 0 8 -7 15 -15 15 -8 0
-15 -7 -15 -15z"/>
<path d="M848 3293 c7 -3 16 -2 19 1 4 3 -2 6 -13 5 -11 0 -14 -3 -6 -6z"/>
<path d="M12495 3280 c-3 -5 1 -10 10 -10 9 0 13 5 10 10 -3 6 -8 10 -10 10
-2 0 -7 -4 -10 -10z"/>
<path d="M7820 2715 c-30 -31 -32 -35 -13 -35 18 0 103 53 103 65 0 3 -13 5
-28 5 -19 0 -39 -11 -62 -35z"/>
<path d="M8290 2725 c0 -22 4 -25 35 -25 31 0 35 3 35 25 0 22 -4 25 -35 25
-31 0 -35 -3 -35 -25z"/>
<path d="M8990 2570 l0 -180 35 0 35 0 0 180 0 180 -35 0 -35 0 0 -180z"/>
<path d="M3990 2565 l0 -175 35 0 35 0 0 175 0 175 -35 0 -35 0 0 -175z"/>
<path d="M7290 2565 l0 -175 30 0 30 0 1 138 1 137 44 -138 c43 -133 46 -138
71 -135 24 3 29 13 67 136 l41 132 3 -135 3 -135 29 0 30 0 0 175 0 175 -48 0
-48 0 -33 -112 c-18 -62 -36 -119 -40 -126 -4 -6 -24 44 -45 113 l-39 125 -48
0 -49 0 0 -175z"/>
<path d="M4729 2690 c-7 -19 -18 -30 -30 -30 -14 0 -19 -7 -19 -25 0 -18 5
-25 20 -25 19 0 20 -7 20 -94 0 -111 10 -129 69 -124 28 2 37 8 39 25 2 16 -3
22 -20 25 -22 3 -23 8 -26 86 -3 82 -3 82 23 82 20 0 25 5 25 25 0 20 -5 25
-25 25 -21 0 -25 5 -25 30 0 24 -4 30 -21 30 -13 0 -23 -10 -30 -30z"/>
<path d="M6425 2690 c-5 -21 -13 -30 -26 -30 -14 0 -19 -7 -19 -25 0 -16 6
-25 15 -25 12 0 15 -17 15 -90 0 -77 3 -93 20 -110 32 -32 100 -25 100 10 0
12 -9 20 -22 22 -21 3 -23 9 -26 85 -3 78 -2 82 20 85 15 2 24 11 26 26 3 18
-1 22 -22 22 -22 0 -26 4 -26 30 0 25 -4 30 -24 30 -19 0 -26 -7 -31 -30z"/>
<path d="M4124 2638 c3 -13 6 -74 6 -135 l0 -113 29 0 29 0 4 89 c3 97 22 135
62 129 32 -5 46 -46 46 -135 l0 -83 30 0 30 0 0 110 c0 104 -1 112 -25 135
-36 37 -98 30 -132 -14 -11 -14 -12 -12 -13 12 0 24 -3 27 -36 27 -33 0 -36
-2 -30 -22z"/>
<path d="M4470 2647 c-34 -17 -53 -58 -41 -90 9 -24 55 -47 124 -62 30 -6 46
-30 29 -47 -15 -15 -81 -12 -100 6 -20 18 -62 11 -62 -10 0 -19 41 -44 83 -51
79 -12 147 22 147 75 0 44 -21 62 -90 81 -52 14 -66 22 -68 39 -3 19 1 22 36
22 22 0 45 -6 51 -14 14 -17 61 -9 61 10 0 41 -115 69 -170 41z"/>
<path d="M4874 2638 c3 -13 6 -74 6 -135 l0 -113 30 0 30 0 0 78 c0 95 14 126
58 130 28 3 32 7 32 33 0 24 -4 29 -24 29 -15 0 -33 -11 -45 -26 l-21 -27 0
27 c0 23 -4 26 -36 26 -33 0 -36 -2 -30 -22z"/>
<path d="M5070 2550 c0 -104 1 -112 25 -135 36 -37 98 -30 132 14 11 14 12 12
13 -11 0 -25 3 -28 36 -28 l37 0 -7 38 c-3 20 -6 81 -6 135 l0 97 -30 0 -30 0
0 -80 c0 -90 -13 -128 -48 -137 -43 -10 -57 16 -60 122 l-4 95 -29 0 -29 0 0
-110z"/>
<path d="M5374 2638 c3 -13 6 -74 6 -135 l0 -113 30 0 30 0 0 83 c0 88 14 130
45 135 33 7 45 -25 45 -125 l0 -93 35 0 35 0 0 89 c0 71 4 93 18 112 23 27 48
21 62 -16 6 -15 10 -62 10 -106 l0 -79 30 0 30 0 0 110 c0 104 -1 112 -25 135
-31 31 -66 32 -102 1 l-28 -24 -22 24 c-30 33 -77 32 -108 -2 l-25 -27 0 27
c0 23 -4 26 -36 26 -33 0 -36 -2 -30 -22z"/>
<path d="M5863 2641 c-43 -27 -53 -49 -53 -120 0 -52 4 -65 28 -92 48 -54 160
-48 192 10 8 16 5 20 -16 25 -17 5 -32 2 -43 -9 -39 -35 -91 -10 -91 44 0 19
6 21 80 21 l80 0 0 35 c0 81 -104 132 -177 86z m95 -37 c39 -27 28 -44 -28
-44 -54 0 -65 14 -34 44 19 20 34 20 62 0z"/>
<path d="M6100 2525 l0 -135 35 0 35 0 0 93 c0 78 3 97 18 110 51 47 82 3 82
-115 l0 -88 36 0 36 0 -4 111 c-3 107 -4 112 -31 135 -37 31 -78 31 -116 -2
l-31 -26 0 26 c0 22 -4 26 -30 26 l-30 0 0 -135z"/>
<path d="M6623 2645 c-40 -17 -63 -61 -63 -120 0 -60 23 -103 65 -121 126 -52
238 67 179 191 -27 58 -110 81 -181 50z m111 -57 c9 -12 16 -41 16 -63 0 -53
-23 -85 -60 -85 -16 0 -36 7 -44 16 -22 21 -21 111 1 136 23 25 68 23 87 -4z"/>
<path d="M6914 2646 c-78 -35 -51 -123 43 -141 52 -10 73 -22 73 -45 0 -14 -7
-21 -22 -22 -45 -3 -73 3 -84 18 -8 10 -20 13 -38 8 -32 -8 -32 -14 -1 -44 55
-52 187 -30 208 34 14 43 -16 77 -86 96 -60 16 -83 32 -73 49 10 16 86 14 92
-2 5 -14 64 -11 64 2 0 4 -11 18 -25 31 -30 28 -106 37 -151 16z"/>
<path d="M7710 2550 c0 -104 1 -112 25 -135 36 -37 98 -30 132 14 11 14 12 12
13 -11 0 -25 3 -28 36 -28 l37 0 -7 38 c-3 20 -6 81 -6 135 l0 97 -30 0 -30 0
0 -80 c0 -90 -13 -128 -48 -137 -43 -10 -57 16 -60 122 l-4 95 -29 0 -29 0 0
-110z"/>
<path d="M8054 2646 c-78 -35 -51 -123 43 -141 52 -10 73 -22 73 -45 0 -14 -7
-21 -22 -22 -45 -3 -73 3 -84 18 -8 10 -20 13 -38 8 -32 -8 -32 -14 -1 -44 55
-52 187 -30 208 34 14 43 -16 77 -86 96 -60 16 -83 32 -73 49 10 16 86 14 92
-2 5 -14 64 -11 64 2 0 4 -11 18 -25 31 -30 28 -106 37 -151 16z"/>
<path d="M8290 2525 l0 -135 35 0 35 0 0 135 0 135 -35 0 -35 0 0 -135z"/>
<path d="M8483 2646 c-40 -18 -63 -62 -63 -121 0 -60 23 -103 65 -121 62 -26
125 -10 159 38 23 32 20 38 -17 38 -21 0 -36 -7 -45 -20 -16 -27 -57 -26 -76
2 -18 25 -21 100 -6 129 14 26 66 26 82 -1 9 -13 24 -20 44 -20 27 0 31 3 27
19 -14 56 -105 86 -170 57z"/>
<path d="M8743 2641 c-44 -28 -45 -61 -3 -61 17 0 33 6 36 14 13 34 74 23 74
-13 0 -15 -11 -19 -57 -24 -67 -7 -103 -38 -103 -88 0 -37 40 -79 75 -79 32 0
85 26 86 43 0 6 5 2 11 -10 13 -27 40 -37 74 -29 29 8 32 32 4 39 -18 5 -20
14 -20 86 0 69 -3 84 -23 107 -32 37 -108 44 -154 15z m107 -139 c0 -55 -74
-86 -86 -37 -8 34 11 55 52 55 26 0 34 -4 34 -18z"/>
<path d="M9184 2650 c-30 -12 -62 -56 -70 -97 -8 -43 10 -107 38 -133 46 -42
150 -34 182 14 15 24 15 25 -16 31 -23 6 -33 3 -40 -9 -11 -19 -61 -21 -76 -3
-6 6 -13 24 -17 40 l-7 27 86 0 86 0 0 28 c0 37 -34 90 -66 102 -30 12 -71 12
-100 0z m86 -50 c31 -31 24 -40 -35 -40 -47 0 -54 2 -48 18 7 21 32 42 50 42
7 0 22 -9 33 -20z"/>
<path d="M9444 2646 c-78 -35 -51 -123 43 -141 52 -10 73 -22 73 -45 0 -14 -7
-21 -22 -22 -45 -3 -73 3 -84 18 -8 10 -20 13 -38 8 -32 -8 -32 -14 -1 -44 55
-52 187 -30 208 34 14 43 -16 77 -86 96 -60 16 -83 32 -73 49 10 16 86 14 92
-2 5 -14 64 -11 64 2 0 4 -11 18 -25 31 -30 28 -106 37 -151 16z"/>
</g>
</svg>
