<?xml version="1.0" standalone="no"?>
<!DOCTYPE svg PUBLIC "-//W3C//DTD SVG 20010904//EN"
 "http://www.w3.org/TR/2001/REC-SVG-20010904/DTD/svg10.dtd">
<svg version="1.0" xmlns="http://www.w3.org/2000/svg"
 width="848.000000pt" height="707.000000pt" viewBox="0 0 848.000000 707.000000"
 preserveAspectRatio="xMidYMid meet">

<g transform="translate(0.000000,707.000000) scale(0.100000,-0.100000)"
fill="#000000" stroke="none">
<path d="M3803 6735 c-11 -19 -4 -85 8 -85 5 0 9 12 10 28 0 15 2 37 3 50 3
25 -9 29 -21 7z"/>
<path d="M3709 6719 c-8 -16 -8 -28 0 -45 18 -41 71 -25 71 21 0 44 -50 61
-71 24z m56 -8 c8 -26 -5 -53 -24 -49 -29 6 -27 68 3 68 8 0 17 -8 21 -19z"/>
<path d="M4255 6710 c17 -19 19 -19 37 -4 24 23 24 24 -19 24 -36 0 -36 0 -18
-20z"/>
<path d="M3853 6685 c0 -22 2 -30 4 -17 2 12 2 30 0 40 -3 9 -5 -1 -4 -23z"/>
<path d="M3887 6713 c-4 -3 -7 -17 -7 -30 0 -26 25 -42 42 -25 7 7 4 10 -8 9
-13 -1 -19 5 -19 18 0 13 6 20 18 19 9 -1 17 2 17 7 0 10 -34 12 -43 2z"/>
<path d="M3953 6685 c0 -22 2 -30 4 -17 2 12 2 30 0 40 -3 9 -5 -1 -4 -23z"/>
<path d="M3980 6686 c0 -20 5 -36 10 -36 6 0 10 14 10 30 0 39 27 41 33 3 4
-26 4 -26 3 2 -1 25 -6 31 -28 33 -26 3 -28 1 -28 -32z"/>
<path d="M4066 6711 c-4 -5 3 -7 14 -4 11 3 20 1 20 -5 0 -5 -9 -12 -21 -15
-28 -7 -19 -31 12 -35 23 -3 25 0 21 33 -3 26 -9 35 -23 35 -10 0 -20 -4 -23
-9z m34 -41 c0 -5 -7 -10 -15 -10 -8 0 -15 5 -15 10 0 6 7 10 15 10 8 0 15 -4
15 -10z"/>
<path d="M4135 6710 c-3 -5 3 -15 15 -22 27 -17 26 -31 -2 -23 -18 6 -20 4
-12 -5 14 -15 46 -10 52 8 2 7 -5 16 -17 19 -12 3 -21 10 -21 15 0 5 10 6 21
3 15 -5 19 -4 15 4 -9 14 -43 15 -51 1z"/>
<path d="M5298 6643 c18 -2 45 -2 60 0 15 2 0 4 -33 4 -33 0 -45 -2 -27 -4z"/>
<path d="M3791 6208 c-1 -31 3 -59 7 -62 5 -3 7 18 5 47 -6 75 -11 81 -12 15z"/>
<path d="M4230 6240 c0 -5 5 -10 10 -10 6 0 10 5 10 10 0 6 -4 10 -10 10 -5 0
-10 -4 -10 -10z"/>
<path d="M3590 6190 c0 -27 5 -50 10 -50 6 0 10 9 10 20 0 13 7 20 20 20 13 0
20 -7 20 -20 0 -11 5 -20 10 -20 6 0 10 23 10 50 0 28 -4 50 -10 50 -5 0 -10
-9 -10 -20 0 -13 -7 -20 -20 -20 -13 0 -20 7 -20 20 0 11 -4 20 -10 20 -5 0
-10 -22 -10 -50z"/>
<path d="M3957 6233 c-11 -10 -8 -93 3 -93 6 0 10 15 10 33 l1 32 15 -27 c8
-16 17 -28 19 -28 2 0 11 12 19 28 l15 27 1 -32 c0 -18 5 -33 11 -33 6 0 9 19
7 48 -3 53 -16 59 -37 16 l-14 -28 -15 32 c-16 32 -23 38 -35 25z"/>
<path d="M4160 6209 c0 -17 5 -39 10 -50 11 -20 40 -27 40 -9 0 6 -7 10 -15
10 -21 0 -19 37 3 49 16 10 16 10 0 11 -10 0 -18 5 -18 10 0 6 -4 10 -10 10
-5 0 -10 -14 -10 -31z"/>
<path d="M4460 6205 c0 -19 5 -35 10 -35 6 0 10 16 10 35 0 19 -4 35 -10 35
-5 0 -10 -16 -10 -35z"/>
<path d="M3700 6201 c-25 -47 36 -83 64 -38 8 12 8 22 0 35 -16 25 -51 27 -64
3z m50 -21 c0 -13 -7 -20 -20 -20 -13 0 -20 7 -20 20 0 13 7 20 20 20 13 0 20
-7 20 -20z"/>
<path d="M3840 6210 c0 -6 4 -9 9 -5 5 3 12 1 15 -4 3 -5 -4 -11 -15 -14 -31
-8 -21 -41 14 -45 27 -3 28 -2 25 35 -2 31 -7 39 -25 41 -13 2 -23 -2 -23 -8z
m30 -45 c0 -8 -4 -15 -9 -15 -13 0 -22 16 -14 24 11 11 23 6 23 -9z"/>
<path d="M4090 6211 c0 -6 3 -10 8 -10 23 4 33 -4 12 -10 -36 -10 -34 -45 3
-49 27 -3 28 -2 25 35 -2 31 -7 39 -25 41 -13 2 -23 -1 -23 -7z m31 -44 c-1
-12 -15 -9 -19 4 -3 6 1 10 8 8 6 -3 11 -8 11 -12z"/>
<path d="M4230 6180 c0 -22 5 -40 10 -40 6 0 10 18 10 40 0 22 -4 40 -10 40
-5 0 -10 -18 -10 -40z"/>
<path d="M4275 6210 c4 -6 10 -8 15 -5 5 3 11 1 14 -4 3 -5 -4 -11 -15 -14
-31 -8 -21 -41 14 -45 23 -3 27 0 27 22 0 40 -11 56 -37 56 -14 0 -22 -4 -18
-10z m35 -45 c0 -8 -4 -15 -9 -15 -13 0 -22 16 -14 24 11 11 23 6 23 -9z"/>
<path d="M4357 6213 c-13 -13 -7 -32 13 -38 11 -4 18 -11 14 -16 -3 -6 -12 -8
-20 -5 -8 3 -14 1 -14 -4 0 -6 9 -10 20 -10 27 0 38 30 17 42 -22 12 -22 25 1
31 14 4 13 5 -4 6 -11 0 -24 -2 -27 -6z"/>
<path d="M4460 6150 c0 -5 5 -10 10 -10 6 0 10 5 10 10 0 6 -4 10 -10 10 -5 0
-10 -4 -10 -10z"/>
<path d="M3110 5995 c0 -9 5 -15 11 -13 6 2 11 8 11 13 0 5 -5 11 -11 13 -6 2
-11 -4 -11 -13z"/>
<path d="M3770 5995 c0 -8 7 -15 15 -15 8 0 15 7 15 15 0 8 -7 15 -15 15 -8 0
-15 -7 -15 -15z"/>
<path d="M3900 5986 c0 -20 -6 -25 -32 -28 -24 -2 -34 -9 -41 -31 -14 -42 13
-77 58 -77 l35 0 0 80 c0 47 -4 80 -10 80 -5 0 -10 -11 -10 -24z m0 -82 c0
-31 -3 -35 -22 -32 -39 5 -37 68 2 68 16 0 20 -6 20 -36z"/>
<path d="M2970 5925 l0 -75 43 0 c24 0 48 5 55 12 14 14 16 54 3 62 -4 3 -6
17 -3 32 6 32 -10 44 -60 44 l-38 0 0 -75z m75 35 c0 -8 -10 -16 -22 -18 -18
-3 -23 2 -23 18 0 16 5 21 23 18 12 -2 22 -10 22 -18z m3 -52 c15 -15 -3 -38
-29 -38 -14 0 -19 7 -19 25 0 27 26 35 48 13z"/>
<path d="M4307 5993 c-4 -3 -7 -37 -7 -75 0 -54 3 -68 15 -68 11 0 15 11 15
36 0 34 1 35 33 32 28 -3 32 -7 35 -35 6 -63 22 -32 22 42 0 43 -4 75 -10 75
-5 0 -10 -13 -10 -30 0 -28 -3 -30 -35 -30 -32 0 -35 2 -35 30 0 29 -9 38 -23
23z"/>
<path d="M3110 5905 c0 -30 5 -55 10 -55 6 0 10 25 10 55 0 30 -4 55 -10 55
-5 0 -10 -25 -10 -55z"/>
<path d="M3173 5934 c-15 -24 -15 -29 -2 -53 10 -18 24 -27 47 -29 38 -4 44
15 5 20 -42 5 -41 28 1 28 37 0 43 10 30 44 -10 27 -61 20 -81 -10z m62 -4 c4
-6 -5 -10 -20 -10 -15 0 -24 4 -20 10 3 6 12 10 20 10 8 0 17 -4 20 -10z"/>
<path d="M3290 5906 c0 -43 3 -56 15 -56 11 0 15 12 15 46 0 38 3 45 18 42 12
-2 18 -15 20 -46 2 -23 8 -42 13 -42 6 0 9 22 7 53 l-3 52 -42 3 -43 3 0 -55z"/>
<path d="M3420 5908 c11 -29 20 -54 20 -55 0 -2 6 -3 14 -3 12 0 46 71 46 98
0 25 -18 11 -32 -25 l-14 -38 -13 38 c-7 20 -19 37 -27 37 -11 0 -10 -10 6
-52z"/>
<path d="M3528 5935 c-8 -18 -9 -35 -2 -53 8 -22 16 -28 47 -30 42 -4 52 15
10 20 -42 5 -41 28 1 28 20 0 36 5 36 11 0 51 -71 69 -92 24z m62 -5 c0 -5 -9
-10 -20 -10 -11 0 -20 5 -20 10 0 6 9 10 20 10 11 0 20 -4 20 -10z"/>
<path d="M3650 5905 c0 -30 5 -55 10 -55 6 0 10 20 10 45 0 37 3 45 19 45 21
0 31 -19 31 -61 0 -16 5 -29 10 -29 14 0 12 84 -2 98 -7 7 -27 12 -45 12 l-33
0 0 -55z"/>
<path d="M3770 5905 c0 -42 3 -55 15 -55 12 0 15 13 15 55 0 42 -3 55 -15 55
-12 0 -15 -13 -15 -55z"/>
<path d="M3960 5941 c-23 -43 2 -91 48 -91 23 0 52 34 52 62 0 44 -79 67 -100
29z m65 -36 c0 -23 -4 -30 -20 -30 -21 0 -31 25 -21 51 11 28 41 12 41 -21z"/>
<path d="M4140 5950 c0 -5 11 -10 25 -10 31 0 33 -17 4 -22 -27 -4 -44 -30
-36 -52 4 -11 19 -16 47 -16 40 0 40 0 40 39 0 59 -8 71 -46 71 -19 0 -34 -4
-34 -10z m58 -67 c2 -8 -5 -13 -17 -13 -21 0 -35 13 -24 24 10 10 36 3 41 -11z"/>
<path d="M4458 5935 c-17 -38 0 -79 35 -83 37 -5 57 14 57 52 0 39 -15 56 -52
56 -21 0 -32 -7 -40 -25z m67 -30 c0 -36 -28 -46 -44 -16 -15 27 -3 53 23 49
16 -2 21 -10 21 -33z"/>
<path d="M4580 5905 c0 -42 3 -55 15 -55 11 0 15 12 15 45 0 38 3 45 20 45 11
0 20 5 20 10 0 6 -16 10 -35 10 l-35 0 0 -55z"/>
<path d="M4670 5906 c0 -31 5 -56 10 -56 6 0 10 21 10 46 0 41 2 45 23 42 18
-2 23 -10 25 -45 2 -24 8 -43 13 -43 6 0 9 22 7 53 l-3 52 -42 3 -43 3 0 -55z"/>
<path d="M4798 5935 c-8 -18 -9 -35 -2 -53 8 -22 16 -28 47 -30 42 -4 52 15
10 20 -42 5 -41 28 1 28 20 0 36 5 36 11 0 51 -71 69 -92 24z m62 -5 c0 -5 -9
-10 -20 -10 -11 0 -20 5 -20 10 0 6 9 10 20 10 11 0 20 -4 20 -10z"/>
<path d="M4920 5905 c0 -30 5 -55 10 -55 6 0 10 20 10 45 0 38 3 45 20 45 11
0 20 5 20 10 0 6 -13 10 -30 10 -30 0 -30 -1 -30 -55z"/>
<path d="M5008 5935 c-17 -38 0 -79 35 -83 37 -5 57 14 57 52 0 39 -15 56 -52
56 -21 0 -32 -7 -40 -25z m67 -30 c0 -36 -28 -46 -44 -16 -15 27 -3 53 23 49
16 -2 21 -10 21 -33z"/>
<path d="M4043 5660 c-25 -10 -43 -39 -43 -70 0 -27 43 -70 70 -70 26 0 60 34
60 60 0 16 -7 20 -30 20 -16 0 -30 -4 -30 -10 0 -5 7 -10 16 -10 22 0 11 -24
-13 -28 -41 -6 -58 58 -21 82 12 7 24 6 42 -4 30 -16 41 -10 23 12 -16 21 -47
29 -74 18z"/>
<path d="M4140 5595 c0 -51 3 -65 15 -65 12 0 15 14 15 65 0 51 -3 65 -15 65
-12 0 -15 -14 -15 -65z"/>
<path d="M4300 5596 c0 -59 2 -64 23 -68 43 -8 67 8 67 45 0 40 -20 61 -50 52
-16 -5 -20 -2 -20 14 0 12 -4 21 -10 21 -6 0 -10 -28 -10 -64z m64 -29 c-3 -9
-13 -17 -20 -17 -21 0 -29 27 -13 46 10 13 14 13 26 1 8 -7 11 -21 7 -30z"/>
<path d="M3830 5636 c0 -8 -10 -16 -22 -18 -18 -2 -24 -11 -26 -35 -3 -27 1
-33 22 -39 14 -3 30 -3 35 1 14 8 14 105 1 105 -5 0 -10 -6 -10 -14z m0 -56
c0 -11 -6 -20 -14 -20 -18 0 -29 16 -21 30 11 18 35 11 35 -10z"/>
<path d="M4620 5605 c0 -55 29 -92 60 -75 34 18 35 33 1 25 -29 -6 -31 -5 -31
24 0 24 4 31 20 31 11 0 20 5 20 10 0 6 -9 10 -20 10 -11 0 -20 5 -20 10 0 6
-7 10 -15 10 -11 0 -15 -12 -15 -45z"/>
<path d="M4195 5606 c-30 -46 8 -96 58 -77 48 18 37 93 -15 99 -20 2 -31 -4
-43 -22z m55 -11 c15 -18 6 -45 -15 -45 -18 0 -30 24 -21 45 7 19 20 19 36 0z"/>
<path d="M4420 5615 c-16 -19 -5 -34 12 -17 14 14 38 16 38 3 0 -5 -13 -12
-30 -16 -23 -5 -30 -12 -30 -30 0 -27 14 -34 58 -28 28 5 32 9 32 35 0 16 -5
38 -10 49 -13 23 -52 25 -70 4z m50 -54 c0 -12 -28 -22 -34 -12 -3 5 -3 11 1
15 9 9 33 7 33 -3z"/>
<path d="M4515 5622 c-3 -3 -5 -25 -5 -49 0 -56 27 -61 32 -5 2 25 8 37 18 37
10 0 16 -12 18 -37 4 -48 32 -54 32 -7 0 49 -16 69 -55 67 -19 -1 -37 -4 -40
-6z"/>
<path d="M3192 5583 c3 -33 7 -38 31 -41 26 -3 27 -2 25 40 -1 37 -2 38 -5 11
-6 -43 -33 -45 -33 -3 0 17 -5 30 -11 30 -6 0 -9 -16 -7 -37z"/>
<path d="M3282 5578 c1 -38 2 -39 5 -10 5 42 35 40 45 -3 6 -26 6 -25 5 10 -2
36 -5 40 -29 43 -27 3 -28 2 -26 -40z"/>
<path d="M3370 5610 c0 -5 3 -9 8 -9 23 4 33 -4 12 -10 -36 -10 -34 -45 3 -49
33 -4 45 18 29 54 -11 23 -52 35 -52 14z m38 -41 c-2 -6 -8 -10 -13 -10 -5 0
-11 4 -13 10 -2 6 4 11 13 11 9 0 15 -5 13 -11z"/>
<path d="M3490 5610 c0 -6 4 -9 9 -5 5 3 12 1 15 -4 3 -5 -4 -11 -15 -14 -31
-8 -21 -41 14 -45 27 -3 28 -2 25 35 -2 31 -7 39 -25 41 -13 2 -23 -2 -23 -8z
m30 -45 c0 -8 -4 -15 -9 -15 -13 0 -22 16 -14 24 11 11 23 6 23 -9z"/>
<path d="M3571 5563 c1 -32 3 -50 6 -40 2 9 13 17 23 17 11 0 24 9 30 20 15
28 -4 60 -35 60 -24 0 -25 -3 -24 -57z m44 17 c0 -8 -8 -16 -17 -18 -13 -2
-18 3 -18 18 0 15 5 20 18 18 9 -2 17 -10 17 -18z"/>
<path d="M3661 5563 c1 -32 3 -50 6 -40 2 9 13 17 23 17 11 0 24 9 30 20 15
28 -4 60 -35 60 -24 0 -25 -3 -24 -57z m44 17 c0 -8 -8 -16 -17 -18 -13 -2
-18 3 -18 18 0 15 5 20 18 18 9 -2 17 -10 17 -18z"/>
<path d="M3882 5608 c-25 -25 -6 -68 30 -68 10 0 18 5 18 10 0 6 -9 10 -20 10
-11 0 -20 5 -20 10 0 6 11 10 25 10 14 0 25 4 25 8 0 12 -22 32 -35 32 -6 0
-16 -5 -23 -12z m33 -8 c3 -5 -1 -10 -10 -10 -9 0 -13 5 -10 10 3 6 8 10 10
10 2 0 7 -4 10 -10z"/>
<path d="M3875 4440 c-3 -5 -1 -10 4 -10 6 0 11 5 11 10 0 6 -2 10 -4 10 -3 0
-8 -4 -11 -10z"/>
<path d="M3590 4396 c0 -41 2 -46 23 -46 33 0 45 17 38 53 -5 25 -12 33 -34
35 -26 3 -27 1 -27 -42z m40 20 c0 -3 -4 -8 -10 -11 -5 -3 -10 -1 -10 4 0 6 5
11 10 11 6 0 10 -2 10 -4z m10 -36 c0 -5 -7 -10 -15 -10 -8 0 -15 5 -15 10 0
6 7 10 15 10 8 0 15 -4 15 -10z"/>
<path d="M3672 4388 c2 -25 8 -34 26 -36 20 -3 22 1 21 35 -2 30 -3 32 -6 11
-5 -35 -23 -37 -23 -3 0 14 -5 25 -11 25 -6 0 -9 -14 -7 -32z"/>
<path d="M3744 4408 c-4 -6 1 -17 11 -25 17 -12 17 -13 2 -13 -9 0 -17 -4 -17
-10 0 -14 37 -13 46 2 4 6 -1 17 -11 25 -11 7 -13 13 -7 13 7 0 12 5 12 10 0
14 -27 13 -36 -2z"/>
<path d="M3812 4411 c-22 -13 -11 -56 16 -59 12 -2 22 1 22 7 0 6 -7 11 -15
11 -20 0 -19 20 3 36 14 11 14 13 2 14 -8 0 -21 -4 -28 -9z"/>
<path d="M3860 4411 c0 -5 8 -12 18 -14 16 -4 16 -5 0 -6 -11 -1 -18 -9 -18
-21 0 -15 7 -20 26 -20 23 0 25 3 22 33 -2 24 -8 33 -25 35 -13 2 -23 -1 -23
-7z"/>
<path d="M4287 4368 c2 -5 15 -8 28 -8 13 0 27 -4 30 -10 3 -5 11 -10 18 -10
6 0 4 7 -5 17 -16 16 -81 26 -71 11z"/>
<path d="M3531 3963 c1 -27 3 -40 6 -30 5 21 22 22 29 2 10 -26 21 -16 20 18
-2 41 -12 57 -37 57 -16 0 -19 -7 -18 -47z m39 17 c0 -5 -7 -10 -15 -10 -8 0
-15 5 -15 10 0 6 7 10 15 10 8 0 15 -4 15 -10z"/>
<path d="M3604 3976 c-10 -26 1 -51 24 -54 26 -4 30 14 5 21 -14 4 -12 5 5 6
25 1 28 11 10 29 -16 16 -37 15 -44 -2z"/>
<path d="M3674 3978 c-4 -6 1 -17 11 -25 17 -12 17 -13 2 -13 -9 0 -17 -4 -17
-10 0 -14 37 -13 46 2 4 6 -1 17 -11 25 -11 7 -13 13 -7 13 7 0 12 5 12 10 0
14 -27 13 -36 -2z"/>
<path d="M3734 3976 c-10 -26 1 -51 24 -54 26 -4 30 14 5 21 -14 4 -12 5 5 6
25 1 28 11 10 29 -16 16 -37 15 -44 -2z"/>
<path d="M3807 3983 c-11 -10 -8 -63 3 -63 6 0 10 11 10 25 0 14 5 25 10 25 6
0 10 5 10 10 0 11 -23 14 -33 3z"/>
<path d="M3862 3960 c5 -17 14 -33 19 -36 10 -6 32 44 25 60 -2 6 -8 0 -13
-14 l-10 -25 -7 23 c-4 12 -11 22 -16 22 -5 0 -4 -14 2 -30z"/>
<path d="M3930 3981 c0 -6 8 -11 18 -12 12 0 11 -3 -6 -10 -28 -11 -24 -33 7
-37 20 -3 22 0 19 30 -2 22 -9 34 -20 36 -10 2 -18 -1 -18 -7z m30 -35 c0 -3
-4 -8 -10 -11 -5 -3 -10 -1 -10 4 0 6 5 11 10 11 6 0 10 -2 10 -4z"/>
<path d="M4312 3967 c-22 -23 -29 -47 -14 -47 14 0 63 56 55 63 -11 11 -18 8
-41 -16z m18 -12 c-13 -14 -26 -23 -28 -20 -7 7 29 45 41 45 6 0 0 -11 -13
-25z"/>
<path d="M4303 3903 c15 -2 37 -2 50 0 12 2 0 4 -28 4 -27 0 -38 -2 -22 -4z"/>
<path d="M3995 3570 c-3 -5 -1 -10 4 -10 6 0 11 5 11 10 0 6 -2 10 -4 10 -3 0
-8 -4 -11 -10z"/>
<path d="M3502 3558 c-27 -27 -7 -78 30 -78 10 0 18 5 18 10 0 6 -9 10 -20 10
-15 0 -20 7 -20 25 0 18 5 25 20 25 11 0 20 5 20 10 0 14 -33 13 -48 -2z"/>
<path d="M3943 3530 c2 -36 6 -45 22 -48 19 -3 19 -2 3 11 -10 8 -18 18 -18
22 0 4 8 14 18 21 15 12 15 13 0 14 -9 0 -19 6 -22 13 -3 6 -4 -8 -3 -33z"/>
<path d="M4329 3554 c-12 -15 -12 -16 8 -10 26 8 39 -9 22 -30 -10 -12 -14
-12 -20 -2 -7 11 -12 11 -29 0 -22 -13 -27 -3 -8 16 8 8 8 12 1 12 -17 0 -25
-31 -11 -47 10 -12 13 -12 21 3 8 13 11 14 18 3 7 -11 13 -10 31 9 l22 22 -20
21 c-19 19 -22 19 -35 3z"/>
<path d="M3571 3532 c-11 -21 3 -52 24 -52 21 0 35 32 24 53 -13 22 -36 22
-48 -1z m39 -17 c0 -8 -7 -15 -15 -15 -8 0 -15 7 -15 15 0 8 7 15 15 15 8 0
15 -7 15 -15z"/>
<path d="M3640 3515 c0 -42 17 -47 23 -7 l4 27 2 -27 c1 -35 21 -37 21 -3 0
14 5 25 10 25 6 0 10 -11 10 -25 0 -14 5 -25 10 -25 12 0 13 40 2 56 -4 6 -24
11 -44 12 -37 1 -38 0 -38 -33z"/>
<path d="M3747 3544 c-11 -11 -8 -84 3 -84 6 0 10 4 10 9 0 5 9 11 21 14 28 8
23 61 -6 65 -12 2 -24 0 -28 -4z m35 -29 c0 -5 -5 -11 -11 -13 -6 -2 -11 4
-11 13 0 9 5 15 11 13 6 -2 11 -8 11 -13z"/>
<path d="M3820 3541 c0 -5 8 -12 18 -14 16 -4 16 -5 0 -6 -11 -1 -18 -9 -18
-21 0 -15 7 -20 26 -20 23 0 25 3 22 33 -2 24 -8 33 -25 35 -13 2 -23 -1 -23
-7z"/>
<path d="M3887 3543 c-11 -10 -8 -63 3 -63 6 0 10 11 10 25 0 14 5 25 10 25 6
0 10 5 10 10 0 11 -23 14 -33 3z"/>
<path d="M3990 3515 c0 -19 5 -35 10 -35 6 0 10 16 10 35 0 19 -4 35 -10 35
-5 0 -10 -16 -10 -35z"/>
<path d="M4262 3508 c3 -43 3 -43 46 -46 23 -2 42 1 42 5 0 5 -19 7 -41 5
l-41 -4 4 41 c2 22 0 41 -5 41 -4 0 -7 -19 -5 -42z"/>
<path d="M3731 3103 c-1 -46 1 -53 19 -53 25 0 41 29 29 52 -5 10 -16 18 -24
18 -7 0 -16 8 -18 18 -3 9 -5 -7 -6 -35z m39 -18 c0 -8 -7 -15 -15 -15 -8 0
-15 7 -15 15 0 8 7 15 15 15 8 0 15 -7 15 -15z"/>
<path d="M3870 3140 c0 -5 5 -10 10 -10 6 0 10 5 10 10 0 6 -4 10 -10 10 -5 0
-10 -4 -10 -10z"/>
<path d="M3540 3130 c0 -5 5 -10 10 -10 6 0 10 -16 10 -35 0 -19 5 -35 10 -35
6 0 10 14 10 31 0 19 7 37 18 45 15 12 13 13 -20 14 -21 0 -38 -4 -38 -10z"/>
<path d="M4300 3120 c0 -5 -7 -10 -15 -10 -10 0 -15 -11 -15 -35 l0 -35 50 0
50 0 0 35 c0 24 -5 35 -15 35 -8 0 -15 5 -15 10 0 6 -9 10 -20 10 -11 0 -20
-4 -20 -10z m60 -45 c0 -22 -4 -25 -40 -25 -36 0 -40 3 -40 25 0 23 4 25 40
25 36 0 40 -2 40 -25z"/>
<path d="M3610 3085 c0 -19 5 -35 10 -35 6 0 10 11 10 25 0 14 5 25 10 25 6 0
10 5 10 10 0 6 -9 10 -20 10 -16 0 -20 -7 -20 -35z"/>
<path d="M3660 3111 c0 -5 8 -12 18 -14 16 -4 16 -5 0 -6 -11 -1 -18 -9 -18
-21 0 -15 7 -20 26 -20 23 0 25 3 22 33 -2 24 -8 33 -25 35 -13 2 -23 -1 -23
-7z"/>
<path d="M3810 3111 c0 -6 5 -11 12 -11 6 0 4 -6 -7 -13 -21 -16 -12 -37 16
-37 17 0 20 6 17 32 -2 22 -9 34 -20 36 -10 2 -18 -1 -18 -7z"/>
<path d="M3870 3087 c0 -18 -5 -38 -12 -45 -9 -9 -8 -12 4 -12 9 0 19 7 22 16
10 25 7 74 -4 74 -5 0 -10 -15 -10 -33z"/>
<path d="M3910 3111 c0 -6 8 -11 18 -12 12 0 11 -3 -6 -10 -28 -11 -24 -33 7
-37 20 -3 22 0 19 30 -2 22 -9 34 -20 36 -10 2 -18 -1 -18 -7z m30 -35 c0 -3
-4 -8 -10 -11 -5 -3 -10 -1 -10 4 0 6 5 11 10 11 6 0 10 -2 10 -4z"/>
<path d="M3641 2673 c-1 -35 3 -63 8 -63 4 0 6 24 4 53 -7 77 -11 81 -12 10z"/>
<path d="M3971 2678 c-1 -31 3 -59 7 -62 5 -3 7 18 5 47 -6 75 -11 81 -12 15z"/>
<path d="M3260 2705 c0 -8 -9 -15 -20 -15 -10 0 -24 -9 -30 -20 -15 -28 4 -60
35 -60 24 0 25 3 25 55 0 30 -2 55 -5 55 -3 0 -5 -7 -5 -15z m0 -55 c0 -13 -7
-20 -20 -20 -13 0 -20 7 -20 20 0 13 7 20 20 20 13 0 20 -7 20 -20z"/>
<path d="M4310 2707 c0 -7 -10 -17 -22 -22 -44 -19 -30 -75 18 -75 22 0 24 4
24 55 0 30 -4 55 -10 55 -5 0 -10 -6 -10 -13z m0 -57 c0 -11 -7 -20 -15 -20
-8 0 -15 9 -15 20 0 11 7 20 15 20 8 0 15 -9 15 -20z"/>
<path d="M3030 2700 c0 -5 7 -10 15 -10 11 0 15 -11 15 -40 0 -22 5 -40 10
-40 6 0 10 18 10 40 0 29 4 40 15 40 8 0 15 5 15 10 0 6 -18 10 -40 10 -22 0
-40 -4 -40 -10z"/>
<path d="M4470 2679 c0 -17 5 -39 10 -50 11 -20 40 -27 40 -9 0 6 -7 10 -15
10 -21 0 -19 37 3 49 16 10 16 10 0 11 -10 0 -18 5 -18 10 0 6 -4 10 -10 10
-5 0 -10 -14 -10 -31z"/>
<path d="M3122 2678 c-25 -25 -6 -68 30 -68 9 0 22 9 28 20 22 40 -26 80 -58
48z m43 -28 c0 -8 -8 -16 -17 -18 -13 -2 -18 3 -18 18 0 15 5 20 18 18 9 -2
17 -10 17 -18z"/>
<path d="M3300 2671 c-25 -47 36 -83 64 -38 8 12 8 22 0 35 -16 25 -51 27 -64
3z m50 -21 c0 -13 -7 -20 -20 -20 -13 0 -20 7 -20 20 0 13 7 20 20 20 13 0 20
-7 20 -20z"/>
<path d="M3432 2678 c-15 -15 -15 -41 0 -56 15 -15 48 -16 48 -2 0 6 -9 10
-20 10 -11 0 -20 5 -20 10 0 6 12 10 26 10 19 0 25 5 22 18 -4 21 -39 27 -56
10z m33 -8 c3 -5 -1 -10 -10 -10 -9 0 -13 5 -10 10 3 6 8 10 10 10 2 0 7 -4
10 -10z"/>
<path d="M3510 2650 c0 -22 5 -40 10 -40 6 0 10 14 10 30 0 20 5 30 15 30 10
0 15 -10 15 -30 0 -16 5 -30 10 -30 6 0 10 9 10 21 0 34 -19 59 -45 59 -22 0
-25 -4 -25 -40z"/>
<path d="M3685 2680 c4 -6 10 -8 15 -5 5 3 11 1 14 -4 3 -5 -4 -11 -15 -14
-31 -8 -21 -41 14 -45 23 -3 27 0 27 22 0 40 -11 56 -37 56 -14 0 -22 -4 -18
-10z m35 -45 c0 -8 -4 -15 -9 -15 -13 0 -22 16 -14 24 11 11 23 6 23 -9z"/>
<path d="M3801 2633 c1 -32 3 -50 6 -41 2 9 14 18 25 20 52 8 47 70 -6 76 -26
3 -26 2 -25 -55z m49 17 c0 -13 -7 -20 -20 -20 -13 0 -20 7 -20 20 0 13 7 20
20 20 13 0 20 -7 20 -20z"/>
<path d="M3890 2680 c0 -5 3 -9 8 -9 23 4 33 -4 12 -10 -36 -10 -34 -45 3 -49
33 -4 45 18 29 54 -11 23 -52 35 -52 14z m38 -41 c-2 -6 -8 -10 -13 -10 -5 0
-11 4 -13 10 -2 6 4 11 13 11 9 0 15 -5 13 -11z"/>
<path d="M4022 2647 c1 -37 2 -38 5 -9 6 42 33 44 33 2 0 -16 5 -30 10 -30 6
0 10 14 10 31 0 39 22 34 32 -7 5 -25 6 -23 5 11 l-2 40 -47 2 -48 2 2 -42z"/>
<path d="M4150 2681 c0 -6 3 -10 8 -10 23 4 33 -4 12 -10 -36 -10 -34 -45 3
-49 27 -3 28 -2 25 35 -2 31 -7 39 -25 41 -13 2 -23 -1 -23 -7z m31 -44 c-1
-12 -15 -9 -19 4 -3 6 1 10 8 8 6 -3 11 -8 11 -12z"/>
<path d="M4362 2678 c-25 -25 -6 -68 30 -68 10 0 18 5 18 10 0 6 -9 10 -20 10
-11 0 -20 5 -20 10 0 6 11 10 25 10 14 0 25 4 25 8 0 12 -22 32 -35 32 -6 0
-16 -5 -23 -12z m33 -8 c3 -5 -1 -10 -10 -10 -9 0 -13 5 -10 10 3 6 8 10 10
10 2 0 7 -4 10 -10z"/>
<path d="M4543 2655 c2 -36 5 -40 30 -43 26 -3 27 -1 27 37 0 23 -4 41 -10 41
-5 0 -10 -14 -10 -31 0 -39 -22 -34 -32 7 -5 25 -6 23 -5 -11z"/>
<path d="M4666 2683 c-10 -10 -7 -73 4 -73 6 0 10 14 10 30 0 20 5 30 15 30
10 0 15 -10 15 -30 0 -16 5 -30 11 -30 7 0 9 11 6 30 -5 22 -3 30 8 30 10 0
15 -10 15 -30 0 -16 5 -30 11 -30 6 0 9 16 7 38 -3 37 -3 37 -49 39 -26 1 -49
-1 -53 -4z"/>
<path d="M4800 2680 c0 -6 4 -9 9 -5 5 3 12 1 15 -4 3 -5 -4 -11 -15 -14 -31
-8 -21 -41 14 -45 27 -3 28 -2 25 35 -2 31 -7 39 -25 41 -13 2 -23 -2 -23 -8z
m30 -45 c0 -8 -4 -15 -9 -15 -13 0 -22 16 -14 24 11 11 23 6 23 -9z"/>
<path d="M4882 2648 c1 -37 2 -38 5 -10 6 42 33 44 33 2 0 -16 5 -30 11 -30 6
0 9 16 7 38 -3 32 -7 37 -30 40 -27 3 -28 2 -26 -40z"/>
<path d="M4972 2678 c-25 -25 -6 -68 30 -68 9 0 22 9 28 20 22 40 -26 80 -58
48z m43 -28 c0 -8 -8 -16 -17 -18 -13 -2 -18 3 -18 18 0 15 5 20 18 18 9 -2
17 -10 17 -18z"/>
<path d="M3635 1096 c-28 -20 -26 -83 4 -107 44 -36 101 -15 101 37 0 20 -5
24 -30 24 -33 0 -39 -14 -12 -29 15 -9 15 -12 2 -21 -22 -14 -28 -13 -45 14
-29 44 16 101 52 65 6 -6 17 -9 23 -7 22 7 -19 38 -49 38 -15 0 -36 -6 -46
-14z"/>
<path d="M3760 1040 c0 -40 4 -70 10 -70 6 0 10 30 10 70 0 40 -4 70 -10 70
-6 0 -10 -30 -10 -70z"/>
<path d="M3910 1042 l0 -68 35 -1 c61 -2 86 70 34 97 -11 6 -24 8 -29 5 -6 -3
-10 3 -10 14 0 12 -7 21 -15 21 -12 0 -15 -14 -15 -68z m66 -7 c7 -18 -14 -47
-27 -39 -5 3 -9 16 -9 30 0 27 27 34 36 9z"/>
<path d="M4240 1046 c0 -64 17 -85 55 -68 36 16 32 35 -5 27 -27 -6 -30 -4
-30 19 0 18 6 25 23 28 12 2 22 8 22 13 0 6 -10 11 -22 13 -13 2 -23 8 -23 13
0 5 -4 9 -10 9 -5 0 -10 -24 -10 -54z"/>
<path d="M3818 1068 c-28 -22 -31 -55 -9 -77 26 -26 46 -26 71 -1 11 11 20 27
20 35 0 18 -35 55 -53 55 -7 0 -20 -6 -29 -12z m48 -33 c4 -8 0 -22 -7 -31
-11 -13 -14 -13 -27 0 -17 17 -9 46 13 46 9 0 18 -7 21 -15z"/>
<path d="M4034 1063 c-20 -20 -2 -32 20 -13 10 7 16 8 21 0 3 -5 -1 -12 -9
-15 -9 -3 -23 -7 -31 -10 -15 -4 -21 -44 -7 -46 4 -1 24 -3 45 -4 l37 -2 0 43
c0 33 -5 46 -19 54 -27 14 -37 13 -57 -7z m46 -52 c0 -12 -20 -25 -27 -18 -7
7 6 27 18 27 5 0 9 -4 9 -9z"/>
<path d="M4153 1073 c-20 -4 -23 -11 -23 -54 0 -57 17 -67 22 -12 2 27 8 39
21 41 14 3 17 -4 17 -38 0 -54 24 -49 28 5 3 29 -1 43 -14 52 -10 7 -20 12
-23 12 -3 -1 -16 -4 -28 -6z"/>
<path d="M2981 818 c0 -26 3 -49 7 -52 4 -2 6 12 4 32 -6 62 -10 69 -11 20z"/>
<path d="M3023 810 c0 -30 2 -43 4 -27 2 15 2 39 0 55 -2 15 -4 2 -4 -28z"/>
<path d="M3150 846 c0 -7 -9 -16 -21 -19 -30 -8 -23 -61 9 -65 20 -3 22 0 22
47 0 28 -2 51 -5 51 -3 0 -5 -6 -5 -14z m0 -51 c0 -26 -14 -33 -25 -15 -9 14
1 40 15 40 5 0 10 -11 10 -25z"/>
<path d="M3641 812 c-1 -50 0 -53 22 -50 31 4 38 57 8 65 -11 3 -22 12 -24 22
-3 9 -5 -8 -6 -37z m34 -17 c0 -10 -6 -20 -12 -22 -8 -3 -13 5 -13 22 0 17 5
25 13 23 6 -3 12 -13 12 -23z"/>
<path d="M3711 813 c0 -29 3 -53 7 -53 4 0 6 17 4 38 -6 64 -10 69 -11 15z"/>
<path d="M4533 810 c0 -30 2 -43 4 -27 2 15 2 39 0 55 -2 15 -4 2 -4 -28z"/>
<path d="M5311 812 c-1 -50 0 -53 22 -50 31 4 38 57 8 65 -11 3 -22 12 -24 22
-3 9 -5 -8 -6 -37z m37 -14 c-5 -32 -28 -35 -28 -4 0 17 5 26 16 26 10 0 14
-7 12 -22z"/>
<path d="M2540 805 c0 -40 2 -45 23 -45 29 0 47 18 47 45 0 27 -18 45 -47 45
-21 0 -23 -5 -23 -45z m55 0 c0 -23 -5 -31 -22 -33 -20 -3 -23 1 -23 33 0 32
3 36 23 33 17 -2 22 -10 22 -33z"/>
<path d="M3501 803 c1 -26 4 -38 6 -26 3 13 13 23 26 25 34 5 29 42 -5 46 -27
3 -28 2 -27 -45z m42 22 c1 -5 -6 -11 -15 -13 -11 -2 -18 3 -18 13 0 17 30 18
33 0z"/>
<path d="M3840 805 c0 -45 1 -46 28 -43 24 3 27 7 27 43 0 36 -3 40 -27 43
-27 3 -28 2 -28 -43z m43 20 c1 -5 -6 -11 -15 -13 -11 -2 -18 3 -18 13 0 17
30 18 33 0z m5 -37 c-7 -19 -38 -22 -38 -4 0 10 9 16 21 16 12 0 19 -5 17 -12z"/>
<path d="M4357 829 c-4 -13 -6 -35 -6 -49 1 -19 3 -16 8 10 l7 35 16 -30 16
-30 13 30 12 30 7 -35 7 -35 2 42 c1 52 -13 63 -30 22 l-12 -31 -17 32 c-17
32 -17 32 -23 9z"/>
<path d="M4740 806 c0 -38 3 -46 18 -46 29 0 40 18 33 53 -5 23 -13 33 -29 35
-20 3 -22 -1 -22 -42z m40 19 c0 -8 -7 -15 -15 -15 -8 0 -15 7 -15 15 0 8 7
15 15 15 8 0 15 -7 15 -15z m3 -40 c1 -5 -6 -11 -15 -13 -11 -2 -18 3 -18 13
0 17 30 18 33 0z"/>
<path d="M5191 803 c1 -27 4 -38 6 -26 2 12 12 24 21 26 15 4 15 5 0 6 -26 2
-22 29 5 34 19 4 18 4 -5 6 -27 1 -28 -1 -27 -46z"/>
<path d="M2634 816 c-9 -23 0 -51 16 -52 9 0 10 1 3 3 -21 7 -15 23 8 23 14 0
19 5 17 17 -4 23 -36 29 -44 9z m36 -6 c0 -5 -7 -10 -15 -10 -8 0 -15 5 -15
10 0 6 7 10 15 10 8 0 15 -4 15 -10z"/>
<path d="M2700 811 c0 -10 8 -22 18 -26 16 -7 15 -8 -3 -15 -16 -7 -17 -9 -3
-9 26 -1 33 20 12 36 -16 12 -17 15 -4 23 13 8 12 10 -2 10 -11 0 -18 -8 -18
-19z"/>
<path d="M2774 817 c18 -13 18 -14 -4 -20 -27 -7 -22 -31 9 -35 20 -3 22 0 19
30 -2 24 -9 34 -23 36 -19 4 -20 3 -1 -11z m16 -37 c0 -5 -7 -10 -15 -10 -8 0
-15 5 -15 10 0 6 7 10 15 10 8 0 15 -4 15 -10z"/>
<path d="M2821 793 c2 -35 2 -35 6 -8 3 16 10 33 16 37 8 5 6 8 -5 8 -14 0
-18 -8 -17 -37z"/>
<path d="M2864 816 c-3 -8 -4 -25 -1 -38 3 -18 5 -16 6 9 1 21 7 33 19 36 16
4 16 5 -1 6 -10 0 -20 -5 -23 -13z"/>
<path d="M2914 816 c-10 -26 0 -51 21 -51 16 0 20 7 20 30 0 33 -30 49 -41 21z
m36 -21 c0 -26 -14 -33 -25 -15 -9 14 1 40 15 40 5 0 10 -11 10 -25z"/>
<path d="M3063 824 c23 -7 22 -20 -4 -27 -27 -7 -20 -31 10 -35 20 -3 22 0 19
30 -2 24 -8 33 -23 35 -16 1 -16 1 -2 -3z m17 -44 c0 -5 -4 -10 -10 -10 -5 0
-10 5 -10 10 0 6 5 10 10 10 6 0 10 -4 10 -10z"/>
<path d="M3184 804 c-8 -29 7 -49 31 -41 22 9 29 35 15 52 -19 23 -39 18 -46
-11z m43 0 c8 -21 -13 -42 -28 -27 -13 13 -5 43 11 43 6 0 13 -7 17 -16z"/>
<path d="M3287 823 c-4 -3 -7 -25 -7 -47 0 -23 4 -36 8 -30 4 6 15 13 25 17 9
4 20 13 23 22 11 27 -29 58 -49 38z m38 -28 c0 -28 -29 -25 -33 3 -3 19 0 23
15 20 10 -2 18 -12 18 -23z"/>
<path d="M3360 815 c-17 -21 -2 -50 26 -50 14 0 19 7 19 30 0 34 -24 45 -45
20z m37 -11 c8 -21 -13 -42 -28 -27 -13 13 -5 43 11 43 6 0 13 -7 17 -16z"/>
<path d="M3431 793 c2 -35 2 -35 6 -8 3 16 10 33 16 37 8 5 6 8 -5 8 -14 0
-18 -8 -17 -37z"/>
<path d="M3594 817 c18 -13 18 -14 -4 -20 -27 -7 -22 -31 9 -35 20 -3 22 0 19
30 -2 24 -9 34 -23 36 -19 4 -20 3 -1 -11z m16 -37 c0 -5 -7 -10 -15 -10 -8 0
-15 5 -15 10 0 6 7 10 15 10 8 0 15 -4 15 -10z"/>
<path d="M3744 816 c-10 -26 0 -51 21 -51 16 0 20 7 20 30 0 33 -30 49 -41 21z
m36 -21 c0 -26 -14 -33 -25 -15 -9 14 1 40 15 40 5 0 10 -11 10 -25z"/>
<path d="M3933 823 c21 -6 22 -19 2 -27 -22 -8 -18 -36 5 -36 16 0 20 7 20 35
0 30 -3 35 -22 34 -17 -1 -19 -2 -5 -6z m17 -43 c0 -5 -4 -10 -10 -10 -5 0
-10 5 -10 10 0 6 5 10 10 10 6 0 10 -4 10 -10z"/>
<path d="M3984 816 c-3 -8 -4 -25 -1 -38 3 -18 5 -16 6 9 1 21 7 33 19 36 16
4 16 5 -1 6 -10 0 -20 -5 -23 -13z"/>
<path d="M4031 793 c2 -35 2 -35 6 -8 3 16 10 33 16 37 8 5 6 8 -5 8 -14 0
-18 -8 -17 -37z"/>
<path d="M4084 816 c-9 -23 0 -51 16 -52 9 0 10 1 3 3 -21 7 -15 23 8 23 14 0
19 5 17 17 -4 23 -36 29 -44 9z m31 -6 c3 -5 -1 -10 -9 -10 -9 0 -16 5 -16 10
0 6 4 10 9 10 6 0 13 -4 16 -10z"/>
<path d="M4153 795 c0 -22 2 -30 4 -17 2 12 2 30 0 40 -3 9 -5 -1 -4 -23z"/>
<path d="M4181 793 c2 -35 2 -35 6 -8 3 16 10 33 16 37 8 5 6 8 -5 8 -14 0
-18 -8 -17 -37z"/>
<path d="M4224 804 c-8 -29 7 -49 31 -41 22 9 29 35 15 52 -19 23 -39 18 -46
-11z m43 0 c8 -21 -13 -42 -28 -27 -13 13 -5 43 11 43 6 0 13 -7 17 -16z"/>
<path d="M4464 816 c-9 -23 0 -51 16 -52 9 0 10 1 3 3 -21 7 -15 23 8 23 14 0
19 5 17 17 -4 23 -36 29 -44 9z m31 -6 c3 -5 -1 -10 -9 -10 -9 0 -16 5 -16 10
0 6 4 10 9 10 6 0 13 -4 16 -10z"/>
<path d="M4563 795 c0 -22 2 -30 4 -17 2 12 2 30 0 40 -3 9 -5 -1 -4 -23z"/>
<path d="M4590 815 c0 -9 7 -18 15 -21 20 -8 19 -21 -2 -27 -16 -4 -16 -5 -1
-6 26 -2 33 20 12 36 -16 12 -17 15 -4 23 13 8 12 10 -2 10 -10 0 -18 -7 -18
-15z"/>
<path d="M4663 824 c23 -7 22 -20 -4 -27 -27 -7 -20 -31 10 -35 20 -3 22 0 19
30 -2 24 -8 33 -23 35 -16 1 -16 1 -2 -3z m17 -44 c0 -5 -7 -10 -15 -10 -8 0
-15 5 -15 10 0 6 7 10 15 10 8 0 15 -4 15 -10z"/>
<path d="M4811 813 c-2 -33 9 -53 30 -53 16 0 19 7 17 38 l-1 37 -4 -33 c-5
-40 -25 -38 -34 4 -5 22 -7 24 -8 7z"/>
<path d="M4884 816 c-3 -8 -4 -25 -1 -38 3 -18 5 -16 6 9 1 21 7 33 19 36 16
4 16 5 -1 6 -10 0 -20 -5 -23 -13z"/>
<path d="M4937 823 c-4 -3 -7 -17 -7 -31 0 -16 7 -26 23 -30 22 -6 22 -6 -3
-13 l-25 -8 25 2 c22 2 25 7 28 45 3 36 0 42 -16 42 -10 0 -22 -3 -25 -7z m33
-28 c0 -16 -6 -25 -15 -25 -15 0 -21 31 -8 43 13 14 23 6 23 -18z"/>
<path d="M5004 816 c-10 -26 0 -51 21 -51 16 0 20 7 20 30 0 33 -30 49 -41 21z
m36 -21 c0 -26 -14 -33 -25 -15 -9 14 1 40 15 40 5 0 10 -11 10 -25z"/>
<path d="M5074 818 c-4 -6 0 -16 9 -23 22 -16 21 -22 0 -28 -16 -4 -16 -5 -1
-6 24 -2 34 20 15 34 -22 16 -21 22 1 28 15 4 15 5 0 6 -9 0 -20 -4 -24 -11z"/>
<path d="M5263 824 c23 -7 22 -20 -4 -27 -27 -7 -20 -31 10 -35 20 -3 22 0 19
30 -2 24 -8 33 -23 35 -16 1 -16 1 -2 -3z m17 -44 c0 -5 -7 -10 -15 -10 -8 0
-15 5 -15 10 0 6 7 10 15 10 8 0 15 -4 15 -10z"/>
<path d="M5383 795 c0 -22 2 -30 4 -17 2 12 2 30 0 40 -3 9 -5 -1 -4 -23z"/>
<path d="M5423 823 c21 -6 22 -19 2 -27 -22 -8 -18 -36 5 -36 16 0 20 7 20 35
0 30 -3 35 -22 34 -17 -1 -19 -2 -5 -6z m17 -43 c0 -5 -4 -10 -10 -10 -5 0
-10 5 -10 10 0 6 5 10 10 10 6 0 10 -4 10 -10z"/>
<path d="M5474 816 c-3 -8 -4 -25 -1 -38 3 -17 5 -15 6 10 1 20 6 32 15 32 9
0 17 -13 19 -32 l5 -33 -2 35 c-1 25 -6 36 -19 38 -9 2 -20 -3 -23 -12z"/>
<path d="M4296 763 c-6 -14 -5 -15 5 -6 7 7 10 15 7 18 -3 3 -9 -2 -12 -12z"/>
<path d="M5131 764 c0 -11 3 -14 6 -6 3 7 2 16 -1 19 -3 4 -6 -2 -5 -13z"/>
<path d="M3997 673 c-4 -3 -6 -27 -5 -52 1 -37 2 -39 5 -13 2 17 10 32 16 32
7 0 6 4 -3 10 -13 9 -13 11 0 20 8 5 10 10 4 10 -6 0 -14 -3 -17 -7z"/>
<path d="M2972 628 c-2 -46 -1 -48 26 -47 22 1 23 2 5 6 -18 3 -23 13 -26 46
l-4 42 -1 -47z"/>
<path d="M3359 628 c-2 -25 -1 -44 4 -41 4 2 7 16 8 31 0 27 0 27 11 5 6 -13
15 -23 19 -23 4 0 11 10 15 23 7 20 9 19 15 -13 6 -33 6 -33 8 13 1 50 -13 64
-23 22 -6 -23 -26 -36 -26 -17 0 5 -6 17 -14 27 -12 17 -14 15 -17 -27z"/>
<path d="M3522 630 c2 -36 7 -45 23 -48 18 -2 18 -2 3 8 -10 6 -18 20 -18 30
0 12 7 20 18 21 13 0 14 2 2 6 -8 3 -18 11 -23 17 -4 6 -6 -9 -5 -34z"/>
<path d="M3752 625 c1 -46 1 -47 7 -15 l7 35 20 -32 c10 -18 22 -33 27 -33 4
0 6 21 6 48 -1 29 -4 36 -6 20 -2 -16 -7 -28 -11 -28 -3 0 -16 12 -29 28 l-22
27 1 -50z"/>
<path d="M4150 625 c0 -45 1 -46 28 -43 24 3 27 7 27 43 0 36 -3 40 -27 43
-27 3 -28 2 -28 -43z m43 20 c1 -5 -6 -11 -15 -13 -11 -2 -18 3 -18 13 0 17
30 18 33 0z m5 -37 c-7 -19 -38 -22 -38 -4 0 10 9 16 21 16 12 0 19 -5 17 -12z"/>
<path d="M4694 657 c-3 -9 -4 -28 -2 -44 2 -22 8 -28 28 -28 23 0 25 4 25 40
0 34 -3 40 -23 43 -13 2 -24 -3 -28 -11z m44 -14 c2 -8 -5 -13 -17 -13 -12 0
-21 6 -21 16 0 18 31 15 38 -3z m2 -38 c0 -8 -9 -15 -20 -15 -11 0 -20 7 -20
15 0 8 9 15 20 15 11 0 20 -7 20 -15z"/>
<path d="M3034 636 c-10 -26 0 -51 21 -51 16 0 20 7 20 30 0 33 -30 49 -41 21z
m31 -21 c0 -10 -6 -20 -12 -22 -8 -3 -13 5 -13 22 0 17 5 25 13 23 6 -3 12
-13 12 -23z"/>
<path d="M3101 603 c0 -27 3 -42 6 -35 2 6 11 12 18 12 8 0 19 8 24 18 12 23
-4 52 -29 52 -17 0 -20 -7 -19 -47z m39 12 c0 -16 -6 -25 -15 -25 -9 0 -15 9
-15 25 0 16 6 25 15 25 9 0 15 -9 15 -25z"/>
<path d="M3174 636 c-9 -23 0 -51 16 -52 9 0 10 1 3 3 -21 7 -15 23 8 23 14 0
19 5 17 17 -4 23 -36 29 -44 9z m36 -6 c0 -5 -7 -10 -15 -10 -8 0 -15 5 -15
10 0 6 7 10 15 10 8 0 15 -4 15 -10z"/>
<path d="M3243 643 c21 -6 21 -8 1 -38 -16 -25 -16 -25 12 -24 17 1 22 3 12 6
-22 6 -22 8 -2 38 16 25 16 25 -12 24 -17 -1 -22 -3 -11 -6z"/>
<path d="M3473 643 c21 -6 22 -19 2 -27 -22 -8 -18 -36 5 -36 16 0 20 7 20 35
0 30 -3 35 -22 34 -17 -1 -19 -2 -5 -6z m17 -43 c0 -5 -4 -10 -10 -10 -5 0
-10 5 -10 10 0 6 5 10 10 10 6 0 10 -4 10 -10z"/>
<path d="M3573 615 c0 -22 2 -30 4 -17 2 12 2 30 0 40 -3 9 -5 -1 -4 -23z"/>
<path d="M3624 637 c18 -13 18 -14 -4 -20 -27 -7 -22 -31 9 -35 20 -3 22 0 19
30 -2 24 -9 34 -23 36 -19 4 -20 3 -1 -11z m16 -37 c0 -5 -7 -10 -15 -10 -8 0
-15 5 -15 10 0 6 7 10 15 10 8 0 15 -4 15 -10z"/>
<path d="M3670 631 c0 -10 8 -22 18 -26 16 -7 15 -8 -3 -15 -16 -7 -17 -9 -3
-9 26 -1 33 20 12 36 -16 12 -17 15 -4 23 13 8 12 10 -2 10 -11 0 -18 -8 -18
-19z"/>
<path d="M3853 644 c23 -7 22 -20 -4 -27 -27 -7 -20 -31 10 -35 20 -3 22 0 19
30 -2 24 -8 33 -23 35 -16 1 -16 1 -2 -3z m17 -44 c0 -5 -4 -10 -10 -10 -5 0
-10 5 -10 10 0 6 5 10 10 10 6 0 10 -4 10 -10z"/>
<path d="M3900 635 c0 -9 7 -18 15 -21 20 -8 19 -21 -2 -27 -16 -4 -16 -5 -1
-6 26 -2 33 20 12 36 -16 12 -17 15 -4 23 13 8 12 10 -2 10 -10 0 -18 -7 -18
-15z"/>
<path d="M3963 615 c0 -22 2 -30 4 -17 2 12 2 30 0 40 -3 9 -5 -1 -4 -23z"/>
<path d="M4064 615 c13 -31 13 -36 -2 -45 -9 -5 -12 -10 -6 -10 21 0 39 29 26
42 -7 7 -12 20 -12 30 0 10 -5 18 -10 18 -6 0 -4 -14 4 -35z"/>
<path d="M4093 635 c-3 -9 -3 -18 -1 -21 3 -3 8 4 11 16 6 23 -1 27 -10 5z"/>
<path d="M4234 636 c-9 -23 0 -51 16 -52 9 0 10 1 3 3 -21 7 -15 23 8 23 14 0
19 5 17 17 -4 23 -36 29 -44 9z m31 -6 c3 -5 -1 -10 -9 -10 -9 0 -16 5 -16 10
0 6 4 10 9 10 6 0 13 -4 16 -10z"/>
<path d="M4302 613 c1 -37 1 -37 5 -5 2 17 8 32 13 32 5 0 14 -15 19 -32 7
-24 9 -27 10 -11 2 34 -9 53 -30 53 -16 0 -19 -7 -17 -37z"/>
<path d="M4371 620 c0 -20 -6 -41 -13 -48 -9 -9 -9 -12 0 -12 14 0 25 40 19
71 -3 17 -5 14 -6 -11z"/>
<path d="M4413 644 c23 -7 22 -20 -4 -27 -27 -7 -20 -31 10 -35 20 -3 22 0 19
30 -2 24 -8 33 -23 35 -16 1 -16 1 -2 -3z m17 -44 c0 -5 -7 -10 -15 -10 -8 0
-15 5 -15 10 0 6 7 10 15 10 8 0 15 -4 15 -10z"/>
<path d="M4462 612 l1 -37 4 33 c5 40 25 38 34 -4 l7 -29 1 33 c0 17 5 32 11
32 5 0 14 -15 19 -32 8 -29 9 -30 10 -8 1 37 -10 47 -51 48 -38 1 -38 1 -36
-36z"/>
<path d="M4573 615 c0 -22 2 -30 4 -17 2 12 2 30 0 40 -3 9 -5 -1 -4 -23z"/>
<path d="M4602 613 c1 -37 1 -37 5 -5 2 17 8 32 13 32 5 0 14 -15 19 -32 7
-24 9 -27 10 -11 2 34 -9 53 -30 53 -16 0 -19 -7 -17 -37z"/>
<path d="M4774 636 c-9 -23 0 -51 16 -52 9 0 10 1 3 3 -21 7 -15 23 8 23 14 0
19 5 17 17 -4 23 -36 29 -44 9z m36 -6 c0 -5 -7 -10 -15 -10 -8 0 -15 5 -15
10 0 6 7 10 15 10 8 0 15 -4 15 -10z"/>
<path d="M4844 636 c-10 -25 0 -51 21 -54 18 -2 19 -2 3 8 -10 6 -18 17 -18
25 0 8 8 19 18 24 16 10 16 10 -1 11 -10 0 -20 -6 -23 -14z"/>
<path d="M4899 634 c-16 -19 -1 -48 27 -51 13 -2 11 1 -6 9 l-25 12 28 4 c29
4 33 12 15 30 -16 16 -23 15 -39 -4z m36 -4 c3 -5 -3 -10 -15 -10 -12 0 -18 5
-15 10 3 6 10 10 15 10 5 0 12 -4 15 -10z"/>
<path d="M4964 636 c-3 -8 -4 -25 -1 -38 3 -18 5 -16 6 9 1 21 7 33 19 36 16
4 16 5 -1 6 -10 0 -20 -5 -23 -13z"/>
<path d="M5011 613 c2 -35 2 -35 6 -8 3 16 10 33 16 37 8 5 6 8 -5 8 -14 0
-18 -8 -17 -37z"/>
<path d="M5073 644 c23 -7 22 -20 -4 -27 -27 -7 -20 -31 10 -35 20 -3 22 0 19
30 -2 24 -8 33 -23 35 -16 1 -16 1 -2 -3z m17 -44 c0 -5 -4 -10 -10 -10 -5 0
-10 5 -10 10 0 6 5 10 10 10 6 0 10 -4 10 -10z"/>
<path d="M3296 583 c-6 -14 -5 -15 5 -6 7 7 10 15 7 18 -3 3 -9 -2 -12 -12z"/>
<path d="M3290 365 c-7 -9 -10 -18 -6 -22 3 -3 6 -1 6 6 0 6 10 16 23 21 15 6
17 9 6 9 -9 1 -22 -6 -29 -14z"/>
<path d="M3851 338 c0 -26 3 -49 7 -52 4 -2 6 12 4 32 -6 62 -10 69 -11 20z"/>
<path d="M3893 330 c0 -30 2 -43 4 -27 2 15 2 39 0 55 -2 15 -4 2 -4 -28z"/>
<path d="M4093 330 c0 -31 2 -41 4 -22 3 18 10 32 18 32 8 0 15 -14 18 -32 l4
-33 1 33 c2 26 -3 35 -17 39 -11 3 -22 12 -24 22 -3 9 -4 -9 -4 -39z"/>
<path d="M4750 366 c0 -7 -9 -16 -21 -19 -30 -8 -23 -61 9 -65 20 -3 22 0 22
47 0 28 -2 51 -5 51 -3 0 -5 -6 -5 -14z m0 -51 c0 -16 -6 -25 -15 -25 -9 0
-15 9 -15 25 0 16 6 25 15 25 9 0 15 -9 15 -25z"/>
<path d="M3345 330 c0 -34 1 -38 9 -21 5 13 5 29 0 42 -8 17 -9 13 -9 -21z"/>
<path d="M3426 356 c19 -14 19 -15 -3 -38 -30 -32 -29 -38 5 -37 24 2 25 2 4
6 l-24 5 22 23 c25 26 21 55 -7 55 -15 0 -15 -2 3 -14z"/>
<path d="M3474 346 c-8 -34 4 -68 24 -64 24 5 24 81 0 86 -12 2 -19 -5 -24
-22z m36 -22 c0 -24 -4 -34 -12 -32 -24 8 -22 68 2 68 5 0 10 -16 10 -36z"/>
<path d="M3545 360 c-3 -5 0 -7 8 -4 25 9 28 -12 7 -39 -26 -33 -25 -37 8 -36
23 2 24 2 4 6 l-22 4 19 25 c11 14 17 32 14 40 -6 16 -29 19 -38 4z"/>
<path d="M3615 360 c-3 -5 0 -7 8 -4 25 9 28 -12 7 -39 -26 -33 -25 -37 8 -36
23 2 24 2 4 6 l-22 4 19 25 c11 14 17 32 14 40 -6 16 -29 19 -38 4z"/>
<path d="M3778 325 c-10 -25 -13 -45 -8 -45 6 0 10 5 10 10 0 14 33 13 48 -2
8 -8 7 5 -4 35 -9 26 -19 47 -23 47 -4 0 -14 -20 -23 -45z m32 0 c0 -8 -4 -15
-10 -15 -5 0 -10 7 -10 15 0 8 5 15 10 15 6 0 10 -7 10 -15z"/>
<path d="M4162 330 c2 -36 7 -45 23 -48 18 -2 18 -2 3 8 -10 6 -18 20 -18 30
0 12 7 20 18 21 13 0 14 2 2 6 -8 3 -18 11 -23 17 -4 6 -6 -9 -5 -34z"/>
<path d="M3305 350 c-3 -6 1 -7 9 -4 18 7 21 14 7 14 -6 0 -13 -4 -16 -10z"/>
<path d="M3951 313 c2 -35 2 -35 6 -8 3 16 10 33 16 37 8 5 6 8 -5 8 -14 0
-18 -8 -17 -37z"/>
<path d="M3993 315 c0 -22 2 -30 4 -17 2 12 2 30 0 40 -3 9 -5 -1 -4 -23z"/>
<path d="M4024 326 c-7 -30 1 -46 24 -47 14 0 13 -2 -3 -10 l-20 -9 20 3 c16
2 21 11 23 45 3 37 1 42 -17 42 -14 0 -23 -9 -27 -24z m36 -11 c0 -26 -14 -33
-25 -15 -9 14 1 40 15 40 5 0 10 -11 10 -25z"/>
<path d="M4214 338 c-4 -6 0 -16 9 -23 22 -16 21 -22 0 -28 -16 -4 -16 -5 -1
-6 24 -2 34 20 15 34 -22 16 -21 22 1 28 15 4 15 5 0 6 -9 0 -20 -4 -24 -11z"/>
<path d="M4301 313 c2 -35 2 -35 6 -8 3 16 10 33 16 37 8 5 6 8 -5 8 -14 0
-18 -8 -17 -37z"/>
<path d="M4344 336 c-9 -23 0 -51 16 -52 9 0 10 1 3 3 -21 7 -15 23 8 23 14 0
19 5 17 17 -4 23 -36 29 -44 9z m36 -6 c0 -5 -7 -10 -15 -10 -8 0 -15 5 -15
10 0 6 7 10 15 10 8 0 15 -4 15 -10z"/>
<path d="M4410 335 c0 -9 7 -18 15 -21 20 -8 19 -21 -2 -27 -16 -4 -16 -5 -1
-6 26 -2 33 20 12 36 -16 12 -17 15 -4 23 13 8 12 10 -2 10 -10 0 -18 -7 -18
-15z"/>
<path d="M4464 336 c-11 -28 0 -51 26 -53 l25 -3 -25 12 -25 11 23 5 c15 2 22
9 20 20 -4 22 -36 28 -44 8z m36 -6 c0 -5 -7 -10 -16 -10 -8 0 -12 5 -9 10 3
6 10 10 16 10 5 0 9 -4 9 -10z"/>
<path d="M4534 336 c-3 -8 -4 -25 -1 -38 3 -17 5 -15 6 10 1 44 36 46 46 2 4
-16 11 -30 16 -30 5 0 9 1 9 3 0 1 4 18 10 36 5 19 6 30 1 25 -5 -5 -11 -18
-13 -29 -4 -18 -6 -17 -16 8 -12 29 -49 38 -58 13z"/>
<path d="M4644 336 c-9 -23 0 -51 16 -52 9 0 10 1 3 3 -21 7 -15 23 8 23 14 0
19 5 17 17 -4 23 -36 29 -44 9z m36 -6 c0 -5 -7 -10 -15 -10 -8 0 -15 5 -15
10 0 6 7 10 15 10 8 0 15 -4 15 -10z"/>
<path d="M3708 323 c7 -3 16 -2 19 1 4 3 -2 6 -13 5 -11 0 -14 -3 -6 -6z"/>
<path d="M3280 314 c0 -17 27 -37 42 -31 8 4 7 6 -4 6 -9 1 -22 9 -27 19 -6 9
-11 12 -11 6z"/>
<path d="M3307 309 c7 -7 15 -10 18 -7 3 3 -2 9 -12 12 -14 6 -15 5 -6 -5z"/>
</g>
</svg>
