<?xml version="1.0" standalone="no"?>
<!DOCTYPE svg PUBLIC "-//W3C//DTD SVG 20010904//EN"
 "http://www.w3.org/TR/2001/REC-SVG-20010904/DTD/svg10.dtd">
<svg version="1.0" xmlns="http://www.w3.org/2000/svg"
 width="1352.000000pt" height="758.000000pt" viewBox="0 0 1352.000000 758.000000"
 preserveAspectRatio="xMidYMid meet">

<g transform="translate(0.000000,758.000000) scale(0.100000,-0.100000)"
fill="#000000" stroke="none">
<path d="M1262 7523 c49 -2 127 -2 176 0 48 1 8 3 -88 3 -96 0 -136 -2 -88 -3z"/>
<path d="M1144 7340 c0 -85 2 -120 3 -77 2 42 2 112 0 155 -1 42 -3 7 -3 -78z"/>
<path d="M1554 7340 c0 -85 2 -120 3 -77 2 42 2 112 0 155 -1 42 -3 7 -3 -78z"/>
<path d="M3014 7416 c-42 -19 -61 -65 -43 -107 15 -39 60 -59 129 -59 69 0
114 20 129 59 18 43 -1 89 -45 107 -42 18 -129 17 -170 0z m85 -32 c12 -15 21
-34 21 -44 0 -10 -9 -29 -21 -44 -40 -50 -119 -21 -119 44 0 65 79 94 119 44z
m101 6 c11 -11 20 -33 20 -50 0 -43 -31 -70 -82 -70 -39 0 -40 1 -25 18 10 10
17 34 17 52 0 18 -7 42 -17 52 -15 17 -14 18 25 18 29 0 48 -6 62 -20z"/>
<path d="M1862 7401 c-9 -26 -2 -121 9 -121 5 0 9 20 9 45 0 29 4 45 13 45 8
0 8 3 -2 9 -12 8 -12 12 -2 25 11 14 11 16 -3 16 -9 0 -20 -9 -24 -19z"/>
<path d="M3623 7365 c0 -33 2 -45 4 -27 2 18 2 45 0 60 -2 15 -4 0 -4 -33z"/>
<path d="M3693 7365 c0 -33 2 -45 4 -27 2 18 2 45 0 60 -2 15 -4 0 -4 -33z"/>
<path d="M4240 7410 c0 -5 5 -10 11 -10 5 0 7 5 4 10 -3 6 -8 10 -11 10 -2 0
-4 -4 -4 -10z"/>
<path d="M5258 7413 c7 -3 16 -2 19 1 4 3 -2 6 -13 5 -11 0 -14 -3 -6 -6z"/>
<path d="M1746 7397 c-13 -10 -17 -24 -14 -57 3 -39 7 -46 32 -55 24 -8 31 -6
47 14 23 28 24 59 3 89 -17 25 -42 28 -68 9z m59 -52 c0 -36 -3 -40 -27 -43
-30 -4 -44 23 -34 64 5 20 12 25 34 22 24 -3 27 -7 27 -43z"/>
<path d="M2055 7400 c3 -5 8 -10 11 -10 2 0 4 5 4 10 0 6 -5 10 -11 10 -5 0
-7 -4 -4 -10z"/>
<path d="M5225 7399 c-4 -6 -5 -12 -2 -15 2 -3 7 2 10 11 7 17 1 20 -8 4z"/>
<path d="M5296 7397 c3 -10 9 -15 12 -12 3 3 0 11 -7 18 -10 9 -11 8 -5 -6z"/>
<path d="M3320 7380 c-11 -11 -20 -29 -20 -40 0 -26 34 -60 60 -60 21 0 60 33
60 51 0 6 -8 8 -19 4 -25 -8 -54 21 -46 46 8 25 -10 24 -35 -1z m60 -55 c17
-5 19 -10 9 -21 -15 -19 -38 -18 -61 3 -21 19 -23 44 -6 61 10 10 15 7 25 -12
7 -14 22 -28 33 -31z"/>
<path d="M3735 7379 c-4 -6 -5 -12 -2 -15 2 -3 7 2 10 11 7 17 1 20 -8 4z"/>
<path d="M3867 7373 c3 -7 6 -13 8 -13 2 0 5 6 8 13 3 8 -1 14 -8 14 -7 0 -11
-6 -8 -14z"/>
<path d="M3920 7347 c4 -41 5 -41 8 -8 2 18 0 37 -5 42 -5 5 -6 -11 -3 -34z"/>
<path d="M4323 7350 c0 -25 2 -35 4 -22 2 12 2 32 0 45 -2 12 -4 2 -4 -23z"/>
<path d="M4684 7379 c-3 -6 -2 -15 3 -20 5 -5 9 -1 9 11 0 23 -2 24 -12 9z"/>
<path d="M5095 7379 c-11 -16 -1 -19 13 -3 7 8 8 14 3 14 -5 0 -13 -5 -16 -11z"/>
<path d="M1923 7330 c0 -30 2 -43 4 -27 2 15 2 39 0 55 -2 15 -4 2 -4 -28z"/>
<path d="M1966 7364 c-9 -8 -16 -24 -16 -34 0 -19 25 -50 40 -50 17 0 40 12
40 21 0 6 -8 6 -18 0 -33 -18 -58 29 -30 57 9 9 16 8 30 -5 16 -14 18 -14 18
-1 0 15 -19 28 -40 28 -5 0 -16 -7 -24 -16z"/>
<path d="M2050 7330 c0 -27 5 -50 10 -50 6 0 10 23 10 50 0 28 -4 50 -10 50
-5 0 -10 -22 -10 -50z"/>
<path d="M2090 7329 c0 -60 18 -65 22 -6 2 29 8 42 18 42 10 0 16 -13 18 -42
2 -24 8 -43 13 -43 6 0 9 21 7 48 -3 47 -3 47 -40 49 l-38 1 0 -49z"/>
<path d="M2207 7373 c-14 -13 -7 -25 8 -13 8 6 19 9 25 5 16 -10 12 -25 -9
-25 -10 0 -24 -7 -31 -15 -18 -21 3 -44 41 -43 27 1 29 4 29 38 0 20 -5 41
-12 48 -13 13 -41 16 -51 5z m43 -57 c0 -17 -27 -29 -35 -16 -4 6 -3 15 0 20
9 15 35 12 35 -4z"/>
<path d="M2302 7368 c-18 -18 -15 -26 19 -44 22 -11 28 -19 21 -26 -8 -8 -16
-7 -27 2 -8 7 -19 10 -22 6 -11 -10 19 -27 42 -24 12 2 21 12 23 25 3 17 -3
24 -22 29 -14 3 -26 9 -26 13 0 16 14 20 32 10 16 -9 19 -8 16 3 -6 18 -40 22
-56 6z"/>
<path d="M2453 7353 l27 -28 27 28 28 27 -55 0 -55 0 28 -27z"/>
<path d="M2824 7356 c-10 -26 4 -48 28 -44 17 2 23 10 23 28 0 18 -6 26 -23
28 -13 2 -25 -3 -28 -12z m42 -7 c10 -17 -13 -36 -27 -22 -12 12 -4 33 11 33
5 0 12 -5 16 -11z"/>
<path d="M3960 7350 c0 -22 20 -40 45 -39 17 1 17 2 -4 8 -35 9 -37 29 -4 33
28 3 28 3 -4 9 -26 4 -33 2 -33 -11z"/>
<path d="M4250 7352 c-14 -2 -29 -7 -33 -11 -4 -4 7 -6 24 -3 20 3 34 0 40 -9
5 -8 9 -9 9 -4 0 20 -16 30 -40 27z"/>
<path d="M4715 7338 c6 -14 2 -18 -16 -19 -19 -1 -20 -2 -5 -6 25 -7 44 13 27
30 -10 10 -11 9 -6 -5z"/>
<path d="M5220 7341 c0 -6 4 -13 10 -16 6 -3 7 1 4 9 -7 18 -14 21 -14 7z"/>
<path d="M1323 7333 c4 -3 -1 -16 -10 -27 -18 -21 -18 -21 4 -2 20 16 23 36 6
36 -4 0 -3 -3 0 -7z"/>
<path d="M1366 7331 c-3 -4 4 -17 17 -27 22 -19 22 -19 4 2 -9 11 -14 24 -10
27 3 4 4 7 0 7 -3 0 -8 -4 -11 -9z"/>
<path d="M3765 7320 c-16 -7 -17 -9 -3 -9 9 -1 20 4 23 9 7 11 7 11 -20 0z"/>
<path d="M5141 7314 c0 -11 3 -14 6 -6 3 7 2 16 -1 19 -3 4 -6 -2 -5 -13z"/>
<path d="M5358 7318 c6 -6 18 -8 28 -6 14 3 12 5 -9 10 -19 3 -25 2 -19 -4z"/>
<path d="M5447 7319 c7 -7 15 -10 18 -7 3 3 -2 9 -12 12 -14 6 -15 5 -6 -5z"/>
<path d="M4933 7313 c9 -2 23 -2 30 0 6 3 -1 5 -18 5 -16 0 -22 -2 -12 -5z"/>
<path d="M5258 7313 c7 -3 16 -2 19 1 4 3 -2 6 -13 5 -11 0 -14 -3 -6 -6z"/>
<path d="M1262 7153 c49 -2 127 -2 176 0 48 1 8 3 -88 3 -96 0 -136 -2 -88 -3z"/>
<path d="M6390 6400 c0 -54 4 -72 15 -77 21 -7 32 4 17 19 -7 7 -12 38 -12 70
0 32 -4 58 -10 58 -6 0 -10 -30 -10 -70z"/>
<path d="M6970 6455 c0 -9 5 -15 11 -13 6 2 11 8 11 13 0 5 -5 11 -11 13 -6 2
-11 -4 -11 -13z"/>
<path d="M6130 6390 c0 -40 4 -70 10 -70 6 0 10 14 10 30 0 28 3 30 35 30 32
0 35 -2 35 -30 0 -16 5 -30 10 -30 6 0 10 30 10 70 0 68 -15 98 -22 43 -3 -24
-8 -28 -33 -28 -25 0 -30 4 -33 28 -7 55 -22 25 -22 -43z"/>
<path d="M6615 6448 c-2 -7 -5 -39 -8 -70 -3 -43 0 -58 9 -58 8 0 14 17 16 48
l3 47 17 -37 c9 -21 21 -38 26 -38 4 0 17 17 28 38 l19 37 3 -47 c4 -68 22
-60 22 10 0 90 -26 109 -50 37 -6 -19 -15 -35 -19 -35 -4 0 -16 18 -26 40 -18
40 -32 50 -40 28z"/>
<path d="M7274 6445 c-9 -22 5 -87 17 -80 12 8 12 95 -1 95 -6 0 -13 -7 -16
-15z"/>
<path d="M6892 6388 c3 -60 4 -63 31 -66 15 -2 27 1 27 7 0 6 -9 11 -20 11
-30 0 -28 55 3 65 l22 8 -22 4 c-13 2 -23 11 -23 19 0 8 -5 14 -10 14 -7 0
-10 -24 -8 -62z"/>
<path d="M6292 6414 c-24 -17 -30 -62 -10 -82 29 -29 88 -2 88 39 0 19 -33 59
-48 59 -4 0 -18 -7 -30 -16z m43 -40 c0 -22 -5 -29 -20 -29 -23 0 -32 30 -14
51 18 22 34 11 34 -22z"/>
<path d="M6466 6421 c-3 -5 3 -11 14 -14 25 -7 26 -27 1 -27 -10 0 -24 -7 -31
-15 -19 -22 5 -45 46 -45 33 0 34 1 34 39 0 40 -20 71 -45 71 -8 0 -16 -4 -19
-9z m42 -69 c2 -7 -6 -12 -17 -12 -21 0 -27 11 -14 24 9 9 26 2 31 -12z"/>
<path d="M6796 6421 c-3 -5 3 -11 14 -14 25 -7 26 -27 1 -27 -10 0 -24 -7 -31
-15 -19 -22 5 -45 46 -45 33 0 34 1 34 39 0 40 -20 71 -45 71 -8 0 -16 -4 -19
-9z m42 -69 c2 -7 -6 -12 -17 -12 -21 0 -27 11 -14 24 9 9 26 2 31 -12z"/>
<path d="M7035 6421 c-3 -5 5 -11 17 -13 31 -4 35 -28 4 -28 -30 0 -40 -13
-31 -40 5 -15 15 -20 41 -20 l34 0 0 49 c0 35 -4 51 -16 55 -23 9 -42 7 -49
-3z m45 -66 c0 -8 -7 -15 -15 -15 -8 0 -15 7 -15 15 0 8 7 15 15 15 8 0 15 -7
15 -15z"/>
<path d="M7142 6418 c-18 -18 -15 -30 16 -55 l27 -22 -27 -1 c-16 0 -28 -5
-28 -11 0 -6 14 -9 33 -7 42 4 50 39 12 56 -27 12 -26 32 1 32 8 0 12 5 9 10
-8 14 -28 13 -43 -2z"/>
<path d="M6970 6370 c0 -27 5 -50 10 -50 6 0 10 23 10 50 0 28 -4 50 -10 50
-5 0 -10 -22 -10 -50z"/>
<path d="M7277 6343 c-12 -11 -8 -23 8 -23 8 0 15 7 15 15 0 16 -12 20 -23 8z"/>
<path d="M4994 6106 c-9 -24 4 -48 23 -44 12 2 18 12 18 28 0 29 -32 41 -41
16z"/>
<path d="M6230 6105 c-18 -21 -5 -47 22 -43 26 3 37 36 16 49 -18 12 -24 11
-38 -6z"/>
<path d="M6470 6070 l0 -50 -45 0 c-67 0 -95 -31 -95 -103 0 -46 4 -59 27 -81
24 -24 33 -27 87 -24 l61 3 3 153 c2 147 2 152 -18 152 -17 0 -20 -6 -20 -50z
m-2 -157 l3 -63 -34 0 c-42 0 -61 21 -61 65 0 45 20 67 58 63 31 -3 31 -4 34
-65z"/>
<path d="M4734 6077 c-2 -7 -3 -69 -2 -138 l3 -124 77 0 c67 0 80 3 102 24 32
30 35 80 6 106 -18 16 -18 19 -3 41 23 35 10 72 -32 90 -44 18 -144 19 -151 1z
m132 -41 c30 -23 7 -50 -45 -54 -41 -3 -41 -3 -41 32 0 34 2 36 33 36 18 0 42
-6 53 -14z m9 -109 c13 -10 16 -21 12 -39 -7 -26 -30 -38 -79 -38 -26 0 -28 3
-28 45 l0 45 38 0 c21 0 46 -6 57 -13z"/>
<path d="M7220 5950 l0 -140 25 0 c24 0 25 2 25 65 l0 66 58 -3 57 -3 3 -62
c3 -59 4 -63 27 -63 l25 0 0 140 0 140 -25 0 c-24 0 -25 -3 -25 -55 l0 -55
-60 0 -60 0 0 55 c0 52 -1 55 -25 55 l-25 0 0 -140z"/>
<path d="M4990 5915 l0 -105 25 0 25 0 0 105 0 105 -25 0 -25 0 0 -105z"/>
<path d="M5123 5996 c-25 -21 -28 -31 -28 -81 0 -50 3 -60 28 -81 22 -19 39
-24 83 -24 49 0 54 2 54 23 0 20 -4 22 -43 19 -31 -3 -49 1 -60 13 -29 28 -19
35 48 35 48 0 67 4 71 15 9 22 -15 84 -36 95 -34 18 -87 12 -117 -14z m97 -20
c0 -2 3 -11 6 -20 5 -13 -2 -16 -40 -16 -47 0 -55 7 -34 28 11 11 68 18 68 8z"/>
<path d="M5337 6013 c-4 -3 -7 -51 -7 -105 0 -98 0 -98 25 -98 25 0 25 1 25
85 l0 85 30 0 c38 0 50 -27 50 -111 0 -52 2 -59 20 -59 18 0 20 7 20 85 0 109
-13 125 -98 125 -32 0 -62 -3 -65 -7z"/>
<path d="M5544 5990 c3 -17 20 -64 37 -105 25 -61 35 -75 53 -75 18 0 28 15
59 94 20 52 37 99 37 105 0 6 -11 11 -24 11 -20 0 -25 -7 -34 -43 -6 -24 -18
-58 -26 -77 l-14 -35 -24 78 c-20 68 -26 77 -47 77 -21 0 -23 -3 -17 -30z"/>
<path d="M5793 6005 c-33 -23 -48 -79 -34 -126 15 -51 44 -69 108 -69 55 0 64
5 54 30 -4 10 -20 15 -50 15 -34 0 -47 5 -58 23 l-15 22 72 0 73 0 -6 42 c-4
27 -14 49 -27 60 -27 22 -88 23 -117 3z m95 -47 c3 -15 -4 -18 -43 -18 -43 0
-45 1 -35 21 14 26 73 24 78 -3z"/>
<path d="M5997 6013 c-4 -3 -7 -51 -7 -105 0 -98 0 -98 25 -98 25 0 25 1 25
85 l0 85 30 0 c39 0 50 -23 50 -104 0 -64 1 -66 25 -66 24 0 25 3 25 58 0 73
-16 129 -40 142 -21 11 -123 14 -133 3z"/>
<path d="M6230 5915 c0 -98 1 -105 20 -105 19 0 20 7 20 105 0 98 -1 105 -20
105 -19 0 -20 -7 -20 -105z"/>
<path d="M6603 6005 c-33 -23 -48 -79 -34 -126 15 -48 44 -69 97 -69 57 0 94
41 94 105 0 64 -37 105 -94 105 -23 0 -51 -7 -63 -15z m95 -37 c7 -7 12 -30
12 -53 0 -46 -13 -65 -46 -65 -26 0 -54 34 -54 65 0 50 57 84 88 53z"/>
<path d="M6916 6012 c-10 -16 11 -31 49 -34 28 -2 41 -8 43 -20 3 -15 -4 -18
-33 -18 -41 0 -85 -36 -85 -70 0 -40 34 -60 105 -60 l65 0 0 85 c0 106 -14
125 -89 125 -28 0 -52 -4 -55 -8z m94 -142 c0 -34 -22 -40 -55 -16 -27 19 -13
46 25 46 27 0 30 -3 30 -30z"/>
<path d="M7523 5996 c-25 -21 -28 -31 -28 -81 0 -50 3 -60 28 -81 19 -16 40
-24 67 -24 27 0 48 8 67 24 25 21 28 31 28 81 0 50 -3 60 -28 81 -19 16 -40
24 -67 24 -27 0 -48 -8 -67 -24z m107 -35 c26 -50 4 -111 -40 -111 -33 0 -50
23 -50 65 0 42 17 65 50 65 19 0 33 -7 40 -19z"/>
<path d="M7753 6013 c-9 -3 -13 -34 -13 -104 0 -99 0 -99 25 -99 25 0 25 1 25
85 l0 85 34 0 c29 0 46 13 46 36 0 6 -102 4 -117 -3z"/>
<path d="M7907 6013 c-4 -3 -7 -51 -7 -105 0 -98 0 -98 25 -98 25 0 25 1 25
85 l0 85 30 0 c39 0 50 -23 50 -104 0 -64 1 -66 25 -66 24 0 25 3 25 58 0 73
-16 129 -40 142 -21 11 -123 14 -133 3z"/>
<path d="M8155 5994 c-36 -39 -36 -124 0 -160 22 -22 32 -25 83 -22 43 2 57 7
57 18 0 11 -13 16 -45 18 -47 4 -70 16 -70 38 0 11 16 14 65 14 l65 0 0 34 c0
19 -9 45 -21 60 -29 37 -99 37 -134 0z m105 -34 c10 -19 8 -20 -35 -20 -42 0
-58 13 -38 33 15 15 63 7 73 -13z"/>
<path d="M8373 6013 c-9 -3 -13 -34 -13 -104 0 -99 0 -99 25 -99 25 0 25 1 25
84 l0 85 37 3 c27 2 39 8 41 21 3 14 -4 17 -50 16 -29 0 -59 -3 -65 -6z"/>
<path d="M8546 5994 c-21 -22 -26 -36 -26 -79 0 -70 32 -105 97 -105 63 0 93
34 93 105 0 71 -30 105 -93 105 -34 0 -50 -6 -71 -26z m105 -30 c7 -9 13 -31
13 -49 0 -40 -19 -65 -49 -65 -30 0 -49 25 -49 65 0 40 19 65 49 65 12 0 29
-7 36 -16z"/>
<path d="M6394 5481 c-34 -21 -64 -83 -64 -132 0 -40 22 -89 53 -118 32 -29
112 -40 156 -21 35 14 61 63 61 114 l0 36 -60 0 c-57 0 -60 -1 -60 -25 0 -21
5 -25 30 -25 34 0 39 -18 12 -43 -21 -19 -64 -22 -92 -7 -25 13 -43 74 -35
116 13 72 83 99 129 49 22 -24 55 -33 69 -19 12 12 -23 64 -53 79 -40 21 -108
19 -146 -4z"/>
<path d="M6630 5356 l0 -146 30 0 31 0 -3 143 -3 142 -27 3 -28 3 0 -145z"/>
<path d="M6960 5350 l0 -140 25 0 c14 0 25 5 25 10 0 6 11 3 25 -6 30 -19 75
-12 101 18 14 15 19 36 19 85 0 56 -3 67 -24 84 -26 21 -71 25 -102 9 -17 -10
-19 -7 -19 35 0 41 -2 45 -25 45 l-25 0 0 -140z m138 -29 c4 -49 -10 -71 -44
-71 -44 0 -60 74 -24 110 32 32 64 13 68 -39z"/>
<path d="M7650 5370 c0 -54 5 -110 11 -123 12 -27 47 -47 83 -47 29 0 72 33
79 60 4 17 0 20 -23 20 -16 0 -30 -7 -34 -16 -3 -9 -15 -14 -28 -12 -21 3 -23
9 -26 66 l-3 62 46 0 c38 0 45 3 45 20 0 17 -7 20 -45 20 -41 0 -45 2 -45 25
0 21 -5 25 -30 25 l-30 0 0 -100z"/>
<path d="M6070 5394 c0 -20 -4 -24 -19 -19 -25 8 -51 -19 -51 -54 0 -36 17
-51 57 -51 l33 0 0 75 c0 43 -4 75 -10 75 -5 0 -10 -12 -10 -26z m-2 -73 c3
-29 1 -32 -20 -29 -26 3 -35 32 -17 54 18 22 34 12 37 -25z"/>
<path d="M6751 5394 c-85 -71 -17 -211 92 -190 23 4 46 19 62 38 24 28 27 39
22 82 -3 38 -11 55 -31 73 -39 33 -104 32 -145 -3z m111 -38 c12 -18 9 -81 -4
-94 -19 -19 -66 -15 -78 7 -27 51 8 119 53 105 12 -4 25 -12 29 -18z"/>
<path d="M7222 5404 c-30 -21 -29 -54 2 -54 13 0 29 7 36 15 17 20 54 15 58
-7 2 -13 -9 -19 -52 -28 -59 -12 -76 -29 -76 -74 0 -36 40 -60 82 -52 18 4 50
7 71 6 l37 0 0 85 c0 72 -3 88 -20 105 -25 25 -105 27 -138 4z m98 -124 c0
-22 -34 -44 -56 -36 -19 7 -18 33 4 45 28 17 52 13 52 -9z"/>
<path d="M7420 5315 l0 -105 30 0 30 0 0 75 c0 63 3 76 19 85 40 21 51 4 51
-81 l0 -79 30 0 30 0 0 88 c0 101 -12 122 -70 122 -18 0 -42 -7 -52 -17 -17
-15 -18 -15 -18 0 0 11 -8 17 -25 17 l-25 0 0 -105z"/>
<path d="M5353 5373 c-15 -6 -18 -103 -4 -103 6 0 11 19 13 43 2 29 8 42 18
42 10 0 16 -13 18 -42 4 -58 32 -61 32 -4 0 56 -32 83 -77 64z"/>
<path d="M5465 5371 c-3 -5 5 -11 17 -13 31 -4 35 -28 4 -28 -30 0 -40 -13
-31 -40 5 -15 15 -20 41 -20 l34 0 0 49 c0 35 -4 51 -16 55 -23 9 -42 7 -49
-3z m45 -66 c0 -8 -7 -15 -15 -15 -8 0 -15 7 -15 15 0 8 7 15 15 15 8 0 15 -7
15 -15z"/>
<path d="M5626 5371 c-3 -5 3 -11 14 -14 25 -7 26 -27 1 -27 -10 0 -24 -7 -31
-15 -19 -22 5 -45 46 -45 33 0 34 1 34 39 0 40 -20 71 -45 71 -8 0 -16 -4 -19
-9z m42 -69 c2 -7 -6 -12 -17 -12 -21 0 -27 11 -14 24 9 9 26 2 31 -12z"/>
<path d="M5733 5373 c-16 -6 -18 -143 -3 -143 6 0 10 9 10 20 0 14 7 20 23 20
31 0 47 18 47 51 0 40 -41 67 -77 52z m50 -35 c14 -22 1 -48 -23 -48 -15 0
-20 7 -20 28 0 44 22 54 43 20z"/>
<path d="M5853 5373 c-16 -6 -18 -143 -3 -143 6 0 10 9 10 20 0 14 7 20 23 20
31 0 47 18 47 51 0 40 -41 67 -77 52z m50 -35 c14 -22 1 -48 -23 -48 -15 0
-20 7 -20 28 0 44 22 54 43 20z"/>
<path d="M6142 5364 c-24 -17 -30 -62 -10 -82 14 -14 68 -16 68 -3 0 5 -12 11
-27 13 -39 4 -35 22 5 26 35 4 42 21 16 46 -19 20 -24 20 -52 0z m46 -22 c2
-7 -7 -12 -23 -12 -24 0 -26 2 -15 15 14 17 31 16 38 -3z"/>
<path d="M5232 5323 c3 -48 3 -48 41 -51 l37 -3 0 50 c0 28 -4 51 -10 51 -5 0
-10 -18 -10 -40 0 -33 -3 -40 -20 -40 -17 0 -20 7 -20 40 0 22 -5 40 -11 40
-6 0 -9 -19 -7 -47z"/>
<path d="M6585 4040 c-3 -5 -2 -10 4 -10 5 0 13 5 16 10 3 6 2 10 -4 10 -5 0
-13 -4 -16 -10z"/>
<path d="M6210 3985 c0 -53 1 -55 28 -55 40 0 51 12 49 50 -3 48 -13 60 -48
60 -29 0 -29 -1 -29 -55z m50 25 c0 -5 -7 -10 -15 -10 -8 0 -15 5 -15 10 0 6
7 10 15 10 8 0 15 -4 15 -10z m3 -45 c1 -5 -6 -11 -15 -13 -11 -2 -18 3 -18
13 0 17 30 18 33 0z"/>
<path d="M7122 4018 c-16 -16 -15 -53 2 -68 8 -6 26 -10 39 -8 14 1 35 -6 49
-17 l23 -20 -22 25 c-15 17 -20 33 -16 48 10 41 -44 71 -75 40z m59 -14 c9
-11 10 -20 2 -32 -13 -22 -43 -22 -56 -1 -24 38 25 68 54 33z"/>
<path d="M6423 4013 c-19 -7 -16 -40 5 -48 15 -6 14 -8 -8 -18 l-25 -11 29 -4
c38 -5 53 17 26 40 -25 20 -25 26 -2 30 14 3 14 5 2 9 -8 3 -21 4 -27 2z"/>
<path d="M6508 4013 c-23 -6 -34 -49 -18 -68 14 -17 60 -21 60 -5 0 6 -9 10
-19 10 -30 0 -37 21 -12 41 23 19 18 28 -11 22z"/>
<path d="M6570 4010 c-12 -8 -11 -10 8 -10 12 0 22 -4 22 -10 0 -5 -9 -10 -19
-10 -10 0 -21 -6 -24 -13 -9 -23 9 -39 39 -35 23 2 30 9 32 29 2 15 -4 34 -13
43 -19 19 -24 19 -45 6z m30 -50 c0 -5 -4 -10 -10 -10 -5 0 -10 5 -10 10 0 6
5 10 10 10 6 0 10 -4 10 -10z"/>
<path d="M6310 3986 c0 -42 11 -56 41 -56 27 0 29 3 29 40 0 22 -4 40 -10 40
-5 0 -10 -14 -10 -31 0 -38 -24 -35 -28 4 -4 34 -22 36 -22 3z"/>
<path d="M6665 3470 c-3 -5 -2 -10 4 -10 5 0 13 5 16 10 3 6 2 10 -4 10 -5 0
-13 -4 -16 -10z"/>
<path d="M6120 3416 c0 -43 3 -56 15 -56 9 0 15 9 15 23 l1 22 18 -22 c20 -24
48 -32 35 -11 -5 7 -8 31 -9 53 0 39 -1 40 -37 43 l-38 3 0 -55z m58 22 c-6
-18 -28 -21 -28 -4 0 9 7 16 16 16 9 0 14 -5 12 -12z"/>
<path d="M7162 3427 c-36 -37 -43 -68 -13 -60 29 7 75 59 68 77 -9 23 -19 20
-55 -17z m23 -17 c-16 -16 -33 -30 -39 -30 -5 0 3 14 19 30 16 17 33 30 39 30
5 0 -3 -13 -19 -30z"/>
<path d="M6236 3438 c-19 -11 -21 -49 -4 -66 15 -15 58 -16 58 -2 0 6 -10 10
-22 11 l-23 1 23 6 c13 4 23 10 23 15 -1 4 -1 13 -1 21 0 18 -32 26 -54 14z
m34 -18 c0 -5 -7 -10 -16 -10 -8 0 -12 5 -9 10 3 6 10 10 16 10 5 0 9 -4 9
-10z"/>
<path d="M6333 3443 c-19 -7 -16 -40 5 -48 15 -6 14 -8 -8 -18 l-25 -11 29 -4
c38 -5 53 17 26 40 -25 20 -25 26 -2 30 14 3 14 5 2 9 -8 3 -21 4 -27 2z"/>
<path d="M6406 3434 c-31 -31 -13 -74 31 -74 30 0 30 20 1 21 -22 1 -22 1 1 8
31 8 36 24 16 45 -20 20 -29 20 -49 0z m39 -14 c3 -5 -1 -10 -9 -10 -9 0 -16
5 -16 10 0 6 4 10 9 10 6 0 13 -4 16 -10z"/>
<path d="M6503 3443 c-15 -5 -18 -83 -3 -83 6 0 10 15 10 34 0 25 5 36 18 38
14 3 14 5 2 9 -8 3 -21 4 -27 2z"/>
<path d="M6656 3441 c-3 -5 4 -12 17 -16 22 -7 22 -7 -3 -14 -39 -11 -34 -45
8 -49 31 -3 32 -2 32 32 0 25 -6 38 -19 46 -24 12 -28 12 -35 1z m34 -51 c0
-5 -7 -10 -16 -10 -8 0 -12 5 -9 10 3 6 10 10 16 10 5 0 9 -4 9 -10z"/>
<path d="M6565 3404 c8 -20 15 -38 15 -40 0 -2 5 -4 11 -4 8 0 39 58 39 75 0
15 -22 2 -30 -17 l-9 -23 -7 23 c-3 12 -13 22 -20 22 -12 0 -12 -6 1 -36z"/>
<path d="M7138 3343 c17 -2 47 -2 65 0 17 2 3 4 -33 4 -36 0 -50 -2 -32 -4z"/>
<path d="M6735 2900 c-3 -5 -2 -10 4 -10 5 0 13 5 16 10 3 6 2 10 -4 10 -5 0
-13 -4 -16 -10z"/>
<path d="M6087 2882 c-36 -39 -10 -92 44 -92 37 0 38 18 2 22 -24 3 -28 8 -28
33 0 25 4 30 28 33 15 2 27 8 27 13 0 16 -56 9 -73 -9z"/>
<path d="M6664 2886 c-3 -8 -4 -31 -2 -52 2 -32 7 -40 26 -42 25 -4 30 13 7
22 -8 3 -15 12 -15 21 0 8 7 15 15 15 20 0 19 6 -5 30 -16 16 -22 18 -26 6z"/>
<path d="M7183 2887 c-4 -7 -20 -18 -35 -24 -32 -14 -38 -52 -12 -73 13 -11
16 -10 21 8 5 22 23 31 23 12 0 -18 26 -10 50 15 l23 25 -23 25 c-26 28 -36
31 -47 12z m37 -52 c-8 -10 -17 -12 -22 -7 -14 14 -46 3 -51 -17 -4 -14 -5
-14 -12 2 -10 23 11 47 41 47 13 0 24 5 24 12 0 8 6 6 17 -4 14 -14 14 -20 3
-33z"/>
<path d="M6185 2864 c-20 -20 -16 -53 8 -68 39 -24 79 44 41 71 -23 17 -29 16
-49 -3z m45 -29 c0 -19 -20 -29 -32 -17 -8 8 -7 16 2 26 14 17 30 12 30 -9z"/>
<path d="M6287 2872 c-13 -3 -17 -14 -17 -43 0 -47 17 -52 22 -6 2 17 8 32 13
32 6 0 11 -15 13 -32 4 -41 22 -44 22 -4 0 17 5 33 10 36 6 4 10 -8 10 -29 0
-25 4 -36 15 -36 18 0 21 65 4 75 -12 8 -66 12 -92 7z"/>
<path d="M6423 2873 c-16 -6 -18 -113 -3 -113 6 0 10 7 10 15 0 8 9 15 20 15
23 0 43 32 34 55 -5 13 -36 37 -46 34 -2 0 -9 -3 -15 -6z m37 -44 c0 -10 -7
-19 -15 -19 -15 0 -21 31 -9 43 11 10 24 -3 24 -24z"/>
<path d="M6522 2871 c-10 -6 -8 -10 10 -16 l23 -7 -25 -7 c-39 -11 -34 -45 8
-49 31 -3 32 -2 32 36 0 27 -5 42 -16 46 -19 7 -16 8 -32 -3z m28 -51 c0 -5
-7 -10 -16 -10 -8 0 -12 5 -9 10 3 6 10 10 16 10 5 0 9 -4 9 -10z"/>
<path d="M6608 2872 c-24 -5 -26 -82 -3 -82 10 0 15 10 15 34 0 25 5 36 18 38
14 3 14 5 2 9 -8 3 -23 4 -32 1z"/>
<path d="M7090 2820 l0 -60 60 0 c33 0 60 3 60 8 0 4 -25 5 -55 4 l-55 -4 0
50 c0 45 3 51 23 55 19 4 18 4 -5 6 -28 1 -28 0 -28 -59z"/>
<path d="M6730 2830 c0 -29 4 -40 15 -40 11 0 15 11 15 40 0 29 -4 40 -15 40
-11 0 -15 -11 -15 -40z"/>
<path d="M6390 2279 l0 -60 33 3 c29 3 32 6 32 38 0 29 -4 36 -22 38 -15 2
-23 10 -23 23 0 10 -4 19 -10 19 -6 0 -10 -27 -10 -61z m50 -20 c0 -10 -7 -19
-15 -19 -15 0 -21 31 -9 43 11 10 24 -3 24 -24z"/>
<path d="M6570 2330 c0 -5 7 -10 15 -10 8 0 15 5 15 10 0 6 -7 10 -15 10 -8 0
-15 -4 -15 -10z"/>
<path d="M6645 2330 c-3 -5 -2 -10 4 -10 5 0 13 5 16 10 3 6 2 10 -4 10 -5 0
-13 -4 -16 -10z"/>
<path d="M6140 2320 c0 -5 7 -10 15 -10 11 0 15 -12 15 -45 0 -33 4 -45 15
-45 11 0 15 12 15 45 0 33 4 45 15 45 8 0 15 5 15 10 0 6 -20 10 -45 10 -25 0
-45 -4 -45 -10z"/>
<path d="M7143 2317 c-4 -8 -16 -17 -26 -20 -14 -5 -18 -16 -15 -49 l3 -43 65
0 65 0 3 43 c3 37 0 44 -17 49 -11 3 -22 11 -25 19 -7 18 -42 18 -53 1z m77
-67 l0 -40 -50 0 -50 0 0 40 0 40 50 0 50 0 0 -40z"/>
<path d="M6248 2302 c-24 -5 -26 -82 -3 -82 10 0 15 10 15 34 0 25 5 36 18 38
14 3 14 5 2 9 -8 3 -23 4 -32 1z"/>
<path d="M6310 2300 c-12 -8 -11 -10 8 -10 12 0 22 -4 22 -10 0 -5 -9 -10 -19
-10 -10 0 -21 -6 -24 -13 -9 -23 9 -39 39 -35 23 2 30 9 32 29 2 15 -4 34 -13
43 -19 19 -24 19 -45 6z m30 -50 c0 -5 -4 -10 -10 -10 -5 0 -10 5 -10 10 0 6
5 10 10 10 6 0 10 -4 10 -10z"/>
<path d="M6496 2301 c-3 -5 4 -12 17 -16 22 -7 22 -7 -3 -14 -39 -11 -34 -45
8 -49 31 -3 32 -2 32 32 0 25 -6 38 -19 46 -24 12 -28 12 -35 1z m34 -51 c0
-5 -7 -10 -16 -10 -8 0 -12 5 -9 10 3 6 10 10 16 10 5 0 9 -4 9 -10z"/>
<path d="M6630 2300 c-12 -8 -11 -10 8 -10 12 0 22 -4 22 -10 0 -5 -9 -10 -19
-10 -10 0 -21 -6 -24 -13 -9 -23 9 -39 39 -35 23 2 30 9 32 29 2 15 -4 34 -13
43 -19 19 -24 19 -45 6z m30 -50 c0 -5 -4 -10 -10 -10 -5 0 -10 5 -10 10 0 6
5 10 10 10 6 0 10 -4 10 -10z"/>
<path d="M6570 2256 c0 -26 -5 -46 -12 -49 -7 -2 -10 -8 -6 -12 4 -4 14 -5 23
-2 17 7 22 107 5 107 -5 0 -10 -20 -10 -44z"/>
<path d="M5770 1754 c0 -20 -4 -24 -19 -19 -25 8 -51 -19 -51 -54 0 -36 17
-51 57 -51 l33 0 0 75 c0 43 -4 75 -10 75 -5 0 -10 -12 -10 -26z m-2 -73 c3
-29 1 -32 -20 -29 -26 3 -35 32 -17 54 18 22 34 12 37 -25z"/>
<path d="M6270 1711 c0 -39 5 -73 11 -76 15 -10 15 -8 11 73 -5 92 -22 94 -22
3z"/>
<path d="M6700 1721 c0 -69 6 -91 27 -91 10 0 13 6 9 16 -3 9 -6 42 -6 75 0
46 -3 59 -15 59 -12 0 -15 -13 -15 -59z"/>
<path d="M7158 1758 c-2 -13 -9 -22 -16 -20 -28 5 -52 -18 -52 -51 0 -42 15
-57 57 -57 l33 0 0 75 c0 41 -4 75 -9 75 -5 0 -11 -10 -13 -22z m2 -80 c0 -25
-4 -29 -22 -26 -26 3 -38 46 -17 58 21 14 39 -1 39 -32z"/>
<path d="M5470 1760 c0 -5 9 -10 20 -10 18 0 20 -7 20 -60 0 -77 18 -79 22 -2
3 51 6 57 26 60 12 2 20 8 17 13 -8 12 -105 12 -105 -1z"/>
<path d="M7370 1711 c0 -65 7 -81 36 -81 29 0 32 16 4 23 -29 7 -27 53 3 61
l22 7 -22 9 c-13 5 -23 14 -23 20 0 5 -4 10 -10 10 -5 0 -10 -22 -10 -49z"/>
<path d="M5602 1724 c-24 -17 -30 -62 -10 -82 29 -29 88 -2 88 39 0 19 -33 59
-48 59 -4 0 -18 -7 -30 -16z m43 -40 c0 -22 -5 -29 -20 -29 -23 0 -32 30 -14
51 18 22 34 11 34 -22z"/>
<path d="M5838 1729 c-21 -12 -24 -69 -6 -87 7 -7 21 -12 33 -12 30 0 45 19
45 57 0 44 -34 64 -72 42z m50 -48 c-4 -35 -41 -37 -46 -2 -4 26 13 42 35 34
8 -3 13 -16 11 -32z"/>
<path d="M5999 1719 c-15 -15 -19 -28 -14 -47 8 -32 21 -42 58 -42 35 0 35 18
0 22 -42 5 -41 28 1 28 41 0 45 11 16 40 -25 25 -35 25 -61 -1z m49 -17 c2 -7
-6 -12 -17 -12 -21 0 -27 11 -14 24 9 9 26 2 31 -12z"/>
<path d="M6113 1733 c-15 -6 -18 -103 -4 -103 6 0 11 19 13 43 2 29 8 42 18
42 10 0 16 -13 18 -42 4 -58 32 -61 32 -4 0 56 -32 83 -77 64z"/>
<path d="M6335 1731 c-3 -5 5 -11 17 -13 32 -5 34 -26 1 -30 -22 -2 -28 -8
-28 -28 0 -22 5 -25 38 -28 l37 -3 0 45 c0 35 -5 48 -19 56 -24 12 -38 13 -46
1z m45 -66 c0 -8 -9 -15 -20 -15 -20 0 -26 11 -13 23 12 13 33 7 33 -8z"/>
<path d="M6493 1733 c-16 -6 -18 -143 -3 -143 6 0 10 9 10 20 0 14 7 20 23 20
31 0 47 18 47 51 0 40 -41 67 -77 52z m50 -35 c14 -22 1 -48 -23 -48 -15 0
-20 7 -20 28 0 44 22 54 43 20z"/>
<path d="M6605 1731 c-3 -5 5 -11 17 -13 31 -4 35 -28 4 -28 -30 0 -40 -13
-31 -40 5 -15 15 -20 41 -20 l34 0 0 49 c0 35 -4 51 -16 55 -23 9 -42 7 -49
-3z m45 -66 c0 -8 -7 -15 -15 -15 -8 0 -15 7 -15 15 0 8 7 15 15 15 8 0 15 -7
15 -15z"/>
<path d="M6778 1732 c-24 -5 -27 -102 -3 -102 11 0 15 12 15 46 0 59 24 55 28
-4 2 -30 8 -42 18 -42 12 0 15 10 12 43 -2 32 1 42 12 42 10 0 16 -13 18 -42
2 -31 8 -43 19 -43 13 0 15 9 10 45 -2 26 -7 49 -10 52 -7 7 -95 11 -119 5z"/>
<path d="M6945 1731 c-3 -5 5 -11 17 -13 32 -5 34 -26 1 -30 -22 -2 -28 -8
-28 -28 0 -22 5 -25 38 -28 l37 -3 0 45 c0 35 -5 48 -19 56 -24 12 -38 13 -46
1z m45 -66 c0 -8 -9 -15 -20 -15 -20 0 -26 11 -13 23 12 13 33 7 33 -8z"/>
<path d="M7219 1719 c-15 -15 -19 -28 -14 -47 8 -32 21 -42 58 -42 35 0 35 18
0 22 -42 5 -41 28 1 28 41 0 45 11 16 40 -25 25 -35 25 -61 -1z m49 -17 c2 -7
-6 -12 -17 -12 -21 0 -27 11 -14 24 9 9 26 2 31 -12z"/>
<path d="M7633 1733 c-16 -6 -18 -103 -3 -103 6 0 10 20 10 45 0 25 4 45 8 45
18 0 32 -26 32 -57 0 -18 5 -33 10 -33 6 0 10 17 10 38 0 21 3 42 7 45 13 13
33 -16 33 -49 0 -19 5 -34 10 -34 12 0 13 70 1 89 -8 13 -92 23 -118 14z"/>
<path d="M7806 1731 c-3 -5 3 -11 14 -14 25 -7 26 -27 1 -27 -10 0 -24 -7 -31
-15 -19 -22 5 -45 46 -45 33 0 34 1 34 39 0 40 -20 71 -45 71 -8 0 -16 -4 -19
-9z m42 -69 c2 -7 -6 -12 -17 -12 -21 0 -27 11 -14 24 9 9 26 2 31 -12z"/>
<path d="M7913 1733 c-16 -6 -18 -103 -3 -103 6 0 10 21 10 46 0 38 3 45 18
42 12 -2 18 -15 20 -46 4 -56 22 -54 22 3 0 34 -5 47 -19 55 -21 11 -29 11
-48 3z"/>
<path d="M8032 1724 c-24 -17 -30 -62 -10 -82 29 -29 88 -2 88 39 0 19 -33 59
-48 59 -4 0 -18 -7 -30 -16z m43 -40 c0 -22 -5 -29 -20 -29 -23 0 -32 30 -14
51 18 22 34 11 34 -22z"/>
<path d="M7450 1699 c0 -49 16 -69 55 -69 l35 0 0 50 c0 28 -4 50 -10 50 -5 0
-10 -18 -10 -40 0 -33 -3 -40 -20 -40 -17 0 -20 7 -20 40 0 29 -4 40 -15 40
-10 0 -15 -10 -15 -31z"/>
<path d="M13390 33 c0 -36 0 -36 20 -18 19 17 19 19 4 37 -23 24 -24 24 -24
-19z"/>
</g>
</svg>
