<?xml version="1.0" standalone="no"?>
<!DOCTYPE svg PUBLIC "-//W3C//DTD SVG 20010904//EN"
 "http://www.w3.org/TR/2001/REC-SVG-20010904/DTD/svg10.dtd">
<svg version="1.0" xmlns="http://www.w3.org/2000/svg"
 width="225.000000pt" height="225.000000pt" viewBox="0 0 225.000000 225.000000"
 preserveAspectRatio="xMidYMid meet">

<g transform="translate(0.000000,225.000000) scale(0.100000,-0.100000)"
fill="#000000" stroke="none">
<path d="M919 2100 c-640 -135 -983 -853 -689 -1446 285 -573 1025 -737 1520
-336 531 430 493 1260 -76 1638 -216 144 -500 198 -755 144z m258 -987 c-49
-203 -90 -369 -92 -371 -2 -2 -25 -2 -52 0 l-50 3 83 345 c46 190 86 355 89
368 5 19 12 22 59 22 l53 0 -90 -367z m-244 126 c-4 -4 -82 -35 -171 -70
l-164 -62 169 -68 168 -67 3 -72 c2 -40 -1 -70 -6 -68 -4 1 -117 50 -250 107
l-242 104 0 62 0 62 248 106 247 106 3 -66 c2 -36 -1 -69 -5 -74z m692 4 l180
-78 3 -57 c3 -54 1 -58 -25 -72 -24 -12 -416 -185 -461 -203 -10 -4 -12 11
-10 66 l3 72 168 66 c92 37 166 67 164 69 -1 1 -76 32 -167 67 l-165 64 -3 71
-3 71 68 -29 c37 -16 149 -64 248 -107z"/>
</g>
</svg>
